<svg width="24" height="24" xmlns="http://www.w3.org/2000/svg"><defs><linearGradient x1=".311%" y1="50%" x2="100%" y2="50%" id="a"><stop stop-color="#F24030" stop-opacity=".9" offset="0%"/><stop stop-color="#F21818" offset="100%"/></linearGradient></defs><path d="M12 0c6.627 0 12 5.373 12 12s-5.373 12-12 12S0 18.627 0 12 5.373 0 12 0zM8.356 16.706a1.193 1.193 0 100 2.386 1.193 1.193 0 000-2.386zm7.967 0a1.193 1.193 0 100 2.386 1.193 1.193 0 000-2.386zM5.91 5.402h-.618a.655.655 0 100 1.31h.618a.16.16 0 01.157.152l.643 6.979c.049.635.332 1.224.8 1.658a2.517 2.517 0 001.718.675h6.193a2.523 2.523 0 002.509-2.23l.694-4.457.004-.028a1.592 1.592 0 00-1.58-1.767H9.205a.655.655 0 100 1.31h7.841a.28.28 0 01.28.302l-.693 4.45-.004.03a1.215 1.215 0 01-1.209 1.08H9.228a1.212 1.212 0 01-1.213-1.132l-.643-6.979A1.463 1.463 0 005.91 5.402z" fill="url(#a)" fill-rule="evenodd"/></svg>