<?xml version="1.0" standalone="no"?>
<!DOCTYPE svg PUBLIC "-//W3C//DTD SVG 1.1//EN" "http://www.w3.org/Graphics/SVG/1.1/DTD/svg11.dtd" >
<!--
2013-9-30: Created.
-->
<svg>
<metadata>
Created by iconfont
</metadata>
<defs>

<font id="iconfont" horiz-adv-x="1024" >
  <font-face
    font-family="iconfont"
    font-weight="500"
    font-stretch="normal"
    units-per-em="1024"
    ascent="896"
    descent="-128"
  />
    <missing-glyph />
    
    <glyph glyph-name="yuan" unicode="&#58943;" d="M511.528375-126.751067C229.648894-126.751067 0.47412 102.422458 0.47412 384.296949 0.47412 666.17643 229.648894 895.351204 511.528375 895.351204 793.402866 895.351204 1022.575144 666.17643 1022.575144 384.296949c0-281.874491-229.17103-511.048016-511.046769-511.048016z m0 958.222049c-246.808305 0-447.174033-200.365728-447.174032-447.174033 0-246.802066 200.365728-447.166546 447.174032-447.166546 246.800819 0 447.169042 200.365728 447.169042 447.166546 0 246.808305-200.368223 447.174033-447.169042 447.174033z m0 0M599.303012 662.198811V107.463106H485.411834V534.640491c-14.016493-12.149956-33.175943-23.073438-57.470865-32.764207-24.30116-9.697008-46.607272-15.71584-66.933307-18.047763v97.06989c64.008734 18.689073 119.377249 45.787543 166.104298 81.3004h72.191052z"  horiz-adv-x="1024" />

    
    <glyph glyph-name="gouwuche1" unicode="&#58925;" d="M904.474267 108.668086H115.240473a37.805663 37.805663 0 0 0-35.25436 35.115198S25.805728 444.92974 1.127676 652.281042c-7.097259 57.427497 19.992933 85.491823 72.92086 85.491823h862.154655l14.194519 123.065549A36.692367 36.692367 0 0 0 983.286317 896h158.783782a39.846704 39.846704 0 1 0 0-79.693409h-123.529422l-79.971733-672.616081a35.903783 35.903783 0 0 0-34.094677-34.976037zM77.759522 659.424689c21.291778-166.391302 56.453364-389.004032 70.555107-471.99094h722.018573L926.647404 659.424689z m787.888561-630.450012a78.487339 78.487339 0 1 0-78.858437-78.487338 78.487339 78.487339 0 0 0 78.858437 78.487338z m-711.581427 0a78.487339 78.487339 0 1 0-78.858437-78.487338 78.487339 78.487339 0 0 0 78.858437 78.487338z"  horiz-adv-x="1183" />

    
    <glyph glyph-name="gouwuche2" unicode="&#58926;" d="M276.841412 110.712471h787.154823a37.707294 37.707294 0 0 1 35.177412 35.026823s53.970824 300.333176 78.607059 507.181177c7.077647 57.223529-19.907765 85.293176-72.734118 85.293176H245.187765l-14.155294 122.699294A36.592941 36.592941 0 0 1 198.174118 896H39.845647a39.755294 39.755294 0 0 1 0-79.450353h123.181177l79.811764-670.930823a35.84 35.84 0 0 1 34.002824-34.936471zM1101.552941 659.937882c-21.232941-165.948235-56.32-387.975529-70.384941-470.738823H310.874353l-56.32 470.738823h846.998588zM315.542588 31.262118a78.305882 78.305882 0 1 1 78.607059-78.305883 78.426353 78.426353 0 0 1-78.546823 78.305883h-0.060236z m709.722353 0a78.305882 78.305882 0 1 1 78.607059-78.305883 78.426353 78.426353 0 0 1-78.576941 78.305883z"  horiz-adv-x="1204" />

    
    <glyph glyph-name="gouwuche11" unicode="&#58927;" d="M367.1 145.5q17.1 0 32.4-6.3t27-17.55 18-26.55 6.3-32.4-6.3-32.4-18-26.55-27-18-32.4-6.75q-18 0-32.85 6.75t-26.55 18-18 26.55-6.3 32.4 6.3 32.4 18 26.55 26.55 17.55 32.85 6.3zM741.5 143.70000000000005q17.1 0 32.85-6.3t27-17.55 18-26.55 6.75-32.4-6.75-32.4-18-26.55-27-18-32.85-6.75-32.4 6.75-26.55 18-18 26.55-6.75 32.4 6.75 32.4 18 26.55 26.55 17.55 32.4 6.3zM892.7 654.9q25.2 0 39.15-6.75t19.8-16.65 5.4-21.15-3.15-19.35-11.25-33.3-19.35-55.35-21.15-59.85-15.75-46.8q-11.7-36-29.7-49.95t-44.1-13.95l-30.6 0-58.5 0-76.5 0-83.7 0-223.2 0 13.5-81 453.6 0q43.2 0 43.2-36.9 0-18-8.55-31.05t-33.75-13.05l-43.2 0-83.7 0-103.5 0-105.3 0-86.4 0-49.5 0q-18 0-30.15 8.1t-20.25 21.15-13.05 28.35-7.65 28.8q-0.9 5.4-4.95 26.1t-9.9 51.75-13.05 69.3-14.4 76.95q-17.1 90.9-38.7 202.5l-67.5 0q-13.5 0-22.5 6.75t-14.85 16.2-8.1 20.25-2.25 19.8q0 18 12.15 29.7t32.85 11.7l19.8 0 18 0 22.5 0 30.6 0q18 0 28.8-5.4t17.1-13.5 9-17.1 4.5-15.3q1.8-7.2 3.6-20.25t3.6-26.55q2.7-16.2 5.4-34.2l615.6 0z"  horiz-adv-x="1024" />

    
    <glyph glyph-name="shop-car-select" unicode="&#58928;" d="M276.841412 110.71247100000005h787.154823a37.707294 37.707294 0 0 1 35.177412 35.026823s53.970824 300.333176 78.607059 507.181177c7.077647 57.223529-19.907765 85.293176-72.734118 85.293176H245.187765l-14.155294 122.699294A36.592941 36.592941 0 0 1 198.174118 896H39.845647a39.755294 39.755294 0 0 1 0-79.450353h123.181177l79.811764-670.930823a35.84 35.84 0 0 1 34.002824-34.936471zM1101.552941 659.937882c-21.232941-165.948235-56.32-387.975529-70.384941-470.738823H310.874353l-56.32 470.738823h846.998588zM315.542588 31.262117999999987a78.305882 78.305882 0 1 1 78.607059-78.305883 78.426353 78.426353 0 0 1-78.546823 78.305883h-0.060236z m709.722353 0a78.305882 78.305882 0 1 1 78.607059-78.305883 78.426353 78.426353 0 0 1-78.576941 78.305883z"  horiz-adv-x="1204" />

    
    <glyph glyph-name="gouwuche4" unicode="&#58931;" d="M276.841 110.712h787.155a37.707 37.707 0 0 1 35.178 35.027s53.97 300.333 78.607 507.181c7.077 57.224-19.908 85.294-72.734 85.294h-859.86L231.033 860.913A36.593 36.593 0 0 1 198.174 896H39.846a39.755 39.755 0 0 1 0-79.45h123.18l79.813-670.931a35.84 35.84 0 0 1 34.002-34.937z m824.712 549.226c-21.233-165.948-56.32-387.976-70.385-470.739H310.874l-56.32 470.739h846.999z m-786.01-628.676a78.306 78.306 0 1 1 78.607-78.306 78.426 78.426 0 0 1-78.547 78.306h-0.06z m709.722 0a78.306 78.306 0 1 1 78.607-78.306 78.426 78.426 0 0 1-78.577 78.306z"  horiz-adv-x="1204" />

    
    <glyph glyph-name="weibiaoti1" unicode="&#58917;" d="M668.96701 89.2096c-188.216076 0-341.333333 153.051429-341.333333 341.333333 0 188.413562 153.117257 341.462552 341.333333 341.462552 188.279467 0 341.59421-153.04899 341.59421-341.462552C1010.561219 242.261029 857.244038 89.2096 668.96701 89.2096zM668.96701 690.8096c-143.447771 0-260.269105-116.689676-260.269105-260.269105 0-143.445333 116.823771-260.137448 260.269105-260.137448 143.642819 0 260.334933 116.689676 260.334933 260.137448C929.301943 574.122362 812.609829 690.8096 668.96701 690.8096zM423.767771 128.51901c0.453486-0.492495 0.419352-1.270248-0.075581-1.721295L92.303848-176.591543c-0.494933-0.453486-1.270248-0.419352-1.721295 0.075581L8.916114-87.1232c-0.453486 0.494933-0.416914 1.270248 0.075581 1.723733L340.114286 217.9264c0.494933 0.453486 1.270248 0.419352 1.723733-0.073143L423.767771 128.51901z"  horiz-adv-x="1024" />

    
    <glyph glyph-name="sousuo" unicode="&#58918;" d="M1013.76-66.592 809.984 137.184c43.008 68.608 68.608 148.48 68.608 235.52C878.592 615.392 681.984 812 439.296 812 196.608 812 0 615.392 0 372.704c0-242.688 196.608-439.296 439.296-439.296 87.04 0 167.936 25.6 235.52 68.608L878.592-201.76c13.312-13.312 121.856-13.312 135.168 0C1027.072-188.448 1027.072-79.904 1013.76-66.592zM439.296 68.576c-167.936 0-304.128 136.192-304.128 304.128 0 167.936 136.192 304.128 304.128 304.128 167.936 0 304.128-136.192 304.128-304.128C743.424 204.768 607.232 68.576 439.296 68.576z"  horiz-adv-x="1024" />

    
    <glyph glyph-name="sousuo1" unicode="&#58919;" d="M681.95525 308.19525 1011.588104-21.4376C1027.449573-37.299073 1027.216638-63.24854 1011.548049-78.917128L974.917284-115.54789C959.033688-131.431485 933.403533-131.553722 917.437755-115.587944L587.804905 214.044905 681.95525 308.19525ZM379.525083 177.90983 379.525083 177.90983C566.509416 177.90983 718.09017 329.490584 718.09017 516.474917 718.09017 703.459249 566.509416 855.04 379.525083 855.04 192.540751 855.04 40.96 703.459249 40.96 516.474917 40.96 329.490584 192.540751 177.90983 379.525083 177.90983L379.525083 177.90983ZM379.525083 136.94983 379.525083 136.94983C169.919168 136.94983 0 306.868998 0 516.474917 0 726.080832 169.919168 896 379.525083 896 589.131002 896 759.05017 726.080832 759.05017 516.474917 759.05017 306.868998 589.131002 136.94983 379.525083 136.94983L379.525083 136.94983Z"  horiz-adv-x="1024" />

    
    <glyph glyph-name="sousuo2" unicode="&#58920;" d="M465.737365-48.379447C723.163792-48.379447 931.474729 163.225963 931.474729 423.810277 931.474729 684.39459 723.163792 896 465.737365 896 208.310938 896 0 684.39459 0 423.810277 0 163.225963 208.310938-48.379447 465.737365-48.379447L465.737365-48.379447ZM465.737365 21.035431C247.457574 21.035431 70.132428 201.165001 70.132428 423.810277 70.132428 646.455552 247.457574 826.585123 465.737365 826.585123 684.017156 826.585123 861.342302 646.455552 861.342302 423.810277 861.342302 201.165001 684.017156 21.035431 465.737365 21.035431ZM812.64061 36.054958 963.818307-117.513641C977.333528-131.242607 999.534355-131.52798 1013.405241-118.151038 1027.276126-104.774095 1027.564449-82.800413 1014.049228-69.071445L862.871529 84.497152C849.356307 98.22612 827.15548 98.511491 813.284595 85.134549 799.413709 71.757606 799.125387 49.783924 812.64061 36.054958ZM327.838574 239.965083C294.711711 265.311476 270.803011 295.214358 254.770629 328.936663 230.048514 380.936834 225.641013 436.913918 233.10923 486.906987 234.224495 494.372707 235.280576 499.439524 235.854732 501.649792 240.677219 520.214386 229.381472 539.133365 210.624972 543.906512 191.868471 548.679661 172.753924 537.499482 167.931437 518.934888 166.769123 514.46046 165.220498 507.030521 163.731059 497.060055 154.41569 434.701938 159.861706 365.535299 191.312792 299.381494 212.006505 255.854609 242.898083 217.218161 284.945402 185.046451 300.267529 173.323017 322.290531 176.113248 334.135155 191.278609 345.979778 206.443971 343.160703 228.241647 327.838574 239.965083L327.838574 239.965083Z"  horiz-adv-x="1025" />

    
    <glyph glyph-name="magnifier" unicode="&#58921;" d="M91.840124-128c-24.526219 0-47.581225 9.526749-64.926771 26.872295C9.55047-83.746573 0.004458-60.692074 0.004458-36.14649c0 24.508882 9.546012 47.598967 26.908895 64.945527l185.671781 185.670261c17.345039 17.345546 40.399537 26.908895 64.926771 26.908895 24.527233 0 47.598967-9.563349 64.962864-26.872295 35.799952-35.854397 35.781196-94.144532 0-129.925728L156.803495-101.127705C139.440105-118.473251 116.367864-128 91.840124-128L91.840124-128zM277.511905 204.142612c-14.582166 0-28.291092-5.673264-38.600035-16.000051L53.241103 2.471287c-10.327699-10.327699-16.000051-24.036626-16.000051-38.617777 0-14.582267 5.672352-28.327794 16.000051-38.653465 20.618291-20.618899 56.581171-20.618899 77.235656 0.034573l185.671274 185.67239c21.272231 21.272231 21.272231 55.926622-0.018858 77.235656C305.820842 198.469348 292.111915 204.142612 277.511905 204.142612L277.511905 204.142612zM348.001531 149.597985c-1.617819 0-3.253988 0.217879-4.872314 0.653636-6.4366 1.746478-11.454505 6.799968-13.145524 13.236569-2.526745 9.707926-7.200038 17.999892-13.854517 24.690161-6.617777 6.582191-14.926676 11.236524-24.672215 13.818829-6.436195 1.708863-11.472247 6.72768-13.217812 13.16428-1.727214 6.435688 0.108889 13.307945 4.818275 17.998067l59.562836 59.564356c3.709415 3.745508 8.817857 5.745552 14.090646 5.453459 5.254945-0.290066 10.163352-2.763381 13.491048-6.835656 14.672298-17.926691 31.200063-34.472301 49.144599-49.126755 4.07329-3.34554 6.545489-8.254454 6.818319-13.491048 0.254986-5.272282-1.708965-10.363387-5.436629-14.108895l-59.562836-59.563444C357.63808 151.524727 352.874757 149.597985 348.001531 149.597985L348.001531 149.597985zM328.402475 225.851514c5.090598-3.309852 9.799477-7.091149 14.053944-11.345616 4.272817-4.291067 8.090614-9.01779 11.40006-14.073207l26.381687 26.363336c-8.872808 8.073277-17.36339 16.58221-25.454511 25.454511L328.402475 225.851514 328.402475 225.851514zM639.23514 126.470286c-212.161343 0-384.759889 172.616795-384.759889 384.769318C254.475251 723.401454 427.073797 896 639.23514 896s384.760396-172.598546 384.760396-384.760396C1023.995536 299.087081 851.396585 126.470286 639.23514 126.470286L639.23514 126.470286zM639.23514 858.763811c-191.615341 0-347.523701-155.907346-347.523701-347.524208 0-191.606926 155.90836-347.532623 347.523701-347.532623 191.616862 0 347.525728 155.925697 347.525728 347.532623C986.760869 702.856466 830.852002 858.763811 639.23514 858.763811L639.23514 858.763811zM437.855909 510.91233c-10.290592 0-18.618246 8.327249-18.618246 18.618348 0 131.416307 106.890595 238.324746 238.288551 238.324746 10.290085 0 18.618855-8.326742 18.618855-18.617841 0-10.290592-8.32877-18.618246-18.618855-18.618246-110.853475 0-201.052464-90.199496-201.052464-201.088659C456.473749 519.239579 448.146095 510.91233 437.855909 510.91233L437.855909 510.91233z"  horiz-adv-x="1024" />

    
    <glyph glyph-name="sousuo3" unicode="&#58923;" d="M896.4 584.4c-17.4 41.1-42.3 78-73.9 109.7-31.7 31.7-68.6 56.6-109.7 73.9-42.6 18-87.7 27.1-134.3 27.1S486.7 786 444.1 768c-41.1-17.4-78-42.3-109.7-73.9-31.7-31.7-56.6-68.6-73.9-109.7-18-42.6-27.1-87.7-27.1-134.3s9.1-91.8 27.1-134.3c7.8-18.5 17.2-36.1 28-52.8L119.1 93.5c-13.6-13.6-21.1-31.7-21.1-51s7.5-37.5 21.1-51c13.6-13.6 31.7-21.1 51-21.1s37.5 7.5 51 21.1l169.3 169.3c17-11 34.9-20.6 53.7-28.6 42.6-18 87.7-27.1 134.3-27.1s91.8 9.1 134.3 27.1c41.1 17.4 78 42.3 109.7 73.9s56.6 68.6 73.9 109.7c18 42.6 27.1 87.7 27.1 134.3s-9 91.7-27 134.3zM195.7 16.9c-14.1-14.1-37.1-14.1-51.2 0-6.8 6.8-10.5 15.9-10.5 25.6s3.7 18.8 10.5 25.6l165.4 165.4c7.7-9.5 15.9-18.6 24.6-27.3 8.5-8.5 17.3-16.4 26.5-23.9L195.7 16.9zM797 231.5C738.6 173.2 661 141 578.5 141S418.3 173.1 360 231.5c-58.4 58.4-90.5 136-90.5 218.5s32.1 160.2 90.5 218.5c58.4 58.4 136 90.5 218.5 90.5s160.1-32 218.5-90.4 90.5-136 90.5-218.5c0-82.6-32.1-160.2-90.5-218.6zM578.5 219c-7.7 0-14-6.3-14-14s6.3-14 14-14c69.2 0 134.3 26.9 183.2 75.9 48.9 48.9 75.9 114 75.9 183.2 0 7.7-6.3 14-14 14s-14-6.3-14-14c0-61.7-24-119.8-67.7-163.4C698.2 243 640.2 219 578.5 219z"  horiz-adv-x="1024" />

    
    <glyph glyph-name="sousuo4" unicode="&#58924;" d="M575.313439 83.211235m-104.357324 0a104.357324 104.357324 0 1 1 208.714648 0 104.357324 104.357324 0 1 1-208.714648 0ZM832.362005 220.72323v-236.077238c8.887849 7.090306 17.476107 14.580066 25.764775 22.269553 6.391262 23.867369 9.78662 48.933099 9.78662 74.697874-0.099863 50.431051-12.982251 97.866199-35.551395 139.109811zM578.009752 371.517067c-160.081139 0-289.903647-129.722645-289.903647-289.903648 0-70.403745 25.06573-134.815682 66.80866-185.047006 49.53228-15.978155 102.360055-24.566413 157.185098-24.566413 61.216306 0 119.936025 10.785255 174.261752 30.458358L659.098888-70.378779c-25.964502-14.380339-55.923542-22.46928-87.680125-22.46928C470.956115-92.848059 389.467525-11.359469 389.467525 89.103179s81.48859 181.951239 181.951238 181.951239S753.370002 189.565828 753.370002 89.103179c0-36.050712-10.485664-69.704701-28.660815-98.065925l47.834601-47.834601c20.971328 12.482933 40.844158 26.264092 59.818217 41.443339V220.72323c-49.332553 89.877121-144.702165 150.793837-254.352253 150.793837zM512.099863 894.901502C229.586113 894.901502 0.599181 665.91457 0.599181 383.400819c0-161.778818 75.197191-306.081529 192.436902-399.853325v436.403354c0 15.878291 12.982251 28.760679 28.760679 28.760679h35.751122v95.569339c0 18.374878 14.97952 33.354398 33.354398 33.354398h444.791886c17.775697 0 32.355764-14.580066 32.355764-32.355763v-96.567974h35.551394c15.878291 0 28.760679-12.982251 28.760679-28.760679v-199.227618c22.669007-41.243612 35.551395-88.67876 35.551395-139.109811 0-25.764775-3.395358-50.930369-9.78662-74.697874 101.66101 93.372343 165.473766 227.588843 165.473766 376.485274-0.099863 282.513751-229.086795 511.500683-511.500683 511.500683z"  horiz-adv-x="1025" />

    
    <glyph glyph-name="sousuo5" unicode="&#58973;" d="M608 784c-167.90016 0-304-136.09984-304-304 0-70.2976 23.90016-134.99904 63.8976-186.50112l-253.59872-253.59872a8.03328 8.03328 0 0 1 0-11.29984l42.30144-42.30144a8.03328 8.03328 0 0 1 11.29984 0l253.59872 253.59872c51.50208-40.00256 116.1984-63.8976 186.50112-63.8976 167.90016 0 304 136.09984 304 304s-136.09984 304-304 304z m161.19808-465.19808c-42.99776-43.10016-100.3008-66.80064-161.19808-66.80064s-118.20032 23.70048-161.19808 66.80064c-43.10016 42.99776-66.80064 100.3008-66.80064 161.19808s23.70048 118.20032 66.80064 161.19808c42.99776 43.10016 100.3008 66.80064 161.19808 66.80064s118.20032-23.70048 161.19808-66.80064c43.10016-42.99776 66.80064-100.3008 66.80064-161.19808s-23.70048-118.20032-66.80064-161.19808z"  horiz-adv-x="1024" />

    
    <glyph glyph-name="sousuo6" unicode="&#59807;" d="M648.96 590.72a136.533333 136.533333 0 1 1 136.533333-136.533333 136.533333 136.533333 0 0 1-136.533333 136.533333z m0-251.52a115.2 115.2 0 1 0 115.2 114.986667 115.2 115.2 0 0 0-115.2-114.986667zM828.16 454.186667a178.133333 178.133333 0 0 1-33.706667 104.32v277.333333h-256v-21.333333h234.666667v-85.333334H217.173333v85.333334h256v21.333333h-277.333333v-621.013333h411.093333L593.28 64a36.266667 36.266667 0 0 1 9.173333-27.093333 35.626667 35.626667 0 0 1 26.24-11.52h42.666667A35.413333 35.413333 0 0 1 705.92 64l-13.866667 152.746667h102.4V345.6h-3.2a178.346667 178.346667 0 0 1 36.906667 108.586667z m-179.2-157.866667a157.866667 157.866667 0 1 0 157.866667 157.866667 158.08 158.08 0 0 0-157.866667-157.866667z m0-21.333333h14.293333v-14.293334H640v13.866667z m-431.786667-38.826667V706.773333h555.946667v-123.52A179.2 179.2 0 1 1 618.666667 277.333333v-16.213333h-6.613334l-2.346666-25.386667z m463.786667-185.386667a14.08 14.08 0 0 0-10.453333-4.693333h-42.666667a13.653333 13.653333 0 0 0-10.453333 4.693333 14.506667 14.506667 0 0 0-3.84 10.88l16.213333 178.56h37.76l16.213333-178.56a13.653333 13.653333 0 0 0-2.773333-10.88z m9.173333 186.88l-2.133333 23.893334h-2.986667v17.066666a178.133333 178.133333 0 0 1 88.746667 46.72v-87.68zM648.96 552.32v-21.333333a76.8 76.8 0 0 0 76.8-76.8h21.333333a98.133333 98.133333 0 0 1-98.133333 98.133333zM287.146667 602.666667h138.453333v-21.333334h-138.453333zM287.146667 535.893333h138.453333v-21.333333h-138.453333zM287.146667 473.173333h138.453333v-21.333333h-138.453333zM287.146667 406.4h138.453333v-21.333333h-138.453333zM287.146667 345.173333h138.453333v-21.333333h-138.453333zM257.28 789.546667h21.333333v-32.853334h-21.333333zM342.4 789.546667h21.333333v-32.853334h-21.333333zM429.013333 789.546667h21.333334v-32.853334h-21.333334z"  horiz-adv-x="1024" />

    
    <glyph glyph-name="sousuo7" unicode="&#59009;" d="M140.544 81.024c-43.955 0.077-79.514 35.635-79.616 79.565V676.122c0.102 43.955 35.66 79.513 79.616 79.616h665.37L955.187 608.46l-18.662-18.893 18.662 18.893 7.885-7.783v-440.064c-0.128-43.955-35.66-79.488-79.59-79.564H140.544v-0.026z m-26.547 595.098v-515.533c0.025-14.387 12.109-26.496 26.547-26.496h742.938c14.412 0 26.496 12.134 26.521 26.496V578.483L784.153 702.67H140.545c-14.438-0.026-26.522-12.109-26.547-26.547zM848.102 563.02c-43.93 0.154-79.488 35.687-79.564 79.617v86.579c0 10.726 6.374 20.326 16.256 24.474a26.517 26.517 0 0 0 28.928-5.607l141.49-139.597-18.662-18.892v26.521-26.521l18.663 18.892c7.629-7.552 9.984-19.046 5.862-28.953-4.045-9.933-13.773-16.512-24.55-16.512h-88.423z m-26.496 79.642c0-14.412 12.084-26.496 26.496-26.547h23.783l-50.279 49.613v-23.066zM307.558 419.226c0.026 130.534 105.805 236.288 236.288 236.288 130.51 0 236.263-105.754 236.263-236.288-0.026-130.51-105.78-236.263-236.263-236.263-130.508 0-236.262 105.754-236.288 236.263z m68.25 0c0.18-92.775 75.264-167.86 168.038-168.013 92.8 0.179 167.91 75.238 168.039 168.013-0.154 92.8-75.239 167.91-168.039 168.064-92.774-0.154-167.859-75.264-168.038-168.064zM879.82 22.118L656.308 243.38c-13.389 13.261-13.517 34.842-0.256 48.23 13.235 13.39 34.867 13.517 48.23 0.282l223.54-221.235c13.389-13.286 13.491-34.867 0.256-48.282-6.656-6.758-15.437-10.112-24.243-10.112a34.128 34.128 0 0 0-24.013 9.856zM180.122 497.971c-10.47 0-18.944 8.474-18.944 18.944 0 10.47 8.473 18.97 18.944 18.97h392.524c10.47 0 18.97-8.5 18.97-18.97 0-10.47-8.5-18.944-18.97-18.944H180.122zM180.122 399.411c-10.47 0-18.944 8.5-18.944 18.97 0 10.47 8.473 18.97 18.944 18.97h392.524c10.47 0 18.97-8.5 18.97-18.97 0-10.47-8.5-18.97-18.97-18.97H180.122zM180.122 300.851c-10.47 0-18.944 8.525-18.944 18.97 0 10.47 8.473 18.944 18.944 18.944h392.524c10.47 0 18.97-8.474 18.97-18.944 0-10.445-8.5-18.97-18.97-18.97H180.122z"  horiz-adv-x="1024" />

    
    <glyph glyph-name="sousuo8" unicode="&#59103;" d="M960.932-1.642L692.081 267.209c46.254 59.482 73.812 134.223 73.812 215.407 0 193.975-157.247 351.222-351.222 351.222S63.448 676.592 63.448 482.617 220.695 131.395 414.67 131.395c79.994 0 153.726 26.761 212.775 71.794l269.159-269.16 64.328 64.329zM130.067 482.617c0 157.182 127.42 284.603 284.603 284.603s284.603-127.421 284.603-284.603-127.42-284.604-284.602-284.604-284.604 127.421-284.604 284.604z"  horiz-adv-x="1024" />

    
    <glyph glyph-name="sousuo9" unicode="&#58954;" d="M506.538667 768a375.04 375.04 0 1 1 0-750.122667 375.04 375.04 0 0 1 0 750.122667z m0-64a311.04 311.04 0 1 0-0.085334-622.122667A311.04 311.04 0 0 0 506.538667 704zM722.773333 169.770667a32 32 0 0 0 41.642667 3.114666l3.626667-3.114666L883.2 54.613333a32 32 0 0 0-41.685333-48.341333l-3.584 3.072-115.2 115.2a32 32 0 0 0 0 45.226667z"  horiz-adv-x="1024" />

    
    <glyph glyph-name="sousuo10" unicode="&#59048;" d="M814.545455 146.385455a388.421818 388.421818 0 1 1-68.654546-62.603637l1.861818-2.327273L814.545455 15.592727a46.545455 46.545455 0 0 1 65.861818 0 46.545455 46.545455 0 0 1 0 65.861818zM523.636364 104.727273a290.909091 290.909091 0 1 0 205.730909 85.178182A289.047273 289.047273 0 0 0 523.636364 104.727273z"  horiz-adv-x="1024" />

    
    <glyph glyph-name="sousuo11" unicode="&#58946;" d="M1012.932993-15.448241l-198.909655 198.841442a449.252053 449.252053 0 1 1-101.978715-101.842289l199.046081-198.977868a36.084776 36.084776 0 0 1 50.955251 0l51.023464 50.955251a36.152989 36.152989 0 0 1-0.136426 50.955251zM128.61723 446.013973a320.943047 320.943047 0 1 0 641.886094 0 320.943047 320.943047 0 0 0-641.886094 0z"  horiz-adv-x="1024" />

    
    <glyph glyph-name="you-copy" unicode="&#58982;" d="M310.287-6.31l390.318 390.324-390.329 390.307 43.426 43.424 433.734-433.733-433.734-433.757z"  horiz-adv-x="1024" />

    
    <glyph glyph-name="you" unicode="&#59091;" d="M640 384l-320 256v-512l320 256z"  horiz-adv-x="1024" />

    
    <glyph glyph-name="you1" unicode="&#59145;" d="M864 432v-70.4c60.8-38.4 96-86.4 96-137.6 0-124.8-201.6-224-448-224S64 99.2 64 224c0 51.2 35.2 99.2 96 137.6v70.4c-99.2-51.2-160-128-160-208 0-160 230.4-288 512-288s512 128 512 288c0 83.2-60.8 156.8-160 208zM441.6 486.4h192v-115.2h-192zM768 800H256c-35.2 0-64-28.8-64-64v-512c0-35.2 28.8-64 64-64h512c35.2 0 64 28.8 64 64V736c0 35.2-28.8 64-64 64z m-70.4-208h-208c-12.8-28.8-28.8-54.4-44.8-76.8h220.8v-204.8h-28.8v32h-192v-32H416v156.8c-19.2-25.6-38.4-48-60.8-70.4-3.2 6.4-12.8 12.8-22.4 22.4 51.2 51.2 92.8 108.8 128 172.8h-118.4v28.8h134.4c3.2 19.2 12.8 38.4 19.2 57.6l28.8-9.6c-6.4-16-16-32-22.4-48h192l3.2-28.8z"  horiz-adv-x="1024" />

    
    <glyph glyph-name="you2" unicode="&#59013;" d="M304.387606 1.442254000000048L708.146479 405.201127l20.393465-20.393465L324.795493-18.951210999999944zM324.795493 788.004056L728.539944 384.259606 708.146479 363.851718l-403.744451 403.758874z"  horiz-adv-x="1024" />

    
    <glyph glyph-name="you3" unicode="&#58912;" d="M671.7 384L278.4 25.3c-13-12.9-13-33.7 0-46.6 13-12.9 33.9-12.9 46.9 0 0 0 417.1 377.4 420.3 380.7 7 6.9 10.2 16.2 9.7 25.2 0.2 8.7-3 17.5-9.7 24.2-3.2 3.2-420.2 380.7-420.2 380.7-13 12.9-33.9 12.9-46.9 0-12.9-12.9-12.9-33.7 0-46.6L671.7 384z"  horiz-adv-x="1024" />

    
    <glyph glyph-name="xiangyou-copy-copy" unicode="&#58913;" d="M237.685-16.710000000000036l80.141-80.137 480.85 480.844-480.85 480.844-80.146-80.141 400.717-400.707z"  horiz-adv-x="1024" />

    
    <glyph glyph-name="you4" unicode="&#58914;" d="M260.882765-128c-8.370574 0-25.111723 0-33.482298 8.370574-16.741149 16.741149-16.741149 41.852872 0 58.594022l443.640448 443.640448L227.400467 826.245492C210.659318 842.986641 210.659318 868.098364 227.400467 884.839513s41.852872 16.741149 58.594022 0l502.234469-502.234469-502.234469-502.23447s-16.741149-8.370574-25.111724-8.370574z"  horiz-adv-x="1024" />

    
    <glyph glyph-name="you5" unicode="&#59251;" d="M247.279583 779.179319L664.287367 384.109691 247.279583-10.959937c-36.271085-31.152182-37.03892-62.304363-2.266943-93.456545 34.735414-31.152182 68.739556-31.152182 101.975862 0L818.402914 337.381418c15.100764 11.334714 22.669428 26.910805 22.669428 46.728273s-7.568664 35.393559-22.669428 46.728272L346.988502 872.635864c-33.27287 31.152182-67.240448 31.152182-102.012425 0-34.735414-31.152182-34.004142-62.304363 2.303506-93.456545z"  horiz-adv-x="1024" />

    
    <glyph glyph-name="you6" unicode="&#58953;" d="M32.256 384c0-265.216 215.04-480.256 480.256-480.256s480.256 215.04 480.256 480.256S777.216 863.744 512 863.744 32.256 649.216 32.256 384z m570.368 0L390.656 593.92c-19.456 19.456-19.456 51.2 0 71.168 19.456 19.456 51.2 19.456 71.168 0l242.688-242.176c10.24-10.24 15.36-25.088 13.824-39.424 0.512-13.312-4.608-26.112-13.824-35.84l-242.688-244.736c-18.944-18.944-50.176-18.944-69.12 0s-18.944 50.176 0 69.12l209.92 211.968z"  horiz-adv-x="1024" />

    
    <glyph glyph-name="you7" unicode="&#58922;" d="M87.99999981 798C72.00000019 787.9999998 65.9999999 668.0000001 65.9999999 384c2.00000039-219.9999999 6.00000029-411.99999961 10.0000002-425.99999971 15.99999961-39.9999999 75.9999999-28.00000019 230.0000001 41.99999942 79.9999998 38.00000039 245.99999971 111.9999999 365.99999941 165.9999999 474.00000029 209.99999971 470.00000039 200.00000039 170.00000068 336.00000059-82.00000019 38.00000039-258.00000029 118.0000002-390.00000058 176.00000009C188 798 123.9999998 819.9999999 87.99999981 798z"  horiz-adv-x="1137" />

    
    <glyph glyph-name="you8" unicode="&#59810;" d="M725 418.83l-333.25 346a43 43 0 1 1-61.94-59.66l304.9-316.59-305.35-326.19a43 43 0 0 1 62.78-58.78l333.25 356a43 43 0 0 1-0.39 59.22z"  horiz-adv-x="1024" />

    
    <glyph glyph-name="angle-right-copy-copy" unicode="&#58915;" d="M746.38336 412.705792L339.463168 819.62496c-16.897024 16.900096-44.296192 16.900096-61.195264 0-16.900096-16.899072-16.900096-44.296192 0-61.195264l376.321024-376.322048L281.356288 8.877056000000039c-16.898048-16.90112-16.898048-44.29824 0-61.197312 16.898048-16.898048 44.297216-16.900096 61.196288 0l400.47616 400.477184c0.5632 0.5632 1.103872 1.139712 1.629184 1.724416 0.585728 0.526336 1.163264 1.065984 1.72544 1.630208C763.282432 368.40857600000004 763.282432 395.807744 746.38336 412.705792z"  horiz-adv-x="1024" />

    
    <glyph glyph-name="you9" unicode="&#59143;" d="M840.437299 391.40836L636.29582 595.549839l28.810289 28.81029 238.713827-238.713827c5.762058-5.762058 7.40836-14.81672 4.115755-22.22508-3.292605-7.40836-10.700965-12.347267-18.932476-12.347267H133.350482v41.157556h707.086817zM512 896c282.340836 0 512-229.659164 512-512 0-282.340836-229.659164-512-512-512C229.659164-128 0 101.659164 0 384 0 666.340836 229.659164 896 512 896z m0-982.842444c259.292605 0 470.842444 210.726688 470.842444 470.842444S771.292605 854.842444 512 854.842444C251.884244 854.842444 41.157556 644.115756 41.157556 384s210.726688-470.842444 470.842444-470.842444z"  horiz-adv-x="1024" />

    
    <glyph glyph-name="you10" unicode="&#58916;" d="M720.128 354.048c7.68 0 15.36 2.944 21.12 8.704 11.648 11.648 11.648 30.592 0 42.24L324.992 821.376c-11.648 11.648-30.592 11.648-42.24 0-11.648-11.648-11.648-30.592 0-42.24l416.256-416.256c5.888-5.888 13.44-8.832 21.12-8.832zM303.872-62.208c7.68 0 15.36 2.944 21.12 8.704l416.256 416.256c11.648 11.648 11.648 30.592 0 42.24-11.648 11.648-30.592 11.648-42.24 0L282.752-11.136c-11.648-11.648-11.648-30.592 0-42.24 5.76-5.888 13.44-8.832 21.12-8.832z"  horiz-adv-x="1024" />

    
    <glyph glyph-name="you11" unicode="&#59235;" d="M1472 896l-448-224V896L0 384l1024-512v224l448-224V896z m-512-920.448L143.104 384 960 792.448V640L448 384l512-256v-152.448z m448 0l-384 192V600.448l384 192v-816.896z"  horiz-adv-x="1472" />

    
    <glyph glyph-name="youbian7" unicode="&#59215;" d="M1536 896c16.168421 0 26.947368-10.778947 26.947368-26.947368v-932.378948c0-16.168421-10.778947-26.947368-26.947368-26.947368s-26.947368 10.778947-26.947368 26.947368V869.052632c0 16.168421 10.778947 26.947368 26.947368 26.947368zM75.452632-90.273684h-16.168421c-21.557895 5.389474-37.726316 16.168421-48.505264 32.336842-5.389474 10.778947-10.778947 26.947368-10.778947 43.115789V820.547368C0 863.663158 32.336842 896 75.452632 896c16.168421 0 26.947368-5.389474 43.115789-10.778947l630.568421-431.157895V820.547368c0 43.115789 32.336842 75.452632 75.452632 75.452632 16.168421 0 26.947368-5.389474 43.115789-10.778947L1476.715789 464.842105c32.336842-21.557895 43.115789-70.063158 21.557895-102.4-5.389474-5.389474-10.778947-16.168421-21.557895-21.557894L862.315789-79.494737c-16.168421-10.778947-37.726316-16.168421-53.894736-10.778947-21.557895 5.389474-37.726316 16.168421-48.505264 32.336842-10.778947 10.778947-10.778947 26.947368-10.778947 43.115789v366.484211l-630.568421-431.157895c-16.168421-5.389474-26.947368-10.778947-43.115789-10.778947zM75.452632 842.105263c-10.778947 0-21.557895-10.778947-21.557895-21.557895v-835.368421c0-5.389474 0-10.778947 5.389474-10.778947l10.778947-10.778947c5.389474 0 10.778947 0 16.168421 5.389473l641.347368 436.547369-641.347368 431.157894C80.842105 842.105263 80.842105 842.105263 75.452632 842.105263z m722.189473-452.715789v-404.210527c0-5.389474 0-10.778947 5.389474-10.778947l10.778947-10.778947c5.389474 0 10.778947 0 16.168421 5.389473l614.4 420.378948 5.389474 5.389473c10.778947 5.389474 5.389474 16.168421-5.389474 26.947369L829.978947 836.715789c-10.778947 10.778947-32.336842 0-32.336842-16.168421v-404.210526l21.557895-16.168421-21.557895-10.778947z"  horiz-adv-x="1562" />

    
    <glyph glyph-name="youbian11" unicode="&#58906;" d="M533.7 414.9L178 770.6c-17.3 17.3-45.5 17.3-62.8 0-17.3-17.3-17.3-45.5 0-62.8l324.3-324.3-324.2-324.3c-17.3-17.3-17.3-45.5 0-62.8 17.3-17.3 45.5-17.3 62.8 0l355.7 355.7c17.2 17.3 17.2 45.5-0.1 62.8zM906.7 414.9L551 770.6c-17.3 17.3-45.5 17.3-62.8 0-17.3-17.3-17.3-45.5 0-62.8l324.3-324.3-324.2-324.3c-17.3-17.3-17.3-45.5 0-62.8 17.3-17.3 45.5-17.3 62.8 0l355.7 355.7c17.2 17.3 17.2 45.5-0.1 62.8z"  horiz-adv-x="1024" />

    
    <glyph glyph-name="youbian8" unicode="&#58907;" d="M245.248 351.092364L640.488727-44.171636000000035c18.176-18.176 47.63927299-18.176 65.815273 0 18.176 18.176 18.176 47.63927299 0 65.815273L343.994182 384 706.327273 746.333091c18.176 18.176 18.176 47.63927299 0 65.815273-9.099636 9.099636-20.992 13.637818-32.907636 13.637818s-23.808-4.538182-32.907636-13.637818l-395.240727-395.240727C227.072 398.73163599 227.072 369.26836401 245.248 351.092364z"  horiz-adv-x="1024" />

    
    <glyph glyph-name="youbian9" unicode="&#59794;" d="M661.333333 512h256a21.333333 21.333333 0 0 0 21.333334-21.333333v-256a21.333333 21.333333 0 0 0-21.333334-21.333334h-256a21.333333 21.333333 0 0 0-21.333333 21.333334v256a21.333333 21.333333 0 0 0 21.333333 21.333333zM85.333333 512h469.333334v-42.666667H85.333333V512z m0-128h469.333334v-42.666667H85.333333v42.666667z m0-128h213.333334v-42.666667H85.333333v42.666667z"  horiz-adv-x="1024" />

    
    <glyph glyph-name="youbian10" unicode="&#58909;" d="M255.068942 382.915471L768.931058 896l0-1023.140562L255.068942 382.915471z"  horiz-adv-x="1024" />

    
    <glyph glyph-name="shang" unicode="&#58910;" d="M511.89620599 518.7997780000001l407.17112301-396.55898099a62.555783 62.555783 0 0 1 86.898546-1e-8 58.692591 58.692591 0 0 1 0 84.617867l-450.597124 438.82137a62.555783 62.555783 0 0 1-86.945091 0L17.96617001 206.85866399999998a58.78568 58.78568 0 0 1-1e-8-84.617867 62.555783 62.555783 0 0 1 86.898546 0c-0.093089 0 407.031489 396.558981 407.03148999 396.558981z"  horiz-adv-x="1024" />

    
    <glyph glyph-name="youbian12" unicode="&#58947;" d="M613.76 402.24L194.88 821.12A37.44 37.44 0 1 1 141.76 768l392.32-392.32L160 0a37.44 37.44 0 0 1 53.12-53.12l400.64 402.24a37.76 37.76 0 0 1 0 53.12zM882.24 402.24L463.36 821.12A37.44 37.44 0 1 1 410.24 768l392.32-392.32L427.2 0A37.44 37.44 0 0 1 480-53.12l402.24 402.24a37.76 37.76 0 0 1 0 53.12z"  horiz-adv-x="1024" />

    
    <glyph glyph-name="youbian13" unicode="&#59052;" d="M80.6912 479.8464h863.6416c44.032 0 79.6672 35.6352 79.6672 79.6672v0.4096c0 44.032-35.6352 79.6672-79.6672 79.6672H80.6912C36.6592 639.5904 1.024 603.9552 1.024 559.9232v-0.4096c0-44.032 35.6352-79.6672 79.6672-79.6672zM0 208.4864v-0.4096c0-44.032 35.6352-79.6672 79.6672-79.6672h480.4608c44.032 0 79.6672 35.6352 79.6672 79.6672v0.4096c0 44.032-35.6352 79.6672-79.6672 79.6672H79.6672C35.6352 288.1536 0 252.5184 0 208.4864z"  horiz-adv-x="1024" />

    
    <glyph glyph-name="youbian14" unicode="&#59678;" d="M788.511508 467.550523c46.143015-46.143015 46.143015-120.958031 0-167.101046l-389.884062-389.884062c-46.143015-46.143015-120.958031-46.143015-167.101046 0-46.135138 46.143015-46.135138 120.950154 0 167.09317L537.867815 384 231.534277 690.333538c-46.143015 46.150892-46.143015 120.958031 0 167.101047 46.135138 46.143015 120.950154 46.143015 167.093169 0l389.884062-389.884062z"  horiz-adv-x="1024" />

    
    <glyph glyph-name="youbian15" unicode="&#58911;" d="M245.917538 320.118154a78.769231 78.769231 0 0 0 0 127.684923l495.616 357.927385A78.769231 78.769231 0 0 0 866.461538 741.927385v-715.85477a78.769231 78.769231 0 0 0-124.84923-63.881846z"  horiz-adv-x="1024" />

    
    <glyph glyph-name="youbian16" unicode="&#58941;" d="M426.666667 640l-60.373334-60.373333L561.92 384l-195.626667-195.626667L426.666667 128l256 256z"  horiz-adv-x="1024" />

    
    <glyph glyph-name="youbian" unicode="&#58900;" d="M129.0988 48.3406V588.8531575591749c0 46.2267-44.5596 83.8342-99.3327 83.8342H15.15734477138063v-39.97289837490182h14.608694261755263c28.8506 0 52.2387-19.6367 52.2387-43.8613v-540.512532502963c0-24.2236-23.3881-43.8633-52.2387-43.8633H15.15734477138063v-39.97289837490182h14.608694261755263C84.5391-35.4955 129.0988 2.114 129.0988 48.3406z"  horiz-adv-x="1000" />

    
    <glyph glyph-name="youbian1" unicode="&#58908;" d="M748.544 386.692741 389.461333-95.497481C380.055704-109.492148 365.568-117.380741 350.245926-119.352889 341.712593-124.776296 331.700148-128 320.853333-128L320.587852-128C290.171259-128 265.481481-103.310222 265.481481-72.89363L265.481481 840.89363C265.481481 871.310222 290.171259 896 320.587852 896L320.853333 896C351.307852 896 375.959704 871.310222 375.959704 840.89363L375.959704 74.638222 655.966815 450.635852C673.336889 476.615111 708.152889 483.365926 733.714963 465.692444 759.277037 448.056889 765.914074 412.672 748.544 386.692741Z"  horiz-adv-x="1024" />

    
    <glyph glyph-name="youbian2" unicode="&#58969;" d="M789.073581-99.458197c0-15.698143-12.84366-28.541803-28.541803-28.541803L318.206824-128c-15.698143 0-28.541803 12.84366-28.541803 28.541803L289.66502 851.013962c0 15.697136 12.84366 28.540797 28.541803 28.540797l442.325961 0c15.698143 0 28.541803-12.84366 28.541803-28.540797L789.074588-99.458197zM643.784958 347.946427c9.731419 12.318073 18.343196 24.387449 19.138625 26.821059 0.794422 2.43361-9.459563 18.136787-19.23025 30.42264L485.056606 604.678675c-9.770687 12.28686-21.310448 19.519223-25.645032 16.071692s0.11277-16.319383 9.883457-28.606243l153.669827-193.241914c9.770687-12.28686 9.802907-32.417254 0.071488-44.735327L469.203405 159.441847c-9.731419-12.317066-14.137491-25.205029-9.791831-28.637456s15.862263 3.83719 25.592675 16.154256L643.784958 347.946427z"  horiz-adv-x="1024" />

    
    <glyph glyph-name="youbian-copy" unicode="&#58901;" d="M643.156 400.18l-194.333 194.345c-8.937 8.936-23.423 8.936-32.361 0s-8.936-23.423 0-32.361l178.143-178.164-178.152-178.152c-8.936-8.936-8.936-23.423 0-32.361 4.475-4.475 10.322-6.705 16.18-6.705s11.707 2.23 16.18 6.705l194.333 194.333c8.948 8.936 8.948 23.423 0.012 32.361z"  horiz-adv-x="1024" />

    
    <glyph glyph-name="youbian3" unicode="&#58950;" d="M742.7 436.9L389.3 810.7c-28 29.6-74.6 30.9-104.2 2.9-29.6-28-30.9-74.6-2.9-104.2L588 385.9 282.2 62.4c-28-29.6-26.7-76.2 2.9-104.2 29.6-28 76.2-26.7 104.2 2.9l353.4 373.8c13.6 14.1 20.4 32.5 20.5 50.8-0.1 18.7-6.9 37-20.5 51.2z"  horiz-adv-x="1024" />

    
    <glyph glyph-name="youbian4" unicode="&#58902;" d="M216.6930000000001 541.0930000000001c-11.980000000000004-13.889999999999995-14.043000000000013-21.824999999999992-1.4210854715202004e-14-38.105l279.2439999999998-335.48600000000016c4.298999999999998-5.420000000000003 4.245999999999997-8.169 16.076999999999998-8.169000000000008 13.199-7.105427357601002e-15 11.776 2.7469999999999937 16.07700000000001 8.168999999999997l279.244 335.486c14.603000000000005 16.96599999999999 11.267000000000014 25.436 1.4210854715202004e-14 38.105l-10.937999999999997 12.694000000000006c-14.498999999999992 16.83900000000001-20.145 15.110000000000003-32.813 1.4210854715202004e-14l-240.63300000000015-279.4729999999999c-11.165000000000004-12.971999999999994-10.707000000000008-12.97199999999999-21.876 1.0658141036401503e-14l-240.6329999999999 279.4730000000002c-10.198999999999995 11.828000000000005-15.843999999999989 19.737000000000005-32.813 1.4210854715202004e-14l-10.938000000000008-12.693999999999996z"  horiz-adv-x="1024" />

    
    <glyph glyph-name="youbian5" unicode="&#58903;" d="M281.29999999999995 331.10000000000014L634.6999999999998-42.700000000000045c27.99999999999999-29.60000000000001 74.59999999999998-30.900000000000027 104.19999999999999-2.900000000000041 29.60000000000001 27.99999999999999 30.900000000000027 74.59999999999998 2.900000000000041 104.19999999999999L435.99999999999994 382.1 741.8000000000002 705.5999999999999c28.000000000000007 29.59999999999999 26.700000000000017 76.19999999999999-2.899999999999956 104.19999999999999-29.59999999999999 28.000000000000007-76.19999999999999 26.700000000000017-104.19999999999999-2.899999999999956l-353.4000000000001-373.7999999999999c-13.600000000000005-14.099999999999996-20.40000000000001-32.49999999999999-20.500000000000014-50.79999999999998 0.09999999999999432-18.7 6.8999999999999915-37 20.499999999999993-51.20000000000001z"  horiz-adv-x="1024" />

    
    <glyph glyph-name="top" unicode="&#59012;" d="M471.86931358 698.70225383c-1.68289975-1.68289975-3.10689185-3.36579951-4.53088395-5.30760692L31.33793975 257.52361085999996c-17.73517431-17.73517431-17.73517431-46.34447013 0-64.07964444 17.73517431-17.73517431 46.34447013-17.73517431 64.07964444 0L504.23277037 602.25915259 913.04795653 193.44396642000004c17.73517431-17.73517431 46.34447013-17.73517431 64.07964445 0 17.73517431 17.73517431 17.73517431 46.34447013 0 64.07964444L541.25656494 693.39464691c-1.29453827 1.81235359-2.84798419 3.62470717-4.53088396 5.30760692-8.93231408 8.93231408-20.71261234 13.33374419-32.36345679 13.20429036-11.9097521 0.25890765-23.56059653-4.14252246-32.49291061-13.20429036z"  horiz-adv-x="1024" />

    
    <glyph glyph-name="xiabian" unicode="&#58904;" d="M0.000034 617.637284a45.862724 45.862724 0 0 0 78.28767 32.42494601l434.858881-434.83595001L945.700865 647.792025a45.86387 45.86387 0 0 0 64.861357-64.861357l-464.990691-464.990691a45.862724 45.862724 0 0 0-64.861357 0L13.437812 585.2123389999999A45.71367 45.71367 0 0 0 0.000034 617.637284z"  horiz-adv-x="1024" />

    
    <glyph glyph-name="youbian6" unicode="&#58905;" d="M1024 554.788571V896H0a2003.017143 2003.017143 0 0 0 365.714286-341.211429zM652.8 128A2230.857143 2230.857143 0 0 0 768-128h256v256zM1024 469.211429H432.64a2290.102857 2290.102857 0 0 0 172.982857-256H1024z"  horiz-adv-x="1024" />

    
    <glyph glyph-name="gouwuche" unicode="&#58899;" d="M276.841412 110.71247100000005h787.154823a37.707294 37.707294 0 0 1 35.177412 35.026823s53.970824 300.333176 78.607059 507.181177c7.077647 57.223529-19.907765 85.293176-72.734118 85.293176H245.187765l-14.155294 122.699294A36.592941 36.592941 0 0 1 198.174118 896H39.845647a39.755294 39.755294 0 0 1 0-79.450353h123.181177l79.811764-670.930823a35.84 35.84 0 0 1 34.002824-34.936471zM1101.552941 659.937882c-21.232941-165.948235-56.32-387.975529-70.384941-470.738823H310.874353l-56.32 470.738823h846.998588zM315.542588 31.262117999999987a78.305882 78.305882 0 1 1 78.607059-78.305883 78.426353 78.426353 0 0 1-78.546823 78.305883h-0.060236z m709.722353 0a78.305882 78.305882 0 1 1 78.607059-78.305883 78.426353 78.426353 0 0 1-78.576941 78.305883z"  horiz-adv-x="1204" />

    
    <glyph glyph-name="xiangzuoyuanjiantouzuojiantouxiangzuoxianxing" unicode="&#59639;" d="M56.888889 384c0-251.363556 203.747556-455.111111 455.111111-455.111111s455.111111 203.747556 455.111111 455.111111S763.363556 839.111111 512 839.111111 56.888889 635.363556 56.888889 384z m56.888889 0c0 219.932444 178.289778 398.222222 398.222222 398.222222s398.222222-178.289778 398.222222-398.222222-178.289778-398.222222-398.222222-398.222222S113.777778 164.067556 113.777778 384z m475.221333 179.000889a28.444444 28.444444 0 0 1-40.220444 40.220444l-199.111111-199.111111a28.444444 28.444444 0 0 1 0-40.220444l199.111111-199.111111a28.444444 28.444444 0 0 1 40.220444 40.220444L409.998222 384l179.000889 179.000889z"  horiz-adv-x="1024" />

    
    <glyph glyph-name="xiangyouyuanjiantouyoujiantouxiangyoumianxing" unicode="&#58880;" d="M967.111111 384c0-251.363556-203.747556-455.111111-455.111111-455.111111S56.888889 132.63644399999998 56.888889 384 260.636444 839.111111 512 839.111111s455.111111-203.747556 455.111111-455.111111z m-532.110222 179.000889L614.001778 384l-179.000889-179.000889a28.444444 28.444444 0 0 1 40.220444-40.220444l199.111111 199.111111a28.444444 28.444444 0 0 1 0 40.220444l-199.111111 199.111111a28.444444 28.444444 0 0 1-40.220444-40.220444z"  horiz-adv-x="1024" />

    
    <glyph glyph-name="xiangyou" unicode="&#59019;" d="M428.100267 271.598933l48.264533-48.264533L637.0304 384l-160.6656 160.6656-48.264533-48.264533L540.501333 384zM512 76.8a307.2 307.2 0 1 1 0 614.4 307.2 307.2 0 0 1 0-614.4z m0-68.266667C304.64 8.533333 136.533333 176.64 136.533333 384S304.64 759.466667 512 759.466667s375.466667-168.106667 375.466667-375.466667-168.106667-375.466667-375.466667-375.466667z"  horiz-adv-x="1024" />

    
    <glyph glyph-name="xiangzuoyuanjiantouzuojiantouxiangzuoxianxing1" unicode="&#58881;" d="M967.111111 384c0 251.363556-203.747556 455.111111-455.111111 455.111111s-455.111111-203.747556-455.111111-455.111111S260.636444-71.11111100000005 512-71.11111100000005 967.111111 132.63644399999998 967.111111 384z m-56.88888899 0c0-219.93244401-178.289778-398.22222201-398.22222201-398.22222201s-398.22222201 178.289778-398.22222201 398.22222201 178.289778 398.22222201 398.22222201 398.22222201S910.222222 603.932444 910.22222201 384z m-475.22133301-179.000889a28.444444 28.444444 0 0 1 40.22044401-40.220444l199.11111099 199.111111a28.444444 28.444444 0 0 1 0 40.220444l-199.11111099 199.111111a28.444444 28.444444 0 0 1-40.22044401-40.220444L614.001778 384l-179.000889-179.000889z"  horiz-adv-x="1024" />

    
    <glyph glyph-name="xiangyou1" unicode="&#58882;" d="M428.100267 271.598933l48.264533-48.264533L637.0304 384l-160.6656 160.6656-48.264533-48.264533L540.501333 384zM512 76.79999999999995a307.2 307.2 0 1 1 0 614.4 307.2 307.2 0 0 1 0-614.4z m0-68.266667C304.64 8.53333299999997 136.533333 176.64 136.533333 384S304.64 759.466667 512 759.466667s375.466667-168.106667 375.466667-375.466667-168.106667-375.466667-375.466667-375.466667z"  horiz-adv-x="1024" />

    
    <glyph glyph-name="xiangyouyuanjiantouyoujiantouxianxing" unicode="&#58884;" d="M997.45185173 384c0-268.1211264-217.3307264-485.45185173-485.45185173-485.45185173S26.54814827 115.87887360000002 26.54814827 384 243.8788736 869.45185173 512 869.45185173s485.45185173-217.3307264 485.45185173-485.45185173z m-60.68148159 0c0 234.59460693-190.1757632 424.77037013-424.77037014 424.77037014S87.22962986 618.59460693 87.22962986 384s190.1757632-424.77037013 424.77037014-424.77037014 424.77037013 190.1757632 424.77037014 424.77037014z m-285.62773334 30.34074027l-160.59354028 160.59354133a30.34074027 30.34074027 0 0 0 42.90180695 42.90180693l212.38518506-212.38518506a30.34074027 30.34074027 0 0 0 0-42.90180694l-212.38518506-212.38518506a30.34074027 30.34074027 0 0 0-42.90180695 42.90180693L651.1426368 353.65925973000003 299.61481493 353.65925973000003a30.34074027 30.34074027 0 0 0 0 60.68148054l351.52782187 0z"  horiz-adv-x="1024" />

    
    <glyph glyph-name="xiangyou2" unicode="&#58885;" d="M428.100267 271.598933l48.264533-48.264533L637.0304 384l-160.6656 160.6656-48.264533-48.264533L540.501333 384zM512 76.79999999999995a307.2 307.2 0 1 1 0 614.4 307.2 307.2 0 0 1 0-614.4z m0-68.266667C304.64 8.53333299999997 136.533333 176.64 136.533333 384S304.64 759.466667 512 759.466667s375.466667-168.106667 375.466667-375.466667-168.106667-375.466667-375.466667-375.466667z"  horiz-adv-x="1024" />

    
    <glyph glyph-name="xiangyou3" unicode="&#58886;" d="M428.100267 271.598933l48.264533-48.264533L637.0304 384l-160.6656 160.6656-48.264533-48.264533L540.501333 384zM512 76.79999999999995a307.2 307.2 0 1 1 0 614.4 307.2 307.2 0 0 1 0-614.4z m0-68.266667C304.64 8.53333299999997 136.533333 176.64 136.533333 384S304.64 759.466667 512 759.466667s375.466667-168.106667 375.466667-375.466667-168.106667-375.466667-375.466667-375.466667z"  horiz-adv-x="1024" />

    
    <glyph glyph-name="last" unicode="&#58887;" d="M595.899733 496.401067l-48.264533 48.264533L386.96960001 384l160.66559999-160.6656 48.264533 48.264533L483.498667 384zM512 691.2a307.2 307.2 0 1 1 0-614.4 307.2 307.2 0 0 1 0 614.4z m0 68.26666701C719.36 759.466667 887.466667 591.36 887.46666701 384S719.36 8.53333299999997 512 8.533332989999963s-375.466667 168.106667-375.46666701 375.46666701 168.106667 375.466667 375.46666701 375.46666701z"  horiz-adv-x="1024" />

    
    <glyph glyph-name="down2" unicode="&#58888;" d="M87.514 208.90700000000004c-13.839-14.39000001-13.393-37.274 0.999-51.113 14.39-13.84 37.274-13.393 51.113 0.999L510.01600001 532.5699999999999 885.583 160.375c14.18799999-14.06800001 37.09200001-13.97 51.162 0.219 14.06700001 14.187 13.969 37.09200001-0.22 51.161L537.377 607.3199999999999c-0.61199999 0.621-1.41 0.767-2.02 1.34000001-0.136 0.136-0.174 0.32-0.32 0.464l-0.008 0.00699999c-14.174 14.054-37.055 13.954-51.11-0.22l-395.59399999-399.18700001c-0.27599999-0.266-0.546-0.54000001-0.81000001-0.81699999z"  horiz-adv-x="1024" />

    
    <glyph glyph-name="xiangyou4" unicode="&#58889;" d="M410.17679811 247.58673468999996l58.57526731-58.57526731L663.74059805 384l-194.98853263 194.98853262-58.57526731-58.57526731L546.59006222 384zM512 11.172977779999997a372.82702222 372.82702222 0 1 1 0 745.65404444 372.82702222 372.82702222 0 0 1 0-745.65404444z m0-82.85044979C260.34176-71.67747200999997 56.32252799 132.34176000000002 56.32252799 384S260.34176 839.67747201 512 839.67747201s455.67747201-204.01923201 455.67747201-455.67747201-204.01923201-455.67747201-455.67747201-455.67747201z"  horiz-adv-x="1024" />

    
    <glyph glyph-name="sort-bottom" unicode="&#58890;" d="M97.4688 829.62133331c-48.23146667 0-79.08266667-64.40746667-42.12906667-101.3632L470.528 313.03893330999995c23.8208-23.808 59.23413333-23.808 83.04426667 0L968.77866667 728.24639998c36.016 36.02666667 7.9296 101.3632-41.52746667 101.36319999l-829.78346667 0.01173334z"  horiz-adv-x="1024" />

    
    <glyph glyph-name="tubiaozhizuomoban" unicode="&#58891;" d="M520.7 797c-148.5 0-268.9-120.4-268.9-268.9S519 5.600000000000023 519 5.600000000000023s270.5 374 270.5 522.5S669.2 797 520.7 797z m0-342.8c-48.2 0-87.3 39.1-87.3 87.3s39.1 87.3 87.3 87.3 87.3-39.1 87.3-87.3-39.1-87.3-87.3-87.3z"  horiz-adv-x="1024" />

    
    <glyph glyph-name="xiangzuo" unicode="&#58892;" d="M620.61141535 529.507483l-62.48028513 62.48028513L350.14336208 384l207.98776814-207.98776813 62.48028513 62.48028513L475.10393363 384zM512 781.68215703a397.68215703 397.68215703 0 1 1 0-795.36431406 397.68215703 397.68215703 0 0 1 0 795.36431406z m0 88.37381311C780.435456 870.05597014 998.05597014 652.4354559999999 998.05597014 384S780.435456-102.05597014 512-102.05597014s-486.05597014 217.62051414-486.05597014 486.05597014 217.62051414 486.05597014 486.05597014 486.05597014z"  horiz-adv-x="1024" />

    
    <glyph glyph-name="down21" unicode="&#58893;" d="M87.514 208.90700000000004c-13.839-14.39000001-13.393-37.274 0.999-51.113 14.39-13.84 37.274-13.393 51.113 0.999L510.01600001 532.5699999999999 885.583 160.375c14.188-14.068 37.092-13.97 51.162 0.219 14.06700001 14.187 13.969 37.092-0.22 51.161L537.377 607.3199999999999c-0.612 0.621-1.41 0.767-2.02 1.34-0.136 0.136-0.174 0.32-0.32 0.464l-0.008 0.007c-14.174 14.054-37.055 13.954-51.11-0.22l-395.594-399.187c-0.276-0.266-0.546-0.54-0.81-0.817z"  horiz-adv-x="1024" />

    
    <glyph glyph-name="down22" unicode="&#58894;" d="M87.514 208.90700000000004c-13.839-14.39000001-13.393-37.274 0.999-51.113 14.39-13.84 37.274-13.393 51.113 0.999L510.01600001 532.5699999999999 885.583 160.375c14.188-14.068 37.092-13.97 51.162 0.219 14.06700001 14.187 13.969 37.092-0.22 51.161L537.377 607.3199999999999c-0.612 0.621-1.41 0.767-2.02 1.34-0.136 0.136-0.174 0.32-0.32 0.464l-0.008 0.007c-14.174 14.054-37.055 13.954-51.11-0.22l-395.594-399.187c-0.276-0.266-0.546-0.54-0.81-0.817z"  horiz-adv-x="1024" />

    
    <glyph glyph-name="down-fill" unicode="&#58895;" d="M230.56060922 705.1956024c-32.74599016 0-53.69192362-43.72842908-28.60286236-68.81893873L483.84324265 354.47016618c16.17275477-16.16406441 40.21607637-16.16406441 56.38158917 0L822.12263893 636.36869751c24.45249259 24.45973456 5.38367629 68.81893873-28.19441556 68.81893872l-563.36833834 0.00796616z"  horiz-adv-x="1024" />

    
    <glyph glyph-name="down-fill1" unicode="&#58896;" d="M230.56060922 555.8622690899999c-32.74599016 0-53.69192362-43.72842908-28.60286236-68.81893873L483.84324265 205.13683287000003c16.17275477-16.16406441 40.21607637-16.16406441 56.38158917 0L822.12263893 487.0353642c24.45249259 24.45973456 5.38367629 68.81893873-28.19441556 68.81893872l-563.36833834 0.00796616z"  horiz-adv-x="1024" />

    
    <glyph glyph-name="zhankai" unicode="&#58898;" d="M230.56060922 566.14988708c-32.74599015 0-53.69192362-43.72842908-28.60286236-68.81893873L483.84324265 215.42445087c16.17275477-16.16406441 40.21607637-16.16406441 56.38158917 0L822.12263893 497.32298219c24.45249259 24.45973456 5.38367629 68.81893873-28.19441556 68.81893873l-563.36833834 0.00796616z"  horiz-adv-x="1024" />

    
    <glyph glyph-name="xiala" unicode="&#58897;" d="M946.986 523.626L558.08 98.349a61.202 61.202 0 0 0-45.972-20.801 61.202 61.202 0 0 0-45.976 20.801L77.226 523.626c-18.985 20.052-24.852 49.279-15.04 75.093s33.493 43.84 61.014 46.292h777.494c27.627-2.347 51.412-20.265 61.226-46.187 9.92-25.92 4.054-55.038-14.934-75.198z"  horiz-adv-x="1024" />

    
    <glyph glyph-name="shouji" unicode="&#59183;" d="M714.23-7.708h-400.517c-23.698 0-42.937 19.183-42.937 42.935v743.788c0 23.698 19.238 42.937 42.937 42.937h400.518c23.698 0 42.937-19.187 42.937-42.937v-743.842c0-23.697-19.239-42.881-42.938-42.881v0zM513.972 35.172c15.813 0 28.623 12.809 28.623 28.626 0 15.813-12.811 28.623-28.623 28.623-15.817 0-28.623-12.809-28.623-28.623 0-15.817 12.805-28.626 28.623-28.626v0zM714.23 736.136h-400.518v-600.779h400.518v600.779zM714.23 736.136z"  horiz-adv-x="1024" />

    
    <glyph glyph-name="icon-test" unicode="&#58883;" d="M858.666667 384c-5.333333 0-10.666667 1.066667-14.933334 2.133333-16 4.266667-26.666667 17.066667-35.2 25.6l-6.4 6.4c-9.6 9.6-21.333333 19.2-33.066666 28.8-37.333333 28.8-75.733333 52.266667-114.133334 68.266667-96 40.533333-291.2 5.333333-353.066666-62.933333-44.8-49.066667-80-69.333333-114.133334-67.2-26.666667 2.133333-51.2 18.133333-72.533333 49.066666-39.466667 56.533333 5.333333 125.866667 37.333333 158.933334 83.2 80 378.666667 104.533333 567.466667 72.533333C800 650.666667 901.333333 620.8 935.466667 554.666667c11.733333-23.466667 24.533333-53.333333 23.466666-86.4-1.066667-32-20.266667-58.666667-49.066666-72.533334-10.666667-5.333333-21.333333-7.466667-30.933334-9.6l-2.133333-1.066666c-7.466667-1.066667-12.8-1.066667-18.133333-1.066667z m-309.333334 197.333333c45.866667 0 90.666667-6.4 125.866667-21.333333 42.666667-18.133333 85.333333-43.733333 125.866667-75.733333 12.8-9.6 24.533333-20.266667 36.266666-32 3.2-2.133333 5.333333-5.333333 8.533334-8.533334 3.2-4.266667 9.6-10.666667 11.733333-10.666666 0 0 2.133333 0 7.466667 1.066666l2.133333 1.066667c8.533333 2.133333 16 3.2 21.333333 6.4 8.533333 4.266667 19.2 12.8 20.266667 28.8 1.066667 21.333333-9.6 43.733333-18.133333 61.866667-19.2 37.333333-82.133333 67.2-178.133334 83.2-190.933333 33.066667-460.8 2.133333-524.8-59.733334-2.133333-2.133333-56.533333-59.733333-32-93.866666 19.2-26.666667 30.933333-27.733333 35.2-27.733334 11.733333-1.066667 34.133333 7.466667 74.666667 51.2 54.4 58.666667 176 96 283.733333 96zM680.533333 53.333333H398.933333c-77.866667 0-146.133333 36.266667-173.866666 91.733334-20.266667 40.533333-13.866667 85.333333 14.933333 122.666666l140.8 178.133334c33.066667 42.666667 92.8 68.266667 157.866667 68.266666 65.066667 0 124.8-25.6 157.866666-68.266666l140.8-178.133334c29.866667-37.333333 35.2-82.133333 14.933334-122.666666-25.6-55.466667-92.8-91.733333-171.733334-91.733334zM539.733333 465.066667c-50.133333 0-94.933333-18.133333-119.466666-49.066667L279.466667 237.866667c-18.133333-22.4-21.333333-46.933333-9.6-70.4 14.933333-32 60.8-64 129.066666-64h282.666667c67.2 0 113.066667 32 129.066667 64 11.733333 23.466667 8.533333 48-9.6 70.4L658.133333 416c-23.466667 30.933333-68.266667 49.066667-118.4 49.066667zM545.066667 178.133333c-58.666667 0-105.6 49.066667-105.6 109.866667s46.933333 109.866667 105.6 109.866667S650.666667 348.8 650.666667 288s-46.933333-109.866667-105.6-109.866667z m0 169.6c-30.933333 0-56.533333-26.666667-56.533334-59.733333s25.6-59.733333 56.533334-59.733333 56.533333 26.666667 56.533333 59.733333-25.6 59.733333-56.533333 59.733333z"  horiz-adv-x="1024" />

    
    <glyph glyph-name="QQ" unicode="&#58983;" d="M511.09761-61.257c-80.159 0-153.737 25.019-201.11 62.386-24.057-6.702-54.831-17.489-74.252-30.864-16.617-11.439-14.546-23.106-11.55-27.816 13.15-20.689 225.583-13.211 286.912-6.767v3.061zM496.65061-61.257c80.157 0 153.737 25.019 201.11 62.386 24.057-6.702 54.83-17.489 74.253-30.864 16.616-11.439 14.543-23.106 11.55-27.816-13.15-20.689-225.584-13.211-286.914-6.767v3.061zM497.12861 421.476c131.934 0.876 237.669 25.783 273.497 35.34 8.541 2.28 13.11 6.364 13.11 6.364 0.03 1.172 0.542 20.952 0.542 31.155C784.27761 666.167 701.12561 838.827 496.64061 838.838 292.15661 838.827 209.00061 666.168 209.00061 494.335c0-10.203 0.516-29.983 0.547-31.155 0 0 3.717-3.821 10.529-5.67 33.078-8.98 140.803-35.139 276.08-36.034h0.972zM860.28261 276.218c-8.12 26.086-19.204 56.506-30.427 85.72 0 0-6.456 0.795-9.718-0.148-100.71-29.205-222.773-47.818-315.792-46.695h-0.962C410.88561 313.983 289.65061 332.383 189.27961 361.302 185.44461 362.405 177.87261 361.937 177.87261 361.937 166.64961 332.724 155.56661 302.304 147.44761 276.218 108.72961 151.832 121.27261 100.356 130.82461 99.202c20.496-2.474 79.78 93.637 79.78 93.637 0-97.66 88.324-247.617 290.576-248.996a718.01 718.01 0 0 0 5.367 0C708.80161-54.778 797.12261 95.178 797.12261 192.838c0 0 59.284-96.111 79.783-93.637 9.55 1.154 22.093 52.63-16.623 177.017M434.38261 579.083c-27.9-1.24-51.745 30.106-53.24 69.956-1.518 39.877 19.858 73.207 47.764 74.454 27.875 1.224 51.703-30.109 53.218-69.974 1.527-39.877-19.853-73.2-47.742-74.436m206.67 69.956c-1.494-39.85-25.34-71.194-53.24-69.956-27.888 1.238-49.269 34.559-47.742 74.435 1.513 39.868 25.341 71.201 53.216 69.974 27.909-1.247 49.285-34.576 47.767-74.453M683.94261 527.373c-7.323 17.609-81.062 37.227-172.353 37.227h-0.98c-91.29 0-165.031-19.618-172.352-37.227a6.244 6.244 0 0 1-0.535-2.505c0-1.269 0.393-2.414 1.006-3.386 6.168-9.765 88.054-58.018 171.882-58.018h0.98c83.827 0 165.71 48.25 171.881 58.016a6.352 6.352 0 0 1 1.002 3.395c0 0.897-0.2 1.736-0.531 2.498M467.63161 639.623c1.26-15.886-7.377-30-19.266-31.542-11.907-1.544-22.569 10.083-23.836 25.978-1.243 15.895 7.381 30.008 19.25 31.538 11.927 1.549 22.607-10.088 23.852-25.974m73.097-7.935c2.533 4.118 19.827 25.77 55.62 17.886 9.401-2.07 13.75-5.116 14.668-6.316 1.355-1.77 1.726-4.29 0.352-7.684-2.722-6.725-8.338-6.542-11.454-5.226-2.01 0.85-26.94 15.889-49.905-6.553-1.579-1.545-4.405-2.074-7.085-0.242-2.678 1.834-3.786 5.553-2.196 8.135M504.33261 311.505h-0.967c-63.568-0.752-140.646 7.504-215.286 21.92-6.391-36.262-10.25-81.838-6.936-136.196 8.37-137.384 91.62-223.736 220.118-224.996H506.48461c128.498 1.26 211.748 87.612 220.12 224.996 3.314 54.362-0.547 99.938-6.94 136.203-74.654-14.423-151.745-22.684-215.332-21.927M323.27461 318.984v-137.468s64.957-12.705 130.031-3.91V304.41c-41.225 2.262-85.688 7.304-130.031 14.574M788.09761 463.464s-121.98-40.387-283.743-41.539h-0.962c-161.497 1.147-283.328 41.401-283.744 41.539l-40.854-106.952c102.186-32.31 228.837-53.135 324.598-51.926l0.96 0.002c95.768-1.216 222.4 19.61 324.6 51.924l-40.855 106.952z"  horiz-adv-x="1024" />

    


  </font>
</defs>
</svg>
