<?xml version="1.0" standalone="no"?>
<!DOCTYPE svg PUBLIC "-//W3C//DTD SVG 1.1//EN" "http://www.w3.org/Graphics/SVG/1.1/DTD/svg11.dtd" >
<!--
2013-9-30: Created.
-->
<svg>
<metadata>
Created by iconfont
</metadata>
<defs>

<font id="iconfont" horiz-adv-x="1024" >
  <font-face
    font-family="iconfont"
    font-weight="500"
    font-stretch="normal"
    units-per-em="1024"
    ascent="896"
    descent="-128"
  />
    <missing-glyph />
    
    <glyph glyph-name="gonggao" unicode="&#58962;" d="M682.599 374.657c0 57.463-30.314 107.666-75.48 134.852l-36.385-60.164c25.481-14.698 42.702-42.616 42.702-74.688 0-40.257-27.214-74.013-63.855-83.169l40.452-60.503c54.443 23.953 92.566 79.26 92.566 143.672l0 0zM751.046 747.498l-36.336-60.08c103.388-64.076 172.471-180.174 172.471-312.764 0-136.096-72.792-254.825-180.746-317.76l39.121-58.507c126.08 75.797 210.709 215.905 210.709 376.228 0 157.982-82.179 296.345-205.22 372.884zM68.805 148.851l133.89 0 0 451.329-133.89 0 0-451.329zM820.84 374.657c0 108.219-56.51 202.959-141.012 255.087l-37.108-61.361c64.418-39.394 107.549-111.395 107.549-193.725 0-88.13-49.451-164.436-121.537-201.553l40.114-59.994c90.554 50.491 151.994 148.673 151.994 261.547zM238.707 149.418l272.257-177.832 0 806.665-272.257-177.549 0-451.284z"  horiz-adv-x="1024" />

    
    <glyph glyph-name="tianmaoshuma" unicode="&#58963;" d="M534.353362 411.438758l400.339009 0 0 106.283681-412.506983 0-0.082709 41.157529L522.102678 742.602516l369.743924 0L891.846602 848.897143l-846.142503 0 0-106.294628 370.096654 0 0-183.602133-0.088791-41.277944-411.709083 0 0-106.283681 399.545974 0c-38.044989-160.936179-166.465529-296.579173-403.548853-430.002399l52.121356-92.624509c146.297877 82.316274 328.431923 204.694181 416.856511 391.43318 22.887323-48.530806 53.010479-95.009695 90.542185-139.162998 75.360192-88.627711 182.091475-171.147109 326.259592-252.270183l52.127437 92.635456C700.829838 114.859585 572.404433 250.503795 534.353362 411.438758zM1271.897545 800.820022C1212.474675 858.476808 1119.034021 856.878576 1068.844167 856.007697c-5.141346-0.071762-9.854551-0.155688-14.024065-0.155688L1054.820102 749.556165c4.71807 0 10.033349 0.083925 15.837584 0.180014 34.763382 0.583829 99.489368 1.705268 127.227338-25.208044 4.085588-3.972471 16.540612-16.04679 16.976052-50.141201 0.149606-11.620635 0.279752-23.991733 0.370975-36.876114l-165.099612-98.481046 54.45424-91.29873 110.972559 66.198938c-0.02311-37.663068-0.130145-77.508197-0.244478-118.404219l-165.182321-98.529699 54.45424-91.286567 110.38873 65.82918c-0.071762-30.468589-0.120415-60.770542-0.120415-90.441231 0-24.372438-14.351253-63.144781-31.339467-84.666187-49.331138-62.464864-133.395251-110.68551-134.188286-111.137978l52.360969-92.505311c4.169514 2.363292 102.795301 58.683353 165.248002 137.778836 31.919647 40.419228 54.221924 102.335536 54.221924 150.531856 0 59.435033 0.172716 121.459592 0.357595 182.194862 0.351514 119.084137 0.678701 231.55884-0.363677 312.481222C1320.475787 727.689328 1303.905983 769.754224 1271.897545 800.820022zM1919.950435 857.665529 1813.659457 857.665529 1813.659457 788.472033 1587.665239 788.472033 1587.665239 857.665529 1481.375477 857.665529 1481.375477 788.472033 1381.247545 788.472033 1381.247545 682.177406 1481.375477 682.177406 1481.375477 596.723049 1587.665239 596.723049 1587.665239 682.177406 1813.659457 682.177406 1813.659457 596.723049 1919.950435 596.723049 1919.950435 682.177406 2022.350435 682.177406 2022.350435 788.472033 1919.950435 788.472033ZM1381.247545 419.837385l0-373.204328c0-86.802029 71.019178-157.822423 157.822423-157.822423l325.454394 0c86.812976 0 157.826072 71.019178 157.826072 157.822423L2022.350435 460.327159 2022.350435 526.132012l-641.10289 0L1381.247545 419.837385zM1754.946912 419.849548l161.113761 0 0-158.429363L1754.946912 261.420186 1754.946912 419.849548zM1754.942047 155.112179l161.112544 0 0-108.479122c0.006082-27.928931-23.59035-51.525363-51.530228-51.525363L1754.942047-4.892307 1754.942047 155.112179zM1487.543389 419.849548l161.113761 0 0-158.429363-161.113761 0L1487.543389 419.849548zM1487.543389 155.112179l161.107679 0 0-160.004485-109.582316 0c-27.92285 0-51.525363 23.596432-51.525363 51.525363L1487.543389 155.112179zM2882.40267 869.675383l-114.038879 0c-0.436656-2.195441-31.721389-207.900377-140.240649-398.187355l-103.866871 92.816686 125.559776 0 0 103.83768-113.267738 0 114.335659 117.461578-74.406604 72.438613L2453.920659 732.13616l65.730658-63.99255L2449.89467 668.14361 2449.89467 859.487563l-103.83768 0 0-191.343952-58.627403 0c18.58888 18.619288 46.759857 46.836485 56.121802 56.214242C2288.150861 770.603209 2218.304206 849.406778 2218.304206 849.406778l-73.369091-73.488289c0 0 45.249199-61.915091 102.075245-107.774878L2126.611391 668.14361l0-103.83768 149.437176 0-135.556636-118.381109 68.298291-78.212441 137.265553 119.873523 0-108.475473-13.868377 7.773443-42.105035-75.123011L2126.611391 311.760862l0-103.83768 105.27171 0-51.914583-92.624509 121.547166-66.327867c-45.262578-20.268605-100.024545-38.613006-166.319571-52.911958l21.891164-101.49993c108.880505 23.483315 192.687976 56.332224 257.465047 92.729112l128.719752-70.240739 49.73617 91.144259-83.330677 45.476649c112.651068 98.36428 122.375474 198.175971 122.573733 204.550656l1.669995 53.542007L2409.123928 311.760862l13.648225 24.349328-45.29177 25.386842 72.414287 0L2449.89467 491.498775l138.082913-123.39231 38.807616 43.424732 45.12027-50.034166c6.419689 8.150499 12.677609 16.817931 18.844305 25.734706 16.277889-62.031857 46.391315-143.662132 101.756572-232.25457-48.266866-66.133257-111.251095-125.96724-193.755897-168.580693l47.647764-92.265697c80.094074 41.372816 150.183991 99.533155 208.892886 172.318417 46.869325-58.817147 105.502809-118.72046 179.229496-176.350488l63.813752 81.911243c-76.321078 59.461792-135.057948 122.716041-180.510271 184.789253 32.882966 55.497835 60.568635 117.024922 82.434256 184.215154 35.845899 110.17101 47.438558 207.340874 51.172633 255.872896l49.306812 0 0 103.83768L2834.154049 700.724931C2864.533846 793.090366 2881.461246 864.982855 2882.40267 869.675383zM2495.997719 207.921966c-15.400929-26.320968-42.467496-61.979556-89.682253-97.846132l-84.416843 46.070209 29.022395 51.775923L2495.997719 207.921966zM2947.166361 596.886035c-5.582867-62.955037-25.273725-203.010807-92.912775-339.494271-63.679958 118.495442-82.341817 221.177627-87.477081 267.98492 10.716916 23.663329 20.756346 47.684253 30.101263 71.510568L2947.166361 596.887251zM3208.955393 754.63548l125.193667 0c-2.415593-23.596432-8.650403-65.849857-24.773821-119.740945-23.108691-77.234527-71.871812-194.851793-172.936303-316.488966l79.871489-66.354626c15.622297 18.804167 30.031933 37.51711 43.543931 56.093827l0-414.39713 127.733324 0c65.042226 0 103.278176 26.162848 123.898296 48.113611 42.619535 45.369614 43.067137 104.888572 42.57818 118.285021L3554.064156 495.004183l-185.949613 0c53.967715 121.794078 67.165905 219.336132 70.35264 259.631296l127.758866 0L3566.226049 858.473159l-357.271872 0L3208.954177 754.63548zM3450.32743 55.767552c0.018245-0.262723 0.400166-26.925475-14.519103-42.804414-9.585746-10.199983-25.810118-15.377819-48.220646-15.377819l-23.895644 0L3363.692036 391.166504l86.53444 0 0-332.164782L3450.32743 55.767552zM4128.22859 121.787692 4128.22859 443.47882l-81.445395 0L4046.783195 858.473159l-430.622718 0 0-103.83768 326.785038 0 0-311.156659-226.000299 0L3716.945216 696.417974l-103.83768 0 0-356.776833 411.284591 0 0-218.59175 0.053518-2.386402c0.018245-0.334486-0.304078-34.990833-29.657309-65.722144-35.42019-37.090185-100.867448-56.691036-189.275007-56.691036l42.103819-102.51555c98.180617 6.371037 172.825619 35.723052 222.263792 87.483163C4127.004982 41.046541 4128.532668 108.414353 4128.22859 121.787692zM3599.87529 229.073613l366.487859 0 0-103.83768-366.487859 0 0 103.83768Z"  horiz-adv-x="4129" />

    
    <glyph glyph-name="tianmao-copy" unicode="&#58964;" d="M557.401 417.533h309.949v81.336h-319.327l-0.072 31.478v140.627h286.202v81.423h-655.064v-81.346h286.515v-140.55l-0.077-31.555h-318.651v-81.344h309.348c-29.484-123.205-128.85-226.976-312.37-329.1l40.378-70.878c113.123 62.88 254.145 156.558 322.576 299.497 17.695-37.154 41.065-72.743 70.097-106.535 58.382-67.808 140.953-130.98 252.564-193.11l40.378 70.878c-183.522 102.201-282.962 205.966-312.448 329.179v0zM1271.59 555.101h82.271v65.417h174.982v-65.417h82.271v65.417h79.238v81.336h-79.238v52.937h-82.271v-52.938h-174.983v52.938h-82.271v-52.938h-77.502v-81.336h77.502v-65.415h0.002zM1109.4 711.277c-45.979 44.113-118.336 42.911-157.204 42.239-4.012-0.068-7.643-0.147-10.893-0.147v-81.344c3.625 0 7.793 0.068 12.252 0.147 26.918 0.446 77.055 1.272 98.451-19.285 3.177-3.062 12.782-12.265 13.158-38.359 0.147-8.894 0.223-18.387 0.3-28.26l-127.793-75.357 42.122-69.907 85.895 50.693c0-28.853-0.072-59.283-0.148-90.606l-127.868-75.443 42.122-69.899 85.448 50.392c-0.077-23.333-0.077-46.504-0.077-69.235 0-18.619-11.122-48.293-24.274-64.822-38.187-47.844-103.296-84.706-103.898-85.077l40.533-70.798c3.249 1.79 79.545 44.93 127.94 105.409 24.728 30.962 41.968 78.359 41.968 115.215 0 45.532 0.147 92.932 0.3 139.433 0.303 91.142 0.525 177.267-0.3 239.167-0.377 39.929-13.237 72.071-38.035 95.849v0zM1194.080 501.123l0.008-50.468v-316.622c0-66.466 54.972-120.821 122.194-120.821h251.953c67.221 0 122.193 54.353 122.193 120.821v367.089h-496.348zM1401.060 94.632h-84.769c-21.627 0-39.923 18.019-39.923 39.401v83.055h124.695v-122.456h-0.002zM1401.060 298.432h-124.695v121.268h124.695v-121.268zM1608.090 134.032c0-21.383-18.218-39.401-39.847-39.401h-84.836v122.456h124.684v-83.055zM1608.090 298.432h-124.684v121.268h124.684v-121.268zM1608.090 298.432z"  horiz-adv-x="2145" />

    
    <glyph glyph-name="tianmaot" unicode="&#58965;" d="M192-64l128 0c0 70.656-28.608 128-64 128S192 6.655999999999949 192-64zM704-64l128 0c0 70.656-28.608 128-64 128S704 6.655999999999949 704-64zM908.416 252.096c-34.944 6.464-74.432-24.768-109.312-86.016-34.752-60.864-77.76-101.504-174.528-101.504L399.04 64.57600000000002c-96.832 0-139.776 40.64-174.592 101.504C189.632 227.39200000000005 149.76 258.624 115.2 252.096c-24.384-4.608-43.968-28.992-51.2-62.144L64 64c0-47.936 26.688-89.28 65.664-111.168C137.984 15.488000000000056 191.04 64 256 64c70.656 0 128-57.344 128-128l64 0c0 35.392 28.608 64 64 64s64-28.608 64-64l64 0c0 70.656 57.344 128 128 128 64.96 0 118.016-48.512 126.336-111.168C933.312-25.279999999999973 960 16.063999999999965 960 64l0 124.8C952.96 222.59199999999998 933.12 247.42399999999998 908.416 252.096zM832 832L192 832C121.344 832 64 774.656 64 704l0-401.856c12.288 8.064 25.472 14.272 39.872 17.024 29.44 5.76 105.344 5.312 175.488-117.696 22.848-40.256 44.864-68.672 119.68-68.672L624.64 132.79999999999995c74.752 0 96.768 28.416 119.68 68.672 70.144 122.944 146.048 123.456 175.424 117.696C934.272 316.352 947.648 310.01599999999996 960 301.82399999999996L960 704C960 774.656 902.656 832 832 832zM672 640L576 640l0-256c0-35.392-28.608-64-64-64S448 348.60799999999995 448 384L448 640 352 640C334.336 640 320 654.336 320 672S334.336 704 352 704l320 0C689.664 704 704 689.664 704 672S689.664 640 672 640z"  horiz-adv-x="1024" />

    
    <glyph glyph-name="tianmaomaotou" unicode="&#59352;" d="M1664 696.746667a166.4 166.4 0 0 1-47.36 120.32 120.32 120.32 0 0 1-187.306667-18.346667L1322.666667 651.093333a155.306667 155.306667 0 0 0-125.44-67.84H509.013333A155.306667 155.306667 0 0 0 384 651.093333L277.333333 798.72a120.32 120.32 0 0 1-187.306666 18.346667A166.4 166.4 0 0 1 42.666667 696.746667v-582.826667C42.666667 3.84 119.04-85.333333 213.333333-85.333333h1280c94.293333 0 170.666667 89.173333 170.666667 199.253333zM874.666667 42.666667a16.213333 16.213333 0 0 0-11.946667 5.12l-47.786667 53.76a15.786667 15.786667 0 0 0-2.56 17.066666 16.213333 16.213333 0 0 0 14.506667 9.386667h96a16.213333 16.213333 0 0 0 14.506667-9.386667 15.786667 15.786667 0 0 0-2.56-17.066666l-48.213334-53.333334a15.786667 15.786667 0 0 0-11.946666-5.12m469.333333-42.666666A246.186667 246.186667 0 0 0 1109.333333 256a246.186667 246.186667 0 0 0 234.666667 256 246.186667 246.186667 0 0 0 234.666667-256 246.186667 246.186667 0 0 0-234.666667-256z m-981.333333 42.666666C328.106667 42.666667 298.666667 140.373333 298.666667 256s29.44 213.333333 64 213.333333 64-97.706667 64-213.333333-29.44-213.333333-64-213.333333z m0-42.666666c-128 0-230.4 114.773333-230.4 256S235.52 512 362.666667 512s230.4-114.773333 230.4-256-103.253333-256-230.4-256z m981.333333 42.666666c-34.56 0-64 97.706667-64 213.333334s29.44 213.333333 64 213.333333S1408 371.626667 1408 256s-29.44-213.333333-64-213.333333zM1664 696.746667a166.4 166.4 0 0 1-47.36 120.32 120.32 120.32 0 0 1-187.306667-18.346667L1322.666667 651.093333a155.306667 155.306667 0 0 0-125.44-67.84H509.013333A155.306667 155.306667 0 0 0 384 651.093333L277.333333 798.72a120.32 120.32 0 0 1-187.306666 18.346667A166.4 166.4 0 0 1 42.666667 696.746667v-582.826667C42.666667 3.84 119.04-85.333333 213.333333-85.333333h1280c94.293333 0 170.666667 89.173333 170.666667 199.253333zM874.666667 42.666667a16.213333 16.213333 0 0 0-11.946667 5.12l-47.786667 53.76a15.786667 15.786667 0 0 0-2.56 17.066666 16.213333 16.213333 0 0 0 14.506667 9.386667h96a16.213333 16.213333 0 0 0 14.506667-9.386667 15.786667 15.786667 0 0 0-2.56-17.066666l-48.213334-53.333334a15.786667 15.786667 0 0 0-11.946666-5.12m469.333333-42.666666A246.186667 246.186667 0 0 0 1109.333333 256a246.186667 246.186667 0 0 0 234.666667 256 246.186667 246.186667 0 0 0 234.666667-256 246.186667 246.186667 0 0 0-234.666667-256z m-981.333333 42.666666C328.106667 42.666667 298.666667 140.373333 298.666667 256s29.44 213.333333 64 213.333333 64-97.706667 64-213.333333-29.44-213.333333-64-213.333333z m0-42.666666c-128 0-230.4 114.773333-230.4 256S235.52 512 362.666667 512s230.4-114.773333 230.4-256-103.253333-256-230.4-256z m981.333333 42.666666c-34.56 0-64 97.706667-64 213.333334s29.44 213.333333 64 213.333333S1408 371.626667 1408 256s-29.44-213.333333-64-213.333333z"  horiz-adv-x="1706" />

    
    <glyph glyph-name="tianmaoguoji" unicode="&#59113;" d="M145.5-126.3h145.6c0 80.7-32.2 145.3-73 145.6h-1c-38.8-0.8-71.6-65.2-71.6-145.6zM729.7-126.3h145.6c0 80.7-32.2 145.3-72.9 145.6h-1.1c-39.8-0.9-71.6-65.3-71.6-145.6zM74.9-107.6c9.3 71 69 126.1 142.3 126.9h1.6c80.9 0 145.6-65.6 145.6-145.6h73.2c0 40 32.4 73.2 73.2 73.2 40 0 73.2-32.4 73.2-73.2h73.2c0 80.3 64.6 144.7 143.9 145.6H802.8c74.1 0 134.5-55.3 143.9-126.9 44.3 24.7 74.9 72.4 74.9 126.9V161.5c-7.7 39.2-30.6 67.3-58.8 72.4-40 7.7-85.1-28.1-124.3-97.9-40-69.8-88.6-115.8-199.2-115.8H382.2c-110.7 0-159.2 46-199.2 115.8S97.9 241.6 58.7 233.9C30.8 228.8 8.8 201.1 0.1 164v-151.9c2.6-51.5 32.4-96.1 74.8-119.7zM217.2 19.3h1-1zM801.2 19.3h1.1-1.1zM595.5 507.1v66.3c0 11.7-9.7 21.7-21.4 21.8h-9.3v-109.8h9c11.7 0 21.7 10 21.7 21.7zM245.2 176c26.4-46 51.1-78.3 136.2-78.3h257.2c85.1 0 110.7 32.4 136.2 78.3 80 140.5 166.9 140.5 200.1 134.5 16.2-3.4 31.5-10.2 46-19.6v459C1021.7 829.9 956.2 895.5 876.1 895.5H145.5C68 895.5 4.1 834 0.1 757.5V291c13.6 9.3 28.8 16.1 44.9 19.5 33.3 6.8 120.1 6 200.2-134.5z m434.2 220l-42.9 12.6 60.1 158.1 42.9-12.6L679.4 396z m205.8 0l-60.1 158.1 42.9 12.6 60.1-158.1-42.9-12.6zM672.3 760.2h219.8v-44.7H672.3v44.7z m-17.4-117.4h254.7V598H802.1v-172c0.9-26.9-12.7-50.4-37.7-65.4L744 397.1c9.1 7.2 15.2 16.8 14.7 27.7V598.1H654.9v44.7zM520.1 767.4h53.8c36.6 0 66.5-29.9 66.5-66.5v-39.4c0-17-6.5-32.5-17.1-44.2 10.5-11.7 17-27.1 17-43.9v-66.3c0-36.6-29.9-66.5-66.5-66.5h-9v-80.1h-44.6V767.4zM94.7 768h390.2v-336.4c0-38.9-31.6-70.5-70.5-70.5H165.2c-38.9 0-70.5 31.6-70.5 70.5V768zM595.6 661.6V701c0 11.8-9.9 21.7-21.7 21.7h-9.1v-82.8H577c10.2 1.7 18.6 11 18.6 21.7zM165.2 405.8h249.3c14.3 0 25.9 11.6 25.9 25.9V723.4h-301v-291.8c-0.1-14.2 11.5-25.8 25.8-25.8z m1.6 80.5h96.4v72.3h-96.4v43.2h96.4v40.6h-96.4v43.2h245.9v-43.2H308v-40.6h104.8v-43.2H308v-72.3h59.9V519h44.9v-75.9h-246v43.2z"  horiz-adv-x="1024" />

    
    <glyph glyph-name="tianmaokuaishan" unicode="&#58967;" d="M781.97171938 448.60016156L613.00207625 491.64123281c-35.25118781 8.97016875-54.82818656 38.24124375-44.11119656 65.90713125l111.62351531 288.02108719c5.80700344 14.98175437-19.13635875 25.22663156-31.72606875 13.03035L216.92980344 439.86605062c-23.41686-22.70868937-10.46519625-56.65369406 25.06926-65.70254812l166.45170094-42.38011125c35.25118781-8.97016875 54.84392344-38.24124375 44.12693343-65.89139437L319.52020156-77.57102530999998c-5.90142656-15.23354906 19.84453031-25.38400219 32.10376032-12.65265844L808.14257938 383.99921343999995c21.96904406 22.81884937 8.65542563 55.74094031-26.17086 64.60094812"  horiz-adv-x="1024" />

    
    <glyph glyph-name="tianmao" unicode="&#58968;" d="M145.920232-127.99897799999997l145.920232 0c0 81.066909-32.426151 145.920232-73.386682 145.920232C179.200536 17.921253999999976 145.920232-46.932068999999956 145.920232-127.99897799999997L145.920232-127.99897799999997zM731.306404-127.99897799999997l145.920232 0c0 81.066909-32.427172 145.920232-73.386682 145.920232C763.733576 17.921253999999976 731.306404-46.932068999999956 731.306404-127.99897799999997L731.306404-127.99897799999997zM965.119619 232.960467c-40.106378 7.680227-85.333589-28.160493-124.586835-98.133627-40.106378-69.973134-88.746115-116.053476-199.67978-116.053476L383.146996 18.773364000000015c-110.933665 0-159.573402 46.080342-199.67978 116.053476-40.106378 69.973134-85.333589 105.812833-124.586835 98.133627-28.159471-5.119811-50.347022-33.280304-58.880381-70.826266l0-144.212948c0-54.613701 30.719888-102.400307 75.092945-127.14623 9.38649 71.680419 69.973134 127.14623 144.212948 127.14623 81.066909 0 145.920232-65.706455 145.920232-145.920232l73.386682 0c0 40.106378 32.426151 73.386682 73.386682 73.386682 40.106378 0 73.386682-32.426151 73.386682-73.386682l73.386682 0c0 81.066909 65.706455 145.920232 145.920232 145.920232 74.239814 0 134.826457-55.466833 144.212948-127.14623 44.373057 24.746945 75.092945 72.53355 75.092945 127.14623L1023.998978 160.426917C1016.319773 199.680163 993.280112 227.84065599999997 965.119619 232.960467L965.119619 232.960467zM878.079768 896L145.920232 896c-80.212756 0-145.920232-65.706455-145.920232-145.920232l0-459.946204c13.65317 9.38649 29.013625 16.213586 45.226189 19.627134 33.280304 6.827096 120.320156 5.972943 200.532912-134.826457 26.453208-46.080342 51.200153-78.506493 136.53272-78.506493l257.706008 0c85.333589 0 110.933665 32.426151 136.533742 78.506493 80.212756 140.7994 167.252608 140.7994 200.532912 134.826457 16.213586-3.413548 31.573019-10.239622 46.080342-19.627134L1023.144825 750.0797680000001C1024 830.293545 958.293545 896 878.079768 896L878.079768 896zM694.613573 676.693086L585.387193 676.693086l0-292.692575c0-40.106378-32.426151-73.386682-73.386682-73.386682-40.106378 0-73.386682 32.426151-73.386682 73.386682L438.613829 676.693086 329.387448 676.693086c-20.480266 0-36.69283 16.213586-36.69283 36.693852 0 20.480266 16.213586 36.69283 36.69283 36.69283l366.079257 0c20.480266 0 36.69283-16.213586 36.69283-36.69283C732.160557 692.906672 715.093839 676.693086 694.613573 676.693086L694.613573 676.693086z"  horiz-adv-x="1025" />

    
    <glyph glyph-name="gonggao1" unicode="&#58972;" d="M682.598958 386.656503c0 57.462736-30.314423 107.666138-75.480088 134.852314l-36.384675-60.164265c25.481348-14.697747 42.701544-42.615587 42.701544-74.68805 0-40.256866-27.213805-74.012667-63.85533-83.169211l40.452317-60.502979C644.475685 266.93684099999996 682.598958 322.24449400000003 682.598958 386.656503L682.598958 386.656503zM751.045863 759.498116l-36.335556-60.080354c103.387695-64.076364 172.471097-180.173522 172.471097-312.76433 0-136.095631-72.791863-254.824733-180.745551-317.760111l39.120996-58.506509c126.07951 75.797313 210.708979 215.905328 210.708979 376.227734C956.265828 544.5966510000001 874.087177 682.959929 751.045863 759.498116zM68.804551 160.850687l133.890406 0 0 451.329199L68.804551 612.179886 68.804551 160.850687zM820.840462 386.656503c0 108.218724-56.510038 202.959481-141.011594 255.086699l-37.108153-61.36051c64.418148-39.394219 107.549481-111.395066 107.549481-193.725166 0-88.1302-49.451272-164.436096-121.537054-201.553459l40.113603-59.994396C759.401158 175.60062300000004 820.840462 273.78275900000006 820.840462 386.656503zM238.707149 161.417599l272.256754-177.832198L510.963902 790.250514 238.707149 612.701772 238.707149 161.417599 238.707149 161.417599z"  horiz-adv-x="1024" />

    
    <glyph glyph-name="tianmaoguoji1" unicode="&#58974;" d="M511.166005 830.37435c-247.191892 0-447.565479-200.376657-447.565479-447.565479 0-247.185752 200.373587-447.559339 447.565479-447.559339 247.185752 0 447.559339 200.373587 447.559339 447.559339C958.725344 629.997694 758.351758 830.37435 511.166005 830.37435L511.166005 830.37435zM891.593388 396.93459L744.679363 396.93459c-1.545192 62.521962-12.666484 99.893104-32.406061 154.561192 38.07006 15.915481 58.027601 33.504068 90.14202 58.341756C859.479993 546.107051 888.233873 488.547101 891.593388 396.93459L891.593388 396.93459zM495.563656 2.4705169999999725c-46.925752 39.071877-63.908542 89.805352-92.711542 148.728346 36.947494 11.546987 53.752228 17.854647 94.188172 19.152199l0-167.970596C496.551146 2.408095000000003 496.058936 2.4295849999999746 495.563656 2.4705169999999725L495.563656 2.4705169999999725zM526.740726 763.1513190000001c53.233412-44.332694 96.694249-103.699804 126.075417-172.962284-40.20877-13.761422-60.644195-21.73093-105.180528-23.159466l-22.372543 196.187241C525.776771 763.216811 526.245446 763.195322 526.740726 763.1513190000001L526.740726 763.1513190000001zM573.755506 758.3591759999999c77.920674-12.951987 155.011446-53.459562 209.345935-105.842607-29.515221-22.536272-46.567595-38.07006-81.456197-52.591799C675.934676 660.81763 617.506962 714.655815 573.755506 758.3591759999999L573.755506 758.3591759999999zM497.040287 763.240347l0-196.190311c-44.529169 1.434675-64.937988 9.399067-105.152898 23.159466 29.384237 69.261457 50.464345 128.6081 103.702873 172.965353C496.079402 763.195322 496.551146 763.216811 497.040287 763.240347L497.040287 763.240347zM343.058286 599.924771c-34.861996 14.521738-59.546188 30.055526-89.067548 52.591799 54.337559 52.383044 116.662023 92.889597 194.579627 105.842607C404.818909 714.655815 368.793414 660.81763 343.058286 599.924771L343.058286 599.924771zM381.232724 541.786653c43.550888-15.107069 67.51672-23.902386 115.808586-25.352411l0-119.499651L350.621543 396.93459C352.167758 456.033593 362.613668 490.158808 381.232724 541.786653L381.232724 541.786653zM497.040287 346.31265599999995l0-125.338636c-44.529169-1.345648-65.182558-8.637728-105.780185-21.709441-24.458041 58.20668-38.872333 78.323856-40.638559 147.048077L497.040287 346.31265599999995 497.040287 346.31265599999995zM448.569342 7.259590000000003c-69.795623 11.615549-133.218094 42.005696-184.774307 86.156242 27.817556 19.271926 57.870012 35.604916 89.981361 47.999201C378.415562 90.35103000000004 410.643568 45.060520999999994 448.569342 7.259590000000003L448.569342 7.259590000000003zM525.284561 2.3814889999999878l22.37766 167.970596c40.439014-1.297552 57.242725-7.605212 94.188172-19.152199-28.801976-58.922994-68.163449-109.655446-115.089202-148.728346C526.268982 2.4295849999999746 525.776771 2.408095000000003 525.284561 2.3814889999999878L525.284561 2.3814889999999878zM690.903599 141.415033c32.114418-12.394285 39.788192-28.727275 67.626213-47.999201-51.556213-44.150546-114.978684-74.53967-184.774307-86.156242C611.688443 45.060520999999994 666.287969 90.35103000000004 690.903599 141.415033L690.903599 141.415033zM653.442406 199.26457900000003c-40.593534 13.071713-61.246923 20.363793-105.780185 21.709441L547.662221 346.31265599999995l146.397255 0C692.288133 277.587412 677.879981 257.47125800000003 653.442406 199.26457900000003L653.442406 199.26457900000003zM547.663244 396.93459L547.663244 516.433218c48.2714 1.450025 72.278163 10.246365 115.808586 25.352411 18.619056-51.627844 29.088502-85.753059 30.589692-144.852062L547.663244 396.933567 547.663244 396.93459zM234.682997 609.836515c32.111349-24.836665 59.684334-42.426275 97.747231-58.341756-19.7406-54.668087-30.860868-92.039229-32.402991-154.561192L130.73453 396.933567C134.090974 488.547101 177.594791 546.107051 234.682997 609.836515L234.682997 609.836515zM130.73453 346.31265599999995l169.291684 0c1.766226-72.125691 16.801664-95.485725 42.429345-156.73674-35.763528-13.9405-69.127404-32.538067-99.899244-54.513568C176.25426 201.03387499999997 134.428665 246.48504300000002 130.73453 346.31265599999995L130.73453 346.31265599999995zM779.768533 135.06234800000004c-30.771841 21.975501-41.733497 40.573067-77.517491 54.513568 25.624611 61.249993 40.660048 84.610026 42.429345 156.73674l146.914024 0C887.897206 246.48504300000002 846.076728 201.03387499999997 779.768533 135.06234800000004L779.768533 135.06234800000004zM779.768533 135.06234800000004"  horiz-adv-x="1024" />

    
    <glyph glyph-name="tianmaotmall" unicode="&#58975;" d="M-459.89966743 533.60016875l-855.58026813 0 0-799.81589688c0-182.3005224 94.30971568-296.51480118 297.30466479-296.51480119l0 0.15797272 848.78744104 0L-169.38782973 250.51304901000003C-169.38782973 427.75844431-252.16553662 533.60016875-459.89966743 533.60016875zM-662.10475301 370.57231855l118.95346051 0c152.12773229 0 205.83845818-0.47391817 205.83845814-196.04414934l0-109.15915165-324.79191865 0L-662.10475301 370.57231855zM-822.76301238-407.12739710999995l-97.94308829 0c-153.23354137 0-227.32274851 16.90308135-227.32274843 193.51658575 0 0 0 50.86721682 0 122.74480582l325.42380949 0L-822.60503961-407.12739710999995zM-822.76301238 65.21104487000002l-325.58178223 0c-0.15797275 149.28422331-0.31594546 303.46560099-0.47391814 305.36127368l325.89772767 0L-822.92098508 65.21104487000002zM-662.10475301-407.12739710999995l0 316.26139157 324.79191865 0 0-312.78599164c0-1.26378178 0.15797275-2.21161812 0.15797274-3.31742716L-662.10475301-406.96942433999993zM-1908.66751066 1173.8636153100001l0-170.13662273c169.03081366-3.79134534 275.66240174-81.19797968 300.78006467-219.42411233l3.3174272-18.32483589-304.25546463-176.77147709 0-176.45553169c0 0 222.26762135 133.01303281 306.62505549 176.92944986l0-284.35090153L-1601.72650975 273.41909386l-0.15797275 29.54089921-306.62505547-178.19323161 0-176.61350437c0 0 223.37343043 133.80289643 307.25694636 177.40336797l0-104.41996992c0-390.03465323-307.25694635-413.41461627-307.25694636-413.41461628l0-173.61202267c127.64196026 3.4753999 480.86896897 57.66004391 480.86896903 603.77174758L-1427.64056894 738.33281782C-1441.85811403 1018.57642853-1610.73095499 1168.96646092-1908.66751066 1173.8636153100001zM-346.633225 1173.8636153100001l-168.39892282 0 0-189.25132221-452.43387883 0L-967.46602665 1173.8636153100001l-168.39892281 0 0-189.25132221-179.45701337 0 0-169.50473187 179.45701337 0 0-156.70894126 168.39892281 0L-967.46602665 815.10756123l452.43387883 0 0-156.70894126 168.39892282 0L-346.633225 815.10756123l178.9830952 0L-167.6501298 984.6122931-346.633225 984.6122931-346.633225 1173.8636153100001zM-2932.17278342 1003.56901987l689.39296346 0L-2242.77981996 1172.75780625-3763.58322487 1172.75780625l0-169.18878638 657.48247334 0 0-439.16417015L-3840.98985918 564.40484972l0-168.39892278 714.66859913 0C-3145.12001411 304.85566573000006-3278.76493781-202.39474801000006-3840.98985918-393.85768839l0-171.08445903c344.69648172 69.66597088 662.85354596 361.75753582 819.24654179 704.87429026 177.24539527-385.92736243 539.95076745-641.05331019 855.10634994-704.87429026l0 173.61202263c-571.3873393 194.62239478-731.41370778 714.35265371-751.00232542 787.17807901l752.26610719 0L-2165.37318568 564.40484972-2932.17278342 564.40484972-2932.17278342 1003.56901987zM250.97758632 361.25192790000006l454.9614424 0 0-923.98245722 189.56726773 0L895.50629645 361.25192790000006l455.11941514 0L1350.62571159 533.60016875l-1099.64812527 0L250.97758632 361.25192790000006zM3319.28178639 531.70449606c-175.9816135 0-239.01273001-181.19471338-239.01272998-181.19471335l-373.9214355-912.92436656 193.35861304 0c192.88469486 415.15231621 622.41252889 412.94069809 658.90422788 412.94069806l163.9756865-412.94069806 209.47183083 0-373.76346278 912.92436656C3558.29451638 350.35181001 3495.73731806 531.70449606 3319.28178639 531.70449606zM3079.79513823-116.14164123l158.44664124 375.1852173c0 0 21.64226306 57.9759894 81.19797962 57.97598933 61.45138925 0 81.19797968-57.9759894 81.19797969-57.97598933l95.41552471-246.59542072C3451.97887374 9.762619080000036 3233.81854324-3.823035129999994 3079.79513823-116.14164123zM4212.45956259-194.49611185000003L4212.45956259 531.3885505999999l-188.14551316 0 0-810.71601474c0-164.60757746 117.37373324-282.77117426 295.56696483-282.77117429l228.744503 0 0 181.03674061c0 0-42.33668979-0.31594546-139.33194175-0.31594541C4283.23134253-381.53581596000004 4212.45956259-358.94571657000006 4212.45956259-194.49611185000003zM4860.14772717-194.49611185000003L4860.14772717 531.3885505999999l-187.98754046 0 0-810.71601474c0-164.60757746 117.2157605-282.77117426 295.4089921-282.77117429l228.74450301 0 0 181.03674061c0 0-42.17871705-0.31594546-139.33194173-0.31594541C4930.76153434-381.53581596000004 4860.14772717-358.94571657000006 4860.14772717-194.49611185000003zM2503.35267176 526.3334235c-62.71517108 24.80171751-121.3230513-20.69442672-132.85506014-29.69887196-82.30378871-63.18908923-171.55837726-119.11143319-333.16447291-119.11143321l-14.69146323 0c-161.92204112 0-251.01865694 55.92234396-333.32244567 119.11143321-11.53200879 9.00444524-69.98191631 54.50058943-132.8550601 29.69887196-58.76585296-23.06401754-68.08624366-77.72257977-68.0862436-121.32305133 0-83.72554321 0.15797275-566.49018494 0.15797267-966.79306513l187.98754045 0L1676.52343923 260.93924875000005c62.24125292-33.33224454 191.77888582-77.88055247 348.01390891-77.88055254l10.42619972 0c148.49435968 0 285.93062876 44.54830789 348.01390893 77.88055254l0-822.56396904 187.9875404 0c0.15797275 400.30288025 0.15797275 883.06752193 0.15797274 966.79306516C2571.43891541 448.6108437 2561.96055199 503.42737863 2503.35267176 526.3334235zM5489.66902854-379.79811601000006c-51.97302589 0-94.30971568-40.91493529-94.30971562-91.30823393s42.33668979-91.46620665 94.30971562-91.46620666c51.81505314 0 93.99377025 41.07290797 93.99377025 91.46620666S5541.64205444-379.79811601000006 5489.66902854-379.79811601000006zM7230.05451857 530.44071427c-135.38262367 0-251.9664933-39.33520804-346.27620898-116.89981505-112.95049698-93.20390659-170.29459546-237.90692093-170.29459548-429.52783401 0-174.71783169 48.18168052-311.04829172 142.33342352-404.72611647 94.78363386-94.15174295 220.52992142-141.85950533 374.23738094-141.85950534 95.25755202 0 184.82808598 21.80023579 265.8680929 64.29489829 80.88203422 42.65263523 143.43923252 103.47213362 186.24984047 181.03674066 42.02074435 76.93271616 63.18908923 183.09038606 63.18908928 315.31355522 0 164.76555012-48.49762599 295.88291031-144.2290962 390.03465322C7505.40097486 482.41700646 7380.60252362 530.44071427 7230.05451857 530.44071427zM7465.59184865-298.12621820000004c-63.18908923-59.7136893-142.49139617-90.04445216-235.53733008-90.04445213-95.73147017 0-173.29607718 29.3829265-236.95908462 89.41256126-64.76881647 61.76733473-97.78511559 156.55096853-97.78511554 282.77117428 0 125.9042603 33.0162991 220.52992142 97.78511554 281.82333793 62.71517108 59.23977115 142.49139617 89.09661582 236.95908462 89.09661581 92.88796115 0 171.87432268-30.01481741 235.06341191-89.41256124 65.2427346-61.45138925 98.25903376-154.33935043 98.25903371-275.9783472C7563.37696419-139.67957694000006 7530.51863781-236.67482894 7465.59184865-298.12621820000004zM8886.71446533 526.3334235c-62.87314377 24.80171751-121.3230513-20.69442672-132.85506013-29.69887196-82.46176147-63.18908923-171.55837726-119.11143319-333.16447293-119.11143321l-14.84943599 0c-161.76406841 0-250.86068423 55.92234396-333.16447291 119.11143321-11.68998149 9.00444524-70.13988901 54.50058943-133.01303282 29.69887196-58.60788022-23.06401754-67.92827094-77.72257977-67.92827093-121.32305133l0-966.79306513 187.98754049 0L8059.72726011 260.93924875000005c62.24125292-33.33224454 191.93685855-77.88055247 348.0139089-77.88055254l10.4261997 0c148.49435968 0 286.08860145 44.54830789 348.01390892 77.88055254l0-822.56396904 188.14551318 0c0 400.30288025 0.15797275 883.06752193 0.15797272 966.79306516C8954.80070898 448.6108437 8945.32234558 503.42737863 8886.71446533 526.3334235zM6385.21639559-298.12621820000004c-63.34706195-59.7136893-142.49139617-90.04445216-235.53733007-90.04445213-95.73147017 0-173.29607718 29.3829265-236.95908459 89.41256126-64.76881647 61.76733473-97.78511559 156.55096853-97.78511557 282.77117428 0 125.9042603 33.0162991 220.52992142 97.62714285 281.82333793 62.87314377 59.23977115 142.64936892 89.09661582 237.11705731 89.09661581 92.72998843 0 171.87432268-30.01481741 234.90543919-89.41256124 7.89863616-7.42471795 15.32335414-15.32335414 22.11618124-23.53793574l212.31533979 0c-23.53793573 55.60639852-55.92234396 104.73591541-98.25903375 146.28274154-95.57349744 94.30971568-220.52992142 142.17545075-371.07792647 142.17545076-135.38262367 0-251.9664933-39.33520804-346.4341817-116.89981505-112.95049698-93.20390659-170.13662274-237.90692093-170.13662267-429.52783401 0-174.71783169 48.02370781-311.04829172 142.33342342-404.72611647 94.62566111-94.15174295 220.52992142-141.85950533 374.23738095-141.85950534 95.25755202 0 184.67011327 21.80023579 265.71012019 64.29489829s143.59720526 103.47213362 186.24984047 181.03674066c7.5826907 13.74362691 14.05957233 28.59306288 20.2205086 44.0743897L6408.28041315-273.16652795000005C6401.1716406-282.01300042 6393.43097722-290.3855547600001 6385.21639559-298.12621820000004z"  horiz-adv-x="5376" />

    
    <glyph glyph-name="tianmao1" unicode="&#58976;" d="M697.379156 295.00654799999995h37.575554v-35.015911h-37.575554zM697.379156 222.77343199999996h37.575554v-36.142155h-37.575554zM774.373207 222.77343199999996h39.060148v-36.142155h-39.060148zM774.373207 295.00654799999995h39.060148v-35.015911h-39.060148zM993.939356 872.769093A75.919002 75.919002 0 0 1 875.4279 861.148315L808.314069 767.8749359999999a98.034314 98.034314 0 0 0-79.195344-42.899611H294.542592A98.034314 98.034314 0 0 0 215.603212 767.8749359999999L148.489381 861.148315A75.919002 75.919002 0 0 1 29.977925 872.769093 105.354892 105.354892 0 0 1 0.030106 796.64532v-798.608515C0.030106-71.687861 48.304966-128 107.842255-128h808.232771c59.537289 0 107.760957 56.312139 107.760956 126.036805v798.608515a105.354892 105.354892 0 0 1-29.896626 76.123773zM475.867679 131.70134599999994c-69.315124 22.115313-113.904099 64.861345-144.875776 125.320105-20.477141-49.042754-61.943353-95.474672-144.875775-126.446348a168.936416 168.936416 0 0 1-28.770384 37.985097c85.133715 30.203784 121.27587 77.761944 136.377762 124.603406H170.246343v44.947325h132.743069c0.7167 9.931414 1.126243 19.146127 1.126243 28.360841v37.268397H183.556485v44.998518h291.799265v-44.998518H350.138031v-37.985097c0-8.856364-0.35835-18.071077-0.7167-27.644141h140.421997v-44.947325H361.195687c25.596427-58.615817 73.001009-101.7202 144.875775-120.55917a157.110867 157.110867 0 0 1-30.203783-40.90309z m144.466232 19.91402a39.879233 39.879233 0 0 0-22.473662-14.385192 168.475681 168.475681 0 0 0-46.073569-2.969186 89.382722 89.382722 0 0 1-11.057656 42.029333 206.563164 206.563164 0 0 1 36.858855-0.35835 14.89712 14.89712 0 0 1 11.160042 6.296721c7.371771 9.573064 10.238571 44.230625 10.699306 84.775365a353.230689 353.230689 0 0 0-46.841461-49.042753 161.10391 161.10391 0 0 1-29.128734 32.456269 257.09051 257.09051 0 0 1 72.642659 78.529837 179.174987 179.174987 0 0 1-9.214713 37.985097 378.110416 378.110416 0 0 0-36.858855-28.36084 152.657089 152.657089 0 0 1-27.644141 30.715712 318.061199 318.061199 0 0 1 44.998519 36.858854 204.771414 204.771414 0 0 1-34.964719 37.780326l30.715712 23.241556a230.367841 230.367841 0 0 0 31.330026-31.688377 285.707315 285.707315 0 0 1 22.473663 30.715712l32.456269-26.517898a305.109407 305.109407 0 0 0-30.715712-41.670983c19.146127-39.060147 22.473663-80.73113 22.473663-124.245055-0.204771-50.271382-4.249007-99.723679-20.835492-122.146148z m234.616848-18.787778h-41.466212V148.44140900000002h-116.105391v-17.712728h-39.46969v202.621315H854.950759z m11.416006 253.251047h-43.667504v-41.26144h-42.387683v41.26144h-50.117803v-41.26144h-42.029333v41.26144h-42.746033v39.418497h42.746033v47.916511h42.029333v-47.916511h50.117803v47.916511h42.387683v-47.916511h43.872275z"  horiz-adv-x="1024" />

    
    <glyph glyph-name="tianmao2" unicode="&#58977;" d="M2160.639082 748.596178A198.712527 198.712527 0 0 1 2080.197469 881.650955c-35.220382 21.306157-77.397877 6.957113-119.140552-31.307006l-66.527389-76.963057a893.55414 893.55414 0 0 0-189.146496-173.927813 516.565605 516.565605 0 0 0-273.066667-73.484502H746.171142a446.124841 446.124841 0 0 0-273.066667 94.790659 2090.612314 2090.612314 0 0 0-189.146497 195.668789C217.865409 892.521444 154.381758 913.392781 98.290038 881.650955 60.025919 860.779618 35.676025 815.123567 17.848424 748.596178a801.807219 801.807219 0 0 1-13.914225-164.361783v-157.404671H0.455643v-301.329936a232.193631 232.193631 0 0 1 43.481953-150.447559 154.360934 154.360934 0 0 1 111.74862-52.613163l565.265393-6.957113a228.280255 228.280255 0 0 0 125.228026-43.481953h491.346072a228.280255 228.280255 0 0 0 125.228025 43.481953l565.265393 6.957113a154.360934 154.360934 0 0 1 111.74862 52.613163 232.62845 232.62845 0 0 1 34.785563 150.447559V584.234395a801.807219 801.807219 0 0 1-13.914226 164.361783zM261.347363 97.67133799999999a219.583864 219.583864 0 0 0-75.223779 167.840339A233.498089 233.498089 0 0 0 261.347363 437.265393 227.845435 227.845435 0 0 0 413.534199 504.66242a130.44586 130.44586 0 0 1-43.481953-69.136305 608.747346 608.747346 0 0 1-20.871338-171.753716 604.399151 604.399151 0 0 1 20.871338-171.318896A158.27431 158.27431 0 0 1 408.751184 26.360934000000043 213.496391 213.496391 0 0 0 261.347363 97.67133799999999z m339.594055 0A228.280255 228.280255 0 0 0 446.580484 26.360934000000043a153.926115 153.926115 0 0 1 36.95966 66.092569 604.399151 604.399151 0 0 1 20.871338 171.318896 608.747346 608.747346 0 0 1-20.871338 171.753716 133.054777 133.054777 0 0 1-43.481953 69.136305 243.498938 243.498938 0 0 0 157.404671-69.136305 245.673036 245.673036 0 0 0 70.005944-171.753716 230.889172 230.889172 0 0 0-70.005944-167.84034z m416.557112 220.453503l27.828451 6.957112h86.963906l27.82845-6.957112c6.957113-6.957113 3.478556-13.914225-3.478556-20.871338l-52.613163-76.963057a18.26242 18.26242 0 0 0-13.914226-6.957113l-13.914225 6.957113-56.091719 76.963057a16.523142 16.523142 0 0 0-3.478557 20.871338z m329.158387-311.765605a135.228875 135.228875 0 0 0-112.18344-38.264119 130.44586 130.44586 0 0 0-126.097664 70.005945l-3.478556 3.478556-17.392782 6.957112-13.914225-6.957112-3.478556-3.478556a130.44586 130.44586 0 0 0-126.097665-70.005945 134.359236 134.359236 0 0 0-112.183439 38.264119v28.263269a157.404671 157.404671 0 0 1 91.312102-31.741826 108.704883 108.704883 0 0 1 118.705732 52.613164 217.409766 217.409766 0 0 1 21.306157 98.269214h52.178344l3.478557-38.698938a116.096815 116.096815 0 0 1 136.533333-112.18344 160.448408 160.448408 0 0 1 91.312102 31.741826z m234.367728 91.312102a217.409766 217.409766 0 0 0-71.745223 167.840339 230.019533 230.019533 0 0 0 70.005945 171.753716A235.672187 235.672187 0 0 0 1732.776662 504.66242a120.87983 120.87983 0 0 1-36.524841-67.397027 498.738004 498.738004 0 0 1-24.349893-171.753716 494.389809 494.389809 0 0 1 24.349893-171.318896 130.44586 130.44586 0 0 1 32.176646-67.831847 217.409766 217.409766 0 0 0-149.1431 69.136306z m339.594055 0a212.191932 212.191932 0 0 0-152.186836-71.310404 130.44586 130.44586 0 0 1 35.220382 66.092569A494.389809 494.389809 0 0 1 1826.697681 265.51167699999996a498.738004 498.738004 0 0 1-24.349894 171.753716 109.574522 109.574522 0 0 1-39.133758 67.397027 238.715924 238.715924 0 0 0 225.671338-241.32484 217.409766 217.409766 0 0 0-70.005945-167.84034z"  horiz-adv-x="2177" />

    
    <glyph glyph-name="tianmaochaoshi" unicode="&#58978;" d="M1023.6256 572.352l-69.12-319.04c-1.6-18.112-18.88-18.112-18.88-18.112l-706.688-43.84-10.304-60.416s711.552 2.304 713.792 1.536c45.632-15.04 6.336-65.152 6.336-65.152l-23.616-7.552-44.288 0.192a60.928 60.928 0 0 0-27.52-115.392 60.928 60.928 0 1 0-27.2 115.648l-623.36 2.368a61.056 61.056 0 0 0-21.952-118.016 60.992 60.992 0 1 0-21.504 118.208H129.2896l-23.552 1.536c-33.024 1.536-22.016 33.28-22.016 33.28s26.176 51.776 56.96 128.512l30.912 248.32S122.5056 550.528 10.9536 680.192c0 0-23.552 25.664-1.536 54.4 0 0 29.824 34.688 62.848 13.568l133.632-161.6 809.92 1.472c10.88-3.008 7.808-15.744 7.808-15.744zM292.1056 493.76l-33.216-232.896c20.48-22.656 58.88-1.472 58.88-1.472l34.368 232.832c-21.824 22.592-60.032 1.536-60.032 1.536z m142.72-1.536l-30.72-219.264c20.48-22.656 58.88-1.536 58.88-1.536l31.872 219.328c-21.824 22.528-60.032 1.472-60.032 1.472z m141.184 0l-28.16-211.712c20.416-22.656 58.88-1.536 58.88-1.536l29.312 211.776C614.1536 513.28 576.0096 492.16 576.0096 492.16z m141.44 1.536l-30.4-198.144c20.48-22.656 57.28-1.536 57.28-1.536l30.016 198.144c-21.888 22.592-56.96 1.536-56.96 1.536z m141.12 0l-29.44-193.6c20.48-22.656 57.344-1.536 57.344-1.536l28.992 193.6c-21.76 22.592-56.896 1.536-56.896 1.536z m-16.512 129.536c7.808 109.184-66.432 107.008-66.432 107.008 6.272-6.208 10.24-36.8 10.24-36.8l3.2-71.744-28.16-0.64V691.008c0 7.808 9.984 39.68 9.984 39.68-79.488-16.896-61.44-107.392-61.44-107.392H495.8816c4.672 102.976-60.544 97.536-60.544 97.536s7.232-19.456 9.088-42.88c0 0 0.64 0 0.896-60.928l-24.32 0.384 0.128 62.144s3.456 30.208 12.16 42.56c0 0-82.368-6.848-65.28-103.488l-69.184 0.64s0.256 2.56 1.536 126.08c0 0-7.232 37.632 23.424 69.888 0 0 46.592 31.104 78.528-35.904 0 0 14.4-41.6 68.288-39.36l268.608 0.32c61.056 6.016 76.16 62.784 76.16 62.784 25.728 37.824 56 32.384 72.128 18.304 15.168-13.312 17.024-34.24 17.024-34.24v-163.84s-3.136-1.536-62.4 0z m-255.744 38.08l23.36-28.736 20.288 28.992-43.648-0.256z"  horiz-adv-x="1024" />

    
    <glyph glyph-name="tianmaoguoji2" unicode="&#58979;" d="M876.17472 140.928c42.88 0 81.92-24.96 99.84-63.68 2.304-4.928 4.288-10.048 5.952-15.488l4.096-16c3.072-14.72 4.544-29.696 4.352-44.544v-74.304H917.13472v74.624a132.288 132.288 0 0 1-4.992 37.888l-1.216 3.584-1.024 2.56a37.12 37.12 0 0 1-33.6 22.08 38.976 38.976 0 0 1-29.12-13.312l-37.312-38.528c-9.6-9.792-17.536-17.728-23.744-23.808l-11.136-10.496c-23.36-20.8-47.36-29.632-79.808-29.632H295.24672c-32.448 0-56.384 8.832-79.68 29.568a416.32 416.32 0 0 0-15.872 15.104l-11.776 11.84-44.928 46.272a38.528 38.528 0 0 1-28.608 12.992 37.12 37.12 0 0 1-35.648-26.752l-3.2-13.824a134.4 134.4 0 0 1-2.176-25.856v-74.304H0.01472v74.048a203.904 203.904 0 0 0 8.128 59.648l3.072 9.088 3.2 7.36c17.92 38.976 56.96 63.872 99.84 63.872 31.744 0 61.952-13.44 82.752-36.608l50.752-52.032c7.872-7.872 13.312-13.12 16.512-16l4.672-3.84c7.552-5.568 14.08-7.168 26.368-7.168h399.936c14.72 0 21.248 2.368 31.04 11.072 2.56 2.24 6.528 6.016 12.032 11.52l62.208 63.488c20.48 18.88 47.488 29.568 75.648 29.568zM500.36672 832l22.656-1.152 21.568-2.176a446.592 446.592 0 0 0 143.744-43.136l19.392-10.112 19.072-11.136 5.312-3.648c8.96-7.36 13.888-18.368 13.12-30.08a34.944 34.944 0 0 0-42.432-31.744l-1.28 0.704-5.12 0.896-1.856 1.152a363.136 363.136 0 0 1-76.288 36.48l-12.928 3.968-7.296-71.68-74.048-89.28-121.216 0.448-127.232 50.56-41.792 24.64-7.424-6.976A354.24 354.24 0 0 1 147.85472 538.112a380.864 380.864 0 0 1-33.728-194.368l1.088-9.92 67.84 42.88c30.912 20.672 109.632 35.072 141.44 28.416 4.48-0.96 21.888 4.16 26.88 7.04 5.76 7.04 16.256 14.08 38.272 24.64l8.832 4.16c34.304 15.552 43.392 17.92 54.4 15.744 11.776-2.368 25.28-5.632 38.528-10.176l12.416-4.48c3.584-1.344 6.784-2.816 10.24-4.608 19.84-10.24 31.872-24.32 31.872-43.968 0-19.712-13.824-64.896-25.728-82.112l-4.416-5.12-3.968-3.264-41.728-24.96a96 96 0 0 1-7.488-4.928l-11.904-9.024c-13.312-10.56-16.896-16-16.64-16.64l2.24-7.808 4.352-13.12c19.712-60.16 21.76-73.344 8.64-90.88-12.032-16-71.232-41.152-95.04-45.568l-5.696-0.768-4.672-0.192v-5.76l0.704-13.248h-49.28l-1.472-0.128-7.296 6.912-13.056 12.992c0 6.592 0.448 12.416 1.152 17.664l1.408 7.744c5.12 21.696 15.936 34.944 30.848 40.96a51.584 51.584 0 0 0 20.48 3.648l13.632-0.96c4.48 0.704 15.36 4.736 26.752 9.6l15.04 6.72-16.64 52.288c-9.344 29.76 1.856 56.064 26.112 79.552a166.4 166.4 0 0 0 15.488 13.312l15.36 11.136c3.008 2.112 6.848 4.48 11.84 7.616l24.576 14.784c3.776 2.24 3.776 2.24 4.288 0.96 2.304 6.016 4.928 13.696 7.04 20.608l1.152 4.224-1.408 0.576a218.56 218.56 0 0 1-16.512 5.12l-6.976 1.728-3.776-1.536c-9.792-4.16-22.976-10.24-32-14.72l-8.96-4.736c-17.984-20.352-64.448-34.88-92.8-29.12-14.912 2.688-74.112-8.064-88.896-17.92l-33.216-21.248-57.664-35.84 4.736-14.016c9.344-25.472 21.44-49.856 36.096-72.832a155.392 155.392 0 0 1-90.112 6.912 424.896 424.896 0 0 0-21.056 51.008 452.288 452.288 0 0 0-22.4 178.624 446.016 446.016 0 0 0 48.448 173.312 450.688 450.688 0 0 0 71.68 101.76l14.528 14.72c5.76 5.76 10.432 10.24 21.312 19.904a461.888 461.888 0 0 0 151.232 87.04 457.92 457.92 0 0 0 110.912 22.4L477.71072 832h22.656z m341.44-195.136a31.744 31.744 0 0 0 21.376-7.36l5.44-4.8 0.896-1.024a443.2 443.2 0 0 0 71.488-278.656 447.744 447.744 0 0 0-42.24-160.896 156.8 156.8 0 0 1-86.72-12.16c9.728 14.656 18.24 30.016 25.664 45.952 19.2 41.152 30.784 85.952 34.304 132.288a371.2 371.2 0 0 1-14.848 135.488l-3.52 10.496-1.152-0.896c-17.92-13.312-29.504-28.224-32-44.544l-0.448-7.04c0.384-91.712-9.6-133.504-43.84-152.96-15.232-8.576-31.36-11.52-56.576-12.096l-11.328-0.064 1.344 2.432-15.04-20.672c-14.144-19.904-20.864-31.36-22.144-33.92 2.304-4.992 5.248-10.56 9.216-17.472l20.736-35.136c6.272-10.88 9.664-17.792 12.864-25.92 7.04-17.088 11.392-32.512 12.032-47.36l-18.432-18.816-12.288-11.776-1.344 0.128h-50.368c2.752 6.592 6.08 12.8 10.112 18.56 3.392 4.864 3.456 11.968-1.728 26.688l-2.56 6.784a162.816 162.816 0 0 1-11.968 22.912l-17.728 29.952a229.76 229.76 0 0 0-13.632 27.136c-10.56 26.112-1.408 52.288 28.8 95.36l20.736 28.16c7.232 16.384 19.84 21.568 42.688 22.528l20.608 0.256 4.864 0.192c8.832 0.448 15.296 1.472 16.64 2.176 4.864 3.968 9.856 31.36 9.28 92.48-0.256 48.512 27.968 86.912 70.336 114.944l4.672 2.944-3.84 6.784-5.312 9.984-2.88 5.632 1.408-3.648a35.2 35.2 0 0 0-7.296 16.576l-0.512 7.68a34.816 34.816 0 0 0 34.176 32.768zM299.91872 706.432l-6.464-4.032 12.608-7.616 109.696-44.032 75.456-2.368 40.256 48.512 5.056 59.2-12.48 1.28-3.392 0.192a378.24 378.24 0 0 1-220.736-51.2z"  horiz-adv-x="1024" />

    
    <glyph glyph-name="tianmaobao" unicode="&#58980;" d="M950.962 357.008l0 0.569c0 1.214 0 2.444-0.034 3.733-0.694 43.493-7.257 111.863-38.035 133.033-35.331 24.198-68.11-20.317-74.548-29.071-46.263-61.974-96.545-143.872-187.296-143.872l-274.284 0c-90.761 0-141.03 81.897-187.314 143.872-6.438 8.754-39.211 53.269-74.53 29.071-30.791-21.169-37.332-89.539-38.049-133.033-0.017-1.29-0.017-2.519-0.017-3.733l0-0.569c0-2.887 0.017-21.613 0.017-78.381l-0.103 0 0-143.753c0-4.17 0.087-8.187 0.259-12.038 2.558-57.739 23.258-152.861 436.88-152.861 413.602 0 434.301 95.122 436.871 152.861 0.185 3.851 0.269 7.867 0.269 12.038l0 143.751-0.119 0c-0.001 56.769 0.033 75.494 0.033 78.382zM265.931 46.346c-0.016 0-0.034 0-0.034 0-65.278 0-118.188 52.532-118.188 117.303 0 64.805 52.91 117.321 118.188 117.321 0 0 0.017 0 0.034 0-17.218-0.016-31.155-52.5-31.155-117.221 0-64.838 13.936-117.37 31.155-117.404zM265.948 46.346c17.126 0.034 31.03 52.566 31.03 117.404 0 64.704-13.903 117.186-31.03 117.221 65.239-0.035 118.107-52.551 118.107-117.321 0.001-64.754-52.867-117.27-118.107-117.303zM542.969 150.676l-10.681-18.667c-4.378-7.549-9.417-16.572-12.438-22.097-0.635-1.106-1.473-2.795-5.984-2.795-4.421 0-5.342 1.689-5.952 2.795-3.021 5.524-8.128 14.548-12.446 22.182l-10.631 18.516c-5.215 9.09-0.502 16.507 10.48 16.507l37.182 0c10.94 0 15.694-7.367 10.471-16.439zM761.857 46.346c-65.239 0.034-118.117 52.55-118.117 117.303 0 64.771 52.877 117.286 118.117 117.321-17.119-0.035-31.038-52.516-31.038-117.221 0-64.838 13.919-117.37 31.038-117.404zM761.924 46.346l-0.035 0c17.195 0.034 31.131 52.566 31.131 117.404 0 64.721-13.936 117.204-31.131 117.221l0.035 0c65.273 0 118.182-52.516 118.182-117.321 0.001-64.771-52.909-117.303-118.182-117.303zM377.561 612.793l272.409 0c10.866 0 21.001 1.172 30.535 3.314 0.15 0.034 0.293 0.076 0.434 0.118-27.059 65.038-91.774 110.925-167.492 110.925-75.435 0-139.452-45.678-166.573-110.29 4.151-1.138 8.413-2.125 12.79-2.929 5.75-0.72 11.703-1.139 17.897-1.139zM92.395 523.027c13.347 8.939 27.79 13.46 43.012 13.46 20.662 0 51.867-8.739 83.257-50.358 3.241-4.252 6.601-8.679 9.974-13.166 42.133-55.906 81.959-108.708 147.583-108.708l275.606 0c65.634 0 105.444 52.802 147.572 108.708 3.398 4.487 6.737 8.914 10.061 13.284 31.306 41.501 62.528 50.24 83.177 50.24 15.209 0 29.655-4.521 42.957-13.409 0.076-0.05 0.143-0.108 0.218-0.159 9.71 34.444 15.001 76.548 15.236 113.897-3.164 33.013-12.457 70.831-36.855 84.625-35.524 19.955-68.512-16.841-75.091-24.098-46.624-51.186-96.512-118.802-188.051-118.802l-274.284 0c-91.465 0-141.378 67.617-188.002 118.802-6.561 7.257-39.517 44.054-75.07 24.098-24.425-13.778-33.708-51.503-36.926-84.475 0.222-37.458 5.529-79.653 15.28-114.189 0.117 0.083 0.225 0.166 0.347 0.25z"  horiz-adv-x="1024" />

    
    <glyph glyph-name="tianmao3" unicode="&#58981;" d="M896.269897 664.0451370000001l0-107.402125 0-8.262174c-1.112334-21.481244-5.935176-36.899398-14.458293-46.26572-8.540514-9.363252-21.344121-14.868639-38.422078-16.523325-2.203178-1.101077-7.43432-1.64957-15.696494-1.64957l-161.937183 0-28.918633 0c-37.45403-5.506411-56.17951-23.683399-56.17951-54.526871l0-49.572022c3.303232-2.755764 41.862433-22.857591 115.668393-60.308551 3.856841-2.203178 4.957919-5.233188 3.303232-9.089006l-0.826831-0.826831c-1.101077-2.202155-4.131087-3.302209-9.083889-3.302209l-57.83522 9.910721-51.225685 9.915837 0-384.997468c0-4.405333-2.477424-6.607488-7.436366-6.607488-3.856841 0-6.058996 1.64957-6.611581 4.957919-0.548492 0.548492-0.823761 1.098008-0.823761 1.64957l-17.350157 56.181557c-2.755764 6.608511-5.647627 14.458293-8.677637 23.543206-3.028986 9.089006-5.91778 18.58938-8.67252 28.506241-2.75474 9.915837-4.405333 15.974833-4.958942 18.176988-0.547469 3.303232-3.028986 4.952802-7.43432 4.952802l-17.35118 0c-3.855818 0-6.333242-1.64957-7.43432-4.952802-2.755764-16.523325-9.91686-39.933501-21.481244-70.225411l-17.352203-56.181557 0-0.825808c-0.547469-3.852748-3.028986-5.78168-7.43432-5.78168l-0.826831 0c-4.952802 0-7.435343 2.202155-7.435343 6.607488l0 384.996444-51.221592-9.915837-57.83522-9.910721c-4.41045 0-7.440459 1.100054-9.089006 3.302209l0 0.826831c-1.101077 3.855818-0.274246 6.885827 2.477424 9.089006 73.257467 36.899398 111.812575 57.004295 115.668393 60.308551l0 49.572022c0 30.843472-18.173918 49.02046-54.529941 54.526871l-28.089755 0L194.818057 483.942223c-7.708566 0-12.667507 0.548492-14.869662 1.64957-16.523325 1.654686-29.327956 7.160073-38.416961 16.523325-9.089006 9.367345-14.185071 24.784476-15.286148 46.266743l0 8.262174 0 107.402125 0 58.660005 0 0.825808 0 2.477424c0 50.671053 11.016915 83.718727 33.047674 99.139951 13.768585 6.611581 26.988678 6.474458 39.656185-0.412392 12.671601-6.884804 21.482267-13.908778 26.441209-21.068851 12.668531-14.869662 21.345144-24.921599 26.024723-30.154787 4.682649-5.231141 13.357216-13.904685 26.024723-26.022677 12.671601-12.120039 23.685445-20.655436 33.047674-25.613354 9.368368-4.958942 21.209044-9.774621 35.529191-14.458293 14.32117-4.679579 28.91761-7.02295 43.786249-7.02295l19.827581 0 101.627608 0 102.447277 0 19.000749 0c18.176988 0 34.976606 2.480494 50.398854 7.439436 15.423271 4.953825 30.017664 13.078877 43.792389 24.370037 13.768585 11.295254 24.647353 20.932752 32.633235 28.916587 7.986905 7.990998 18.588357 19.694551 31.809473 35.112706 2.755764 3.304256 4.683672 5.78475 5.78475 7.43432 2.202155 2.206248 5.095042 4.958942 8.673543 8.262174 3.577478 3.307326 8.67252 7.02295 15.284101 11.154038 6.608511 4.130064 13.221116 6.333242 19.827581 6.611581 6.607488 0.274246 14.046924-1.242294 22.309098-4.546549 22.029736-14.320147 33.047674-47.367821 33.047674-99.139951l0-2.477424 0-0.825808L896.269897 664.0451370000001 896.269897 664.0451370000001zM191.513802 611.171929c0-22.583344 7.435343-41.72224 22.310122-57.421804 14.868639-15.696494 33.597189-25.195845 56.180534-28.500101-14.32117 14.32117-21.482267 42.409902-21.482267 84.267219 0 23.134907 2.480494 42.962487 7.440459 59.486836 4.953825 16.523325 11.013845 25.337061 18.173918 26.438139-22.030759 0-41.309848-8.399297-57.83522-25.201985C199.775976 653.442662 191.513802 633.749134 191.513802 611.171929L191.513802 611.171929zM283.22455 525.249001c22.583344 3.305279 41.446971 12.666484 56.595996 28.088732 15.143908 15.422248 22.720468 34.701336 22.720468 57.833173 0 23.12979-8.124028 42.961464-24.37413 59.484789-16.249079 16.523325-35.94056 24.785499-59.072397 24.785499 7.161097-1.653663 13.08297-10.464329 17.762549-26.438139 4.682649-15.971763 7.023974-35.803437 7.023974-59.486836 0-20.37505-1.790786-38.279838-5.369288-53.701063C294.927079 540.397003 289.832038 530.2069200000001 283.22455 525.249001L283.22455 525.249001zM495.560586 627.693208c-3.856841 0-6.750751-1.101077-8.677637-3.304256-1.928932-2.202155-2.067079-4.683672-0.412392-7.43432l9.089006-12.392238c1.64957-1.654686 3.166109-3.307326 4.542456-4.957919 1.375324-1.653663 2.755764-3.581572 4.131087-5.78475 1.375324-2.203178 2.341325-3.577478 2.892887-4.131087 0-1.100054 1.3743-1.64957 4.13211-1.64957 2.758834 0 4.686742 0.549515 5.780657 1.64957l9.914814 14.873756 9.090029 12.392238c2.75167 2.75167 3.166109 5.232165 1.237177 7.43432s-5.368264 3.304256-10.327206 3.304256L495.560586 627.693208 495.560586 627.693208zM602.139973 524.4231930000001c-3.304256-3.856841-9.090029-7.024997-17.35118-9.501398-8.262174-2.480494-18.037818-2.75474-29.330002-0.825808-11.291161 1.926886-20.517289 7.575536-27.678386 16.933671-1.101077 2.206248-2.340301 6.058996-3.719718 11.5695-1.375324 5.506411-2.341325 9.084912-2.892887 10.737552-0.547469 2.756787-0.821715 7.43432-0.821715 14.046924l-18.179035 0c0-3.856841-0.552585-8.540514-1.654686-14.046924-0.556679-8.260128-2.75781-15.696494-6.606465-22.308075-6.058996-10.463306-14.733563-16.523325-26.024723-18.172895-11.292184-1.653663-21.206998-0.963954-29.744441 2.066055-8.53642 3.028986-14.458293 6.196119-17.763572 9.501398l0-9.91686c3.856841-6.054903 11.291161-10.463306 22.305005-13.214976 11.016915-2.755764 22.720468-2.344395 35.113729 1.238201 12.393261 3.581572 21.345144 10.880815 26.851555 21.893636 0 0.551562 0.554632 1.3743 1.655709 2.475378 1.654686 1.655709 3.303232 2.480494 4.958942 2.480494 2.202155 0 4.131087-0.825808 5.780657-2.480494 0-1.101077 0.278339-1.923816 0.825808-2.475378 5.509481-10.465352 14.595416-17.489326 27.267017-21.066805 12.668531-3.581572 24.645306-4.131087 35.936467-1.653663 11.293207 2.476401 18.316158 6.747681 21.070898 12.802584L602.139973 524.4231930000001 602.139973 524.4231930000001zM659.975193 611.171929c0-22.029736 7.710612-41.036625 23.13286-57.006342 15.423271-15.974833 33.875528-25.611308 55.356772-28.916587-13.219069 13.220093-19.826558 41.308825-19.826558 84.267219 0 24.235984 2.340301 44.200688 7.018857 59.897182 4.683672 15.700587 10.879792 24.37413 18.58938 26.027793-22.584368 0-42.274826-8.399297-59.072397-25.201985C668.373467 653.442662 659.975193 633.749134 659.975193 611.171929L659.975193 611.171929zM752.507656 525.249001c23.13593 3.305279 42.00058 12.666484 56.593949 28.088732 14.59644 15.422248 21.894659 34.701336 21.894659 57.833173 0 23.12979-7.984858 42.961464-23.959691 59.484789-15.97074 16.523325-35.799344 24.785499-59.483766 24.785499 7.710612-1.653663 13.906731-10.464329 18.58938-26.438139 4.679579-15.971763 7.018857-35.803437 7.018857-59.486836 0-20.37505-1.786693-38.279838-5.370311-53.701063C764.214279 540.397003 759.119237 530.2069200000001 752.507656 525.249001L752.507656 525.249001z"  horiz-adv-x="1024" />

    
    <glyph glyph-name="mima" unicode="&#58929;" d="M876.25 457.15l-71.75 0 0.25 211.2875C804.75 794.15 674.125 896 512.75 896 351.5375 896 220.75 794.15 220.75 668.4375l-1.35-211.2875L146.125 457.15c-40.375 0-71.4375-32.5375-71.4375-64L73.125-64c0-31.4375 34.225-64 74.5625-64l730.25 0c40.1875 0 71.3125 32.5625 71.3125 64l1.5625 457.1625C950.8125 424.625 916.4375 457.15 876.25 457.15zM657.25 457.15 365.6875 457.15 365.6875 676.5875c0 62.6875 66.6875 105.6625 147.0625 105.6625s145.5-42.975 145.5-105.6625L657.25 457.15z"  horiz-adv-x="1024" />

    
    <glyph glyph-name="password" unicode="&#58930;" d="M642.076 451.325c40.482 0 74.138-29.833 80.213-68.676-13.585 13.517-30.447 23.893-49.493 29.696-9.079 2.799-18.705-2.321-21.436-11.401-2.799-9.079 2.321-18.705 11.401-21.436 32.768-9.967 56.525-38.98 60.621-72.431v-72.841c0-3.618-0.273-7.509-1.024-12.151-0.137-0.956-0.273-1.843-0.273-2.731-1.161-25.122-6.554-49.084-15.497-71.134-32.495-78.37-109.636-132.915-199.475-132.915-89.702 0-166.912 54.477-199.407 132.847-8.943 22.050-14.404 46.012-15.565 71.134 0 0.887-0.137 1.775-0.273 2.662-0.683 4.779-1.024 8.67-1.024 12.288v73.045c5.188 42.735 41.643 75.913 85.743 75.913h202.206c9.489 0 17.203 7.714 17.203 17.203s-7.714 17.203-17.203 17.203h-202.206c-32.973 0-62.805-13.312-84.651-34.748 6.212 38.707 39.799 68.471 80.213 68.471h269.926zM719.831 477.539v79.462c0 14.199-11.537 25.737-25.737 25.737-14.268 0-25.805-11.537-25.805-25.737v-56.73c-8.465 1.707-17.203 2.594-26.214 2.594h-269.926c-8.943 0-17.749-0.887-26.214-2.594v77.687c0 2.458 0.205 5.188 0.751 8.602 0.137 0.887 0.205 1.775 0.273 2.662 2.253 48.811 26.010 91.546 61.918 119.33 27.17 21.026 61.303 33.519 98.236 33.519 58.914 0 112.913-32.154 141.039-83.968 6.758-12.493 22.391-17.135 34.953-10.377 12.493 6.827 17.135 22.46 10.308 34.953-21.094 38.98-53.316 69.495-91.546 88.61-28.877 14.404-61.235 22.323-94.754 22.323-56.525 0-107.93-22.050-145.954-58.095-38.093-36.113-62.737-86.289-65.604-142.609-0.819-5.393-1.161-10.308-1.161-14.95v-100.489c-13.585-9.83-25.259-22.187-34.338-36.318-13.107-20.617-20.753-44.988-20.753-71.202v-135.714c0-5.803 0.478-11.947 1.434-18.637 2.458-48.401 17.613-93.184 42.189-131.209 21.572-33.382 50.381-61.508 84.241-82.33 40.687-25.054 88.678-39.458 139.947-39.458 79.053 0 150.255 34.202 199.134 88.951 39.185 43.827 64.102 100.898 67.243 164.113 1.024 6.69 1.502 12.766 1.502 18.569v135.714c0 44.237-21.845 83.354-55.159 107.588v0zM524.302 182.449v60.826c0 9.489-7.714 17.203-17.135 17.203-9.557 0-17.203-7.714-17.203-17.203v-60.826c-19.456-7.031-33.382-25.6-33.382-47.514 0-27.921 22.596-50.517 50.586-50.517 27.921 0 50.517 22.596 50.517 50.517 0 21.914-13.926 40.482-33.382 47.514z"  horiz-adv-x="1025" />

    
    <glyph glyph-name="mima1" unicode="&#58940;" d="M799.952 480.01V608.007c0 159.062-128.93 287.99-287.989 287.99-159.054 0-287.989-128.928-287.989-287.99V480.01c-53.02 0-95.996-42.968-95.996-95.985v-224.002c0-159.05 128.938-287.98 287.989-287.98h95.9V96.058c-22.928 0.054-33.852 18.746-42.56 42.465-10.687 29.183-21.343 66.026-21.343 85.498 0 35.342 28.657 64.003 63.999 64.003h-0.004c35.35 0 63.999-28.66 63.999-64.003 0-19.533-10.494-56.557-21.311-85.809-8.74-23.588-17.663-42.1-42.584-42.15v-224.017h95.904c159.05 0 287.981 128.927 287.981 287.977V384.025c0 53.02-42.968 95.985-95.996 95.985zM639.96 608.007V480.01H383.973V608.007c0 70.684 57.306 127.99 127.99 127.99s128.001-57.306 128.001-127.986h-0.003z"  horiz-adv-x="1024" />

    
    <glyph glyph-name="mima2" unicode="&#58932;" d="M764.453005 633.429337C764.197156 773.192568 650.553764 885.998637 510.767274 885.091537 370.864489 884.207695 257.686276 770.029346 257.918866 630.266115c0.186072-110.108027 71.079453-202.329896 169.209104-236.729932l0.162813-99.897333 84.546404-83.918412-84.313814-84.965066 84.546404-83.918412-84.313815-84.965066 84.569664-83.918412 84.313814 84.941807-0.744287 437.664289c98.176169 35.586244 168.743924 128.761732 168.557852 238.869759z m-253.267069-1.581611A94.384954 94.384954 0 0 0 416.079953 726.209422a95.454868 95.454868 0 0 0 94.780357 95.547903 94.431472 94.431472 0 0 0 95.129242-94.361695 95.454868 95.454868 0 0 0-94.803616-95.547904z"  horiz-adv-x="1024" />

    
    <glyph glyph-name="mima3" unicode="&#58970;" d="M816.433 556.544h-82.451c0 136.347-100.951 240.314-229.856 240.314s-229.856-104.17-229.856-240.314h-82.25c0 163.494 139.964 325.175 312.108 325.175 172.342 0 312.307-161.684 312.307-325.175zM865.097 416.979c0 46.855-36.802 84.863-82.25 84.863h-549.605c-45.45 0-82.25-38.007-82.25-84.863v-402.803c0-46.855 36.802-84.863 82.25-84.863h549.605c45.45 0 82.25 38.007 82.25 84.863v402.803zM574.106 102.261c0-35.191-27.55-63.748-61.737-63.748h-8.646c-34.188 0-61.737 28.558-61.737 63.748v172.544c0 35.191 27.55 63.549 61.737 63.549h8.646c34.188 0 61.737-28.558 61.737-63.748v-172.342zM574.106 102.261z"  horiz-adv-x="1024" />

    
    <glyph glyph-name="mima4" unicode="&#58933;" d="M750.933333 220.16l-102.4 102.4-34.133333-34.133333-71.68 71.68c30.72 34.133333 47.786667 78.506667 47.786667 126.293333 0 102.4-85.333333 187.733333-187.733334 187.733333S215.04 588.8 215.04 486.4s85.333333-187.733333 187.733333-187.733333c30.72 0 58.026667 6.826667 85.333334 20.48l215.04-215.04 47.786666 47.786666-34.133333 34.133334 34.133333 34.133333zM283.306667 486.4c0 64.853333 54.613333 119.466667 119.466666 119.466667S522.24 551.253333 522.24 486.4 467.626667 366.933333 402.773333 366.933333 283.306667 421.546667 283.306667 486.4z"  horiz-adv-x="1024" />

    
    <glyph glyph-name="mima5" unicode="&#58934;" d="M780.8 541.4200000000001h-115.2v42.89c0 72.31-19.85 193.3-153.6 193.3-138.87 0-153.6-135.05-153.6-193.3v-42.89h-115.2v42.89c0 189.44 105.59 311.69 268.8 311.69s268.8-122.25 268.8-311.69v-42.89zM588.8 226.58000000000004c0 43.52-34.58 78.651-76.8 78.651s-76.8-35.131-76.8-78.651c0-29.46 15.399-54.469 38.439-67.82v-89.639c0-21.74 17.25-39.7 38.4-39.7s38.4 17.959 38.4 39.7v89.639c23.001 13.351 38.361 38.361 38.361 67.82zM896 384v-393.61c0-65.26-51.87-118.39-115.2-118.39h-537.6c-63.291 0-115.2 53.13-115.2 118.39v393.61c0 65.221 51.87 118.39 115.2 118.39h537.6c63.33 0 115.2-53.169 115.2-118.39z"  horiz-adv-x="1024" />

    
    <glyph glyph-name="xingmingyonghumingnicheng-copy" unicode="&#58935;" d="M652.3 333.29999999999995C741.6 382.70000000000005 802 477.8 802 587c0 160.2-129.8 290-290 290-160.2 0-290-129.8-290-290 0-109.2 60.4-204.3 149.7-253.7C184 273.79999999999995 48 98.29999999999995 48-109l58 0c0 224.2 181.8 406 406 406 224.2 0 406-181.8 406-406l58 0C976 98.29999999999995 840 273.79999999999995 652.3 333.29999999999995zM280 587c0 128.1 103.9 232 232 232 128.1 0 232-103.9 232-232 0-128.1-103.9-232-232-232C383.9 355 280 458.9 280 587z"  horiz-adv-x="1024" />

    
    <glyph glyph-name="mima6" unicode="&#58936;" d="M783.189333 462.677333h-19.456v162.986667a163.84 163.84 0 0 1-163.84 164.010667H450.56a164.010667 164.010667 0 0 1-164.010667-164.010667v-162.986667h-19.285333a98.133333 98.133333 0 0 1-98.133333-97.962666c0-273.066667 159.573333-383.829333 350.549333-383.829334 175.274667 0 361.472 93.013333 361.472 383.829334a97.962667 97.962667 0 0 1-97.962667 97.962666zM375.466667 625.664a74.922667 74.922667 0 0 0 74.922666 74.752h149.333334a74.922667 74.922667 0 0 0 74.752-74.752v-162.986667H375.466667z m186.538666-409.6v-76.458667h-73.728v76.117334a69.973333 69.973333 0 1 0 73.898667 0z"  horiz-adv-x="1024" />

    
    <glyph glyph-name="mima7" unicode="&#59188;" d="M637.199888 488.302892v76.982986a129.929977 129.929977 0 0 1-259.319954-0.325v-76.603986H637.199888zM533.255906 290.158926a50.564991 50.564991 0 0 1 25.985996 44.229993 51.700991 51.700991 0 0 1-103.402982 0 50.564991 50.564991 0 0 1 25.985995-44.229993v-84.075985h51.429991V290.159926z m-18.406997-417.671926a511.76291 511.76291 0 1 0 515.38991 511.76291 513.98291 513.98291 0 0 0-515.38991-511.76291zM688.629879 488.247892v77.037986a181.089968 181.089968 0 0 1-362.179936 0v-76.982986h-77.957987v-359.149937h518.096909v359.149937H688.629879z m0 0"  horiz-adv-x="1030" />

    
    <glyph glyph-name="mima8" unicode="&#58971;" d="M820.987422 498.780525V582.76307c0 167.92128-138.700436 307.848379-305.176008 307.848379-166.475571 0-305.176008-139.927098-305.176007-307.848379v-83.982545c-61.070249 0-110.969111-50.380765-110.969111-111.976726v-391.830923c0-61.595961 49.942671-112.020536 110.969111-112.020536h610.395824c61.070249 0 110.969111 50.380765 110.969111 112.020536v391.830923c-0.043809 61.552152-49.986481 111.976726-111.01292 111.976726zM266.098058 582.76307c0 139.927098 116.5329 251.903825 249.713356 251.903825 138.744246 0 249.713357-111.976726 249.713357-251.903825v-83.982545h-499.426713V582.76307z m610.395824-587.790194c0-33.645589-22.255155-55.944554-55.550269-55.944554H210.591598c-33.295114 0-55.50646 22.342774-55.506461 55.944554v391.830923c0 33.60178 22.211346 55.988363 55.506461 55.988363h610.395824c33.295114 0 55.55027-22.430393 55.550269-55.988363v-391.830923z m-360.726277 391.830923c-77.673997 0-138.744246-61.552152-138.744246-139.927098 0-67.15975 49.942671-123.235732 110.969111-134.319501v-89.590143c0-16.778985 11.083768-27.994182 27.731326-27.994181s27.731325 11.215196 27.731325 27.994181v89.590143c61.070249 11.127578 110.969111 67.15975 110.969111 134.319501 0.087619 78.374947-60.98263 139.927098-138.656627 139.927098z m0-223.953452c-44.378883 0-83.237786 39.209378-83.237786 84.026354 0 44.729357 38.858903 83.938735 83.237786 83.938735s83.237786-39.209378 83.237786-83.938735c0-44.816976-38.858903-84.026354-83.237786-84.026354z"  horiz-adv-x="1024" />

    
    <glyph glyph-name="old-password" unicode="&#58937;" d="M170.461867 426.453333A42.478933 42.478933 0 0 1 128 384.008533v-384.221866a42.478933 42.478933 0 0 1 42.453333-42.4448h683.093334a42.478933 42.478933 0 0 1 42.453333 42.4448V384.017067a42.478933 42.478933 0 0 1-42.461867 42.4448h-683.093333zM853.546667-128h-683.093334C100.010667-128 42.666667-70.65599999999995 42.666667-0.2133330000000342V384.017067c0 70.442667 57.344 127.778133 127.778133 127.778133h683.093333c70.442667 0 127.786667-57.344 127.786667-127.778133v-384.221867c0-70.434133-57.344-127.778133-127.786667-127.778133zM768 426.666667H682.666667V640c0 94.122667-76.544 170.666667-170.666667 170.666667s-170.666667-76.544-170.666667-170.666667v-213.333333H256V640C256 781.184 370.816 896 512 896s256-114.816 256-256v-213.333333zM512 85.33333300000004c-23.466667 0-42.666667 19.2-42.666667 42.666667V256c0 23.466667 19.2 42.666667 42.666667 42.666667s42.666667-19.2 42.666667-42.666667v-128c0-23.466667-19.2-42.666667-42.666667-42.666667"  horiz-adv-x="1024" />

    
    <glyph glyph-name="mima9" unicode="&#58938;" d="M518.00064-46.1824h-293.9392c-16.22016 0-31.95904 2.49344-46.63808 9.30816-35.31776 16.31744-56.61696 43.66848-63.91296 81.96096-1.24928 6.62016-1.536 13.3376-1.536 20.05504v345.856c0 29.36832 9.4976 55.17824 29.55776 76.7744 18.3296 19.67616 41.17504 30.80704 67.75296 34.06848 4.41344 0.57344 8.832 0.768 13.24032 0.768 9.97888-0.09728 19.8656 0 29.84448 0 2.59072 0 2.59072 0 3.36384 2.49344 1.82272 5.376 2.688 10.94144 3.072 16.50688 0.57344 7.19872 0.86528 14.4896 1.34144 21.68832 2.87744 39.53664 11.32544 77.63968 28.78464 113.3312 30.80704 62.2848 79.94368 103.07072 146.53952 122.93632 19.19488 5.76 38.9632 9.02144 58.92608 10.55744a330.3936 330.3936 0 0 0 55.08608-0.18944c39.15264-3.456 76.28288-13.7216 110.2592-33.87904 39.3472-23.31648 68.41856-56.23296 88.47872-97.11616 11.89888-24.0896 19.67104-49.52064 24.66304-75.90912 3.26656-17.27488 5.08928-34.64704 5.94944-52.10624 0.384-7.19872 1.15712-14.4896 3.07712-21.49376 0.48128-1.54112 1.05984-3.072 1.4336-4.608 0.4864-1.92 1.63328-2.39616 3.5584-2.39616 9.02144 0.1024 17.94048 0 26.96704 0 5.18144 0 10.35776-0.384 15.5392-1.05984 27.44832-3.93728 50.39104-16.31232 68.4288-37.32992 17.37216-20.34688 26.19904-44.04736 26.19904-70.82496 0.09728-116.69504 0.09728-233.39008 0-350.08512 0-51.72224-36.09088-96.06144-86.66624-106.9056-6.0416-1.24928-12.08832-2.11456-18.32448-2.20672-2.88256 0-5.85728-0.10752-8.7296-0.10752-97.408-0.08704-194.81088-0.08704-292.31616-0.08704z m0.09216 500.75136H224.82432c-1.82272 0-3.64032 0-5.46816-0.09728-18.61632-0.95744-34.16064-13.91616-38.48192-32.14848-0.96256-4.02944-1.05984-8.15616-1.05984-12.28288v-347.78112c0.29184-18.90304 13.43488-35.22048 31.86176-39.7312 4.12672-0.96256 8.3456-1.152 12.57472-1.152h591.15008c17.75104 0.18944 33.39264 11.70944 39.05536 28.49792 1.62816 4.99712 2.20672 10.08128 2.20672 15.35488V413.30176c-0.48128 19.0976-13.05088 35.02592-31.2832 39.92064-4.21888 1.14688-8.53504 1.24928-12.85632 1.24928-98.27328 0.09728-196.34688 0.09728-294.43072 0.09728z m1.15712 67.85024h184.25344c0.86016 0 1.72544 0.1024 2.59072 0 1.43872-0.19456 2.10944 0.48128 2.59072 1.82272 1.14688 3.35872 2.10944 6.81472 2.5856 10.35776 1.43872 9.78944 1.43872 19.57376 0.768 29.46048a188.76416 188.76416 0 0 1-14.1056 60.65152c-26.6752 64.19968-87.41888 110.93504-158.53568 118.03648a190.1568 190.1568 0 0 1-59.01824-3.16928c-36.37248-7.87456-68.23424-24.56576-95.00672-50.3808-38.48192-37.0432-59.02336-82.24256-59.88352-135.8848-0.19456-9.1136 0.37888-18.13504 3.45088-26.87488 1.34144-3.93728 1.34144-3.93728 5.376-3.93728 61.71648-0.08192 123.32544-0.08192 184.9344-0.08192zM551.87456 224.34816c0-15.35488-0.1024-30.70976 0-46.06464 0.1024-11.99104-3.83488-22.35904-12.57472-30.5152-12.08832-11.136-26.29632-14.39744-41.74336-8.7296-15.35488 5.56544-24.0896 16.896-26.48576 33.10592a31.03232 31.03232 0 0 0-0.384 5.18656c0 31.46752-0.09728 62.85312 0 94.33088 0 17.9456 11.22816 33.30048 28.02176 38.77376 25.43104 8.35072 52.01408-9.78944 53.0688-36.56192 0.4864-12.47744 0.1024-25.05216 0.19456-37.61664-0.09728-3.84512-0.09728-7.87968-0.09728-11.90912z"  horiz-adv-x="1024" />

    
    <glyph glyph-name="mima10" unicode="&#58952;" d="M743.9 487.9l-1 212.9c-0.4 89.3-73.5 161.8-162.9 161.4l-154.4-0.7c-89.4-0.4-161.8-73.5-161.4-162.9l1-212.9-163.3-0.7 2.6-580.7 806.8 3.7-2.6 580.7-164.8-0.8zM318.3 698.7c-0.3 59.6 48 108.3 107.6 108.6l154.4 0.7c59.6 0.3 108.3-48 108.6-107.6l1-212.9-370.6-1.7-1 212.9z m538.9-736.9l-698.8-3.2-2.1 472.5 698.7 3.2 2.1-472.5h0.1zM480 135.4l0.6-126.9 54.1 0.2-0.6 127c43.2 12.1 74.8 52 74.6 98.9-0.3 56.3-46.3 102-102.7 101.7-56.3-0.3-102-46.3-101.7-102.7 0.2-46.9 32.3-86.5 75.7-98.2z m26.2 146.9c26.6 0.1 48.2-21.4 48.3-47.9s-21.4-48.2-47.9-48.3c-26.6-0.1-48.2 21.4-48.3 47.9-0.1 26.5 21.4 48.2 47.9 48.3z"  horiz-adv-x="1024" />

    
    <glyph glyph-name="xingmingyonghumingnicheng" unicode="&#58939;" d="M652.3 333.29999999999995C741.6 382.70000000000005 802 477.8 802 587c0 160.2-129.8 290-290 290-160.2 0-290-129.8-290-290 0-109.2 60.4-204.3 149.7-253.7C184 273.79999999999995 48 98.29999999999995 48-109l58 0c0 224.2 181.8 406 406 406 224.2 0 406-181.8 406-406l58 0C976 98.29999999999995 840 273.79999999999995 652.3 333.29999999999995zM280 587c0 128.1 103.9 232 232 232 128.1 0 232-103.9 232-232 0-128.1-103.9-232-232-232C383.9 355 280 458.9 280 587z"  horiz-adv-x="1024" />

    
    <glyph glyph-name="xingmingyonghumingnicheng1" unicode="&#58942;" d="M652.3 333.29999999999995C741.6 382.70000000000005 802 477.8 802 587c0 160.2-129.8 290-290 290-160.2 0-290-129.8-290-290 0-109.2 60.4-204.3 149.7-253.7C184 273.79999999999995 48 98.29999999999995 48-109l58 0c0 224.2 181.8 406 406 406 224.2 0 406-181.8 406-406l58 0C976 98.29999999999995 840 273.79999999999995 652.3 333.29999999999995zM280 587c0 128.1 103.9 232 232 232 128.1 0 232-103.9 232-232 0-128.1-103.9-232-232-232C383.9 355 280 458.9 280 587z"  horiz-adv-x="1024" />

    
    <glyph glyph-name="xingmingyonghumingnicheng-copy1" unicode="&#58944;" d="M652.3 333.29999999999995C741.6 382.70000000000005 802 477.8 802 587c0 160.2-129.8 290-290 290-160.2 0-290-129.8-290-290 0-109.2 60.4-204.3 149.7-253.7C184 273.79999999999995 48 98.29999999999995 48-109l58 0c0 224.2 181.8 406 406 406 224.2 0 406-181.8 406-406l58 0C976 98.29999999999995 840 273.79999999999995 652.3 333.29999999999995zM280 587c0 128.1 103.9 232 232 232 128.1 0 232-103.9 232-232 0-128.1-103.9-232-232-232C383.9 355 280 458.9 280 587z"  horiz-adv-x="1024" />

    
    <glyph glyph-name="mima11" unicode="&#58945;" d="M510.370909-127.25527299999999C280.901818-127.25527299999999 93.090909 60.974545000000035 93.090909 291.048727v37.189818c0 97.605818 78.801455 178.920727 178.501818 178.920728h503.063273a155.508364 155.508364 0 0 0 155.322182-155.694546v-60.416c-2.327273-230.074182-190.091636-418.304-419.607273-418.304zM269.265455 437.434182a108.962909 108.962909 0 0 1-108.916364-109.195637v-37.236363c0-192.837818 155.275636-348.578909 347.694545-348.578909s347.741091 155.741091 347.741091 348.625454V349.090909a85.643636 85.643636 0 0 1-85.783272 85.969455H269.265455v2.327272zM712.052364 481.605818a35.700364 35.700364 0 0 0-34.769455 34.862546V658.245818a166.446545 166.446545 0 0 1-166.912 167.330909 166.446545 166.446545 0 0 1-166.912-167.330909v-141.777454c0-18.618182-16.244364-34.862545-34.769454-34.862546a35.700364 35.700364 0 0 0-34.769455 34.862546V658.245818c0 130.141091 106.589091 237.009455 236.450909 237.009455s236.450909-106.868364 236.450909-237.009455v-141.777454c0-18.618182-16.244364-34.862545-34.769454-34.862546zM510.370909 114.408727a35.700364 35.700364 0 0 0-34.769454 34.909091v151.04c0 18.571636 16.244364 34.816 34.769454 34.816s34.769455-16.244364 34.769455-34.816v-151.086545c0-18.618182-16.244364-34.862545-34.769455-34.862546z"  horiz-adv-x="1024" />

    
    <glyph glyph-name="xingmingyonghumingnicheng2" unicode="&#58948;" d="M652.3 333.29999999999995C741.6 382.70000000000005 802 477.8 802 587c0 160.2-129.8 290-290 290-160.2 0-290-129.8-290-290 0-109.2 60.4-204.3 149.7-253.7C184 273.79999999999995 48 98.29999999999995 48-109l58 0c0 224.2 181.8 406 406 406 224.2 0 406-181.8 406-406l58 0C976 98.29999999999995 840 273.79999999999995 652.3 333.29999999999995zM280 587c0 128.1 103.9 232 232 232 128.1 0 232-103.9 232-232 0-128.1-103.9-232-232-232C383.9 355 280 458.9 280 587z"  horiz-adv-x="1024" />

    
    <glyph glyph-name="password1" unicode="&#58949;" d="M789.1-56.1H230.4c-47.5 0-83.8 36.3-83.8 83.8V418.8c0 47.5 36.3 83.8 83.8 83.8h558.7c47.5 0 83.8-36.3 83.8-83.8v-391.1c0-47.5-36.3-83.8-83.8-83.8zM230.4 446.7c-16.8 0-27.9-11.2-27.9-27.9v-391.1c0-16.8 11.2-27.9 27.9-27.9h558.7c16.8 0 27.9 11.2 27.9 27.9V418.8c0 16.8-11.2 27.9-27.9 27.9H230.4z m0 0M705.3 502.6H314.2V698.1c0 47.5 36.3 83.8 83.8 83.8h223.5c47.5 0 83.8-36.3 83.8-83.8v-111.7c0-16.8 11.2-27.9 27.9-27.9 16.8 0 27.9 11.2 27.9 27.9V698.1c0 78.2-61.5 139.7-139.7 139.7H398c-78.2 0-139.7-61.5-139.7-139.7v-251.4h502.8v55.9h-55.8zM509.8 111.5c-16.8 0-27.9 11.2-27.9 27.9V307c0 14 11.2 27.9 27.9 27.9 14 0 27.9-11.2 27.9-27.9v-167.6c0-16.7-11.2-27.9-27.9-27.9z m0 0"  horiz-adv-x="1024" />

    
    <glyph glyph-name="mima12" unicode="&#58966;" d="M864 512h-96c0 141.376-114.624 256-256 256S256 653.376 256 512h-96c-17.664 0-32-14.336-32-32v-448c0-17.6 14.336-32 32-32h704c17.664 0 32 14.4 32 32V480c0 17.664-14.336 32-32 32zM512 704c105.856 0 192-86.144 192-192H320c0 105.856 86.144 192 192 192z m320-640H192V448h640v-384zM576 320c0 35.392-28.672 64-64 64s-64-28.608-64-64c0-23.36 13.248-43.008 32-54.208V128h64V265.792c18.752 11.2 32 30.848 32 54.208z"  horiz-adv-x="1024" />

    
    <glyph glyph-name="xingmingyonghumingnicheng-copy-copy" unicode="&#58951;" d="M652.3 333.29999999999995C741.6 382.70000000000005 802 477.8 802 587c0 160.2-129.8 290-290 290-160.2 0-290-129.8-290-290 0-109.2 60.4-204.3 149.7-253.7C184 273.79999999999995 48 98.29999999999995 48-109l58 0c0 224.2 181.8 406 406 406 224.2 0 406-181.8 406-406l58 0C976 98.29999999999995 840 273.79999999999995 652.3 333.29999999999995zM280 587c0 128.1 103.9 232 232 232 128.1 0 232-103.9 232-232 0-128.1-103.9-232-232-232C383.9 355 280 458.9 280 587z"  horiz-adv-x="1024" />

    
    <glyph glyph-name="xingmingyonghumingnicheng3" unicode="&#58955;" d="M643.53125 336.46875C727.25 382.78125 783.875 471.9375 783.875 574.3125c0 150.1875-121.6875 271.875-271.875 271.875S240.125 724.5 240.125 574.3125c0-102.375 56.625-191.53125 140.34375-237.84375C204.5 280.6875 77 116.15625 77-78.1875h54.375c0 210.1875 170.4375 380.625 380.625 380.625s380.625-170.4375 380.625-380.625h54.375c0 194.34375-127.5 358.875-303.46875 414.65625zM294.5 574.3125c0 120.09375 97.40625 217.5 217.5 217.5s217.5-97.40625 217.5-217.5-97.40625-217.5-217.5-217.5-217.5 97.40625-217.5 217.5z"  horiz-adv-x="1024" />

    
    <glyph glyph-name="xingmingyonghuming" unicode="&#58956;" d="M661.461333 323.84A223.146667 223.146667 0 0 0 512 266.666667a223.146667 223.146667 0 0 0-144.896 53.162666 374.656 374.656 0 0 1-197.205333-208.298666A436.522667 436.522667 0 0 1 512-53.333333c143.872 0 271.488 69.461333 351.189333 176.64a374.741333 374.741333 0 0 1-201.728 200.533333z m42.453334 51.2a439.04 439.04 0 0 0 199.125333-187.093333A435.498667 435.498667 0 0 1 949.333333 384c0 241.493333-195.84 437.333333-437.333333 437.333333S74.666667 625.493333 74.666667 384c0-75.818667 19.285333-147.114667 53.248-209.28a439.04 439.04 0 0 0 195.413333 195.2 224 224 0 1 0 380.586667 5.12zM98.688 100.181333A499.029333 499.029333 0 0 0 10.666667 384C10.666667 660.906667 235.093333 885.333333 512 885.333333S1013.333333 660.906667 1013.333333 384 788.906667-117.333333 512-117.333333a500.693333 500.693333 0 0 0-408.149333 210.176l-6.698667 1.834666 1.536 5.504zM512 330.666667a160 160 0 1 1 0 320 160 160 0 0 1 0-320z"  horiz-adv-x="1024" />

    
    <glyph glyph-name="xingmingyonghumingnicheng4" unicode="&#58957;" d="M658.968 333.288c93.574 49.395 156.819 144.53 156.819 253.708 0 160.183-135.949 289.987-303.787 289.987-167.838 0-303.787-129.804-303.787-289.987 0-109.227 63.245-204.313 156.819-253.708-196.657-59.49-339.188-235.033-339.188-442.27H86.6c0 224.158 190.464 405.99 425.35 405.99s425.35-181.832 425.35-405.99h60.758c0 207.237-142.483 382.78-339.14 442.27zM268.971 586.996C268.97 715.093 377.807 819.005 512 819.005s243.03-103.863 243.03-232.01c0-128.097-108.837-232.008-243.03-232.008S268.97 458.898 268.97 586.996z"  horiz-adv-x="1024" />

    
    <glyph glyph-name="xingmingyonghumingnicheng5" unicode="&#58958;" d="M652.3 333.3C741.6 382.7 802 477.8 802 587c0 160.2-129.8 290-290 290S222 747.2 222 587c0-109.2 60.4-204.3 149.7-253.7C184 273.8 48 98.3 48-109h58c0 224.2 181.8 406 406 406s406-181.8 406-406h58c0 207.3-136 382.8-323.7 442.3zM280 587c0 128.1 103.9 232 232 232s232-103.9 232-232-103.9-232-232-232-232 103.9-232 232z"  horiz-adv-x="1024" />

    
    <glyph glyph-name="mima13" unicode="&#59001;" d="M861.157959 449.850052l-574.103933 0.934c-0.225 76.547991-21.025998 195.146977 44.895995 267.129969a261.217969 261.217969 0 0 0 180.143979 89.004989c106.739987 0 186.540978-79.576991 225.188974-178.085979 11.223999-28.395997 21.175998-43.697995 44.895994-44.520994 59.859993-1.796 56.119993 60.645993 44.894995 89.042989C771.25397 815.525009 666.533982 895.963 511.794 895.963c-105.167988 0-163.082981-21.325998-225.189974-89.04399-95.027989-103.446988-90.313989-270.719968-90.089989-356.134958l-33.671996-0.972a55.894993 55.894993 0 0 1-56.567993-55.184993v-467.325945a55.894993 55.894993 0 0 1 56.567993-55.296994h697.454918a55.894993 55.894993 0 0 1 56.568994 55.296994V394.627059a55.819993 55.819993 0 0 1-56.531994 55.184993z m-32.099996-443.869948a42.388995 42.388995 0 0 0-13.244999-31.538996 43.623995 43.623995 0 0 0-31.875996-13.093998H242.420032a43.211995 43.211995 0 0 0-31.837997 13.093998 42.762995 42.762995 0 0 0-13.281998 31.539996V318.191068a44.895995 44.895995 0 0 0 45.119995 44.521994H783.899968a44.895995 44.895995 0 0 0 45.119995-44.521994V5.980104z"  horiz-adv-x="1024" />

    
    <glyph glyph-name="mima14" unicode="&#58959;" d="M861.157959 449.850052l-574.103933 0.934c-0.225 76.547991-21.025998 195.146977 44.895995 267.129969a261.217969 261.217969 0 0 0 180.143979 89.004989c106.739987 0 186.540978-79.576991 225.188974-178.085979 11.223999-28.395997 21.175998-43.697995 44.895994-44.520994 59.859993-1.796 56.119993 60.645993 44.894995 89.042989C771.25397 815.525009 666.533982 895.963 511.794 895.963c-105.167988 0-163.082981-21.325998-225.189974-89.04399-95.027989-103.446988-90.313989-270.719968-90.089989-356.134958l-33.671996-0.972a55.894993 55.894993 0 0 1-56.567993-55.184993v-467.325945a55.894993 55.894993 0 0 1 56.567993-55.296994h697.454918a55.894993 55.894993 0 0 1 56.568994 55.296994V394.627059a55.819993 55.819993 0 0 1-56.531994 55.184993z m-32.099996-443.869948a42.388995 42.388995 0 0 0-13.244999-31.538996 43.623995 43.623995 0 0 0-31.875996-13.093998H242.420032a43.211995 43.211995 0 0 0-31.837997 13.093998 42.762995 42.762995 0 0 0-13.281998 31.539996V318.191068a44.895995 44.895995 0 0 0 45.119995 44.521994H783.899968a44.895995 44.895995 0 0 0 45.119995-44.521994V5.980104z"  horiz-adv-x="1024" />

    
    <glyph glyph-name="mima15" unicode="&#59551;" d="M780.8 458.478933c41.130667 0 74.478933-33.348267 74.478933-74.478933v-347.5456a74.478933 74.478933 0 0 0-74.478933-74.478933h-546.133333a74.478933 74.478933 0 0 0-74.478934 74.478933V384c0 41.130667 33.348267 74.478933 74.478934 74.478933h546.133333m0 74.478934h-546.133333A148.957867 148.957867 0 0 1 85.7088 384v-347.5456a148.957867 148.957867 0 0 1 148.957867-148.923733h546.133333a148.957867 148.957867 0 0 1 148.957867 148.923733V384a148.957867 148.957867 0 0 1-148.957867 148.957867z m-273.066667 273.066666a173.738667 173.738667 0 0 0 173.738667-173.7728v-99.328H334.0288v99.328a173.738667 173.738667 0 0 0 173.738667 173.738667m0 74.478933a248.251733 248.251733 0 0 1-248.251734-248.2176v-173.7728h496.503467v173.738667A248.251733 248.251733 0 0 1 507.733333 880.503467z m0-781.960533a37.205333 37.205333 0 0 0-37.205334 37.239467v148.957866a37.205333 37.205333 0 0 0 74.410667 0v-148.957866a37.205333 37.205333 0 0 0-37.205333-37.205334z"  horiz-adv-x="1024" />

    
    <glyph glyph-name="denglumima" unicode="&#59057;" d="M861.157959 449.850052l-574.103933 0.934c-0.225 76.547991-21.025998 195.146977 44.895995 267.129969a261.217969 261.217969 0 0 0 180.143979 89.004989c106.739987 0 186.540978-79.576991 225.188974-178.085979 11.223999-28.395997 21.175998-43.697995 44.895994-44.520994 59.859993-1.796 56.119993 60.645993 44.894995 89.042989C771.25397 815.525009 666.533982 895.963 511.794 895.963c-105.167988 0-163.082981-21.325998-225.189974-89.04399-95.027989-103.446988-90.313989-270.719968-90.089989-356.134958l-33.671996-0.972a55.894993 55.894993 0 0 1-56.567993-55.184993v-467.325945a55.894993 55.894993 0 0 1 56.567993-55.296994h697.454918a55.894993 55.894993 0 0 1 56.568994 55.296994V394.627059a55.819993 55.819993 0 0 1-56.531994 55.184993z m-32.099996-443.869948a42.388995 42.388995 0 0 0-13.244999-31.538996 43.623995 43.623995 0 0 0-31.875996-13.093998H242.420032a43.211995 43.211995 0 0 0-31.837997 13.093998 42.762995 42.762995 0 0 0-13.281998 31.539996v312.209964a44.895995 44.895995 0 0 0 45.119995 44.521994H783.899968a44.895995 44.895995 0 0 0 45.119995-44.521994v-312.209964z"  horiz-adv-x="1024" />

    
    <glyph glyph-name="mima16" unicode="&#58997;" d="M780.8 458.479c41.13 0 74.479-33.348 74.479-74.479v-347.546a74.479 74.479 0 0 0-74.479-74.479H234.667a74.479 74.479 0 0 0-74.48 74.48V384c0 41.13 33.349 74.479 74.48 74.479H780.8m0 74.479H234.667A148.958 148.958 0 0 1 85.709 384v-347.546a148.958 148.958 0 0 1 148.958-148.923H780.8a148.958 148.958 0 0 1 148.958 148.923V384A148.958 148.958 0 0 1 780.8 532.958zM507.733 806.025a173.739 173.739 0 0 0 173.739-173.773v-99.328H334.029v99.328A173.739 173.739 0 0 0 507.767 805.99m0 74.48a248.252 248.252 0 0 1-248.251-248.218v-173.773h496.503V632.218A248.252 248.252 0 0 1 507.733 880.503z m0-781.961a37.205 37.205 0 0 0-37.205 37.24V284.705a37.205 37.205 0 0 0 74.41 0v-148.958a37.205 37.205 0 0 0-37.205-37.205z"  horiz-adv-x="1024" />

    
    <glyph glyph-name="mima17" unicode="&#58960;" d="M786.673 467.546c40.237 0 72.885-32.707 72.885-72.945v-340.329a72.885 72.885 0 0 0-72.885-73.005h-534.89a72.885 72.885 0 0 0-72.884 72.945v340.33c0 40.357 32.587 73.004 72.885 73.004h534.889m0 72.885h-534.89a145.89 145.89 0 0 1-145.89-145.83v-340.329a145.89 145.89 0 0 1 145.89-145.89h534.83a145.89 145.89 0 0 1 145.89 145.83v340.33a145.89 145.89 0 0 1-145.89 145.89zM519.228 807.876A170.165 170.165 0 0 0 689.393 637.71v-97.28h-340.33v97.28A170.165 170.165 0 0 0 519.229 807.876m0 72.884a243.11 243.11 0 0 1-243.11-243.049v-170.165h486.28V637.591a243.11 243.11 0 0 1-243.17 243.29z m0-765.77a36.442 36.442 0 0 0-36.442 36.442v145.89a36.442 36.442 0 0 0 72.885 0v-145.89c0-20.12-16.264-36.383-36.443-36.383v-0.06z"  horiz-adv-x="1024" />

    
    <glyph glyph-name="mima18" unicode="&#58961;" d="M780.8 458.479c41.13 0 74.479-33.348 74.479-74.479v-347.546a74.479 74.479 0 0 0-74.479-74.479H234.667a74.479 74.479 0 0 0-74.48 74.48V384c0 41.13 33.349 74.479 74.48 74.479H780.8m0 74.479H234.667A148.958 148.958 0 0 1 85.709 384v-347.546a148.958 148.958 0 0 1 148.958-148.923H780.8a148.958 148.958 0 0 1 148.958 148.923V384A148.958 148.958 0 0 1 780.8 532.958zM507.733 806.025a173.739 173.739 0 0 0 173.739-173.773v-99.328H334.029v99.328A173.739 173.739 0 0 0 507.767 805.99m0 74.48a248.252 248.252 0 0 1-248.251-248.218v-173.773h496.503V632.218A248.252 248.252 0 0 1 507.733 880.503z m0-781.961a37.205 37.205 0 0 0-37.205 37.24V284.705a37.205 37.205 0 0 0 74.41 0v-148.958a37.205 37.205 0 0 0-37.205-37.205z"  horiz-adv-x="1024" />

    
    <glyph glyph-name="yuan" unicode="&#58943;" d="M511.528375-126.751067C229.648894-126.751067 0.47412 102.422458 0.47412 384.296949 0.47412 666.17643 229.648894 895.351204 511.528375 895.351204 793.402866 895.351204 1022.575144 666.17643 1022.575144 384.296949c0-281.874491-229.17103-511.048016-511.046769-511.048016z m0 958.222049c-246.808305 0-447.174033-200.365728-447.174032-447.174033 0-246.802066 200.365728-447.166546 447.174032-447.166546 246.800819 0 447.169042 200.365728 447.169042 447.166546 0 246.808305-200.368223 447.174033-447.169042 447.174033z m0 0M599.303012 662.198811V107.463106H485.411834V534.640491c-14.016493-12.149956-33.175943-23.073438-57.470865-32.764207-24.30116-9.697008-46.607272-15.71584-66.933307-18.047763v97.06989c64.008734 18.689073 119.377249 45.787543 166.104298 81.3004h72.191052z"  horiz-adv-x="1024" />

    
    <glyph glyph-name="gouwuche1" unicode="&#58925;" d="M904.474267 108.668086H115.240473a37.805663 37.805663 0 0 0-35.25436 35.115198S25.805728 444.92974 1.127676 652.281042c-7.097259 57.427497 19.992933 85.491823 72.92086 85.491823h862.154655l14.194519 123.065549A36.692367 36.692367 0 0 0 983.286317 896h158.783782a39.846704 39.846704 0 1 0 0-79.693409h-123.529422l-79.971733-672.616081a35.903783 35.903783 0 0 0-34.094677-34.976037zM77.759522 659.424689c21.291778-166.391302 56.453364-389.004032 70.555107-471.99094h722.018573L926.647404 659.424689z m787.888561-630.450012a78.487339 78.487339 0 1 0-78.858437-78.487338 78.487339 78.487339 0 0 0 78.858437 78.487338z m-711.581427 0a78.487339 78.487339 0 1 0-78.858437-78.487338 78.487339 78.487339 0 0 0 78.858437 78.487338z"  horiz-adv-x="1183" />

    
    <glyph glyph-name="gouwuche2" unicode="&#58926;" d="M276.841412 110.712471h787.154823a37.707294 37.707294 0 0 1 35.177412 35.026823s53.970824 300.333176 78.607059 507.181177c7.077647 57.223529-19.907765 85.293176-72.734118 85.293176H245.187765l-14.155294 122.699294A36.592941 36.592941 0 0 1 198.174118 896H39.845647a39.755294 39.755294 0 0 1 0-79.450353h123.181177l79.811764-670.930823a35.84 35.84 0 0 1 34.002824-34.936471zM1101.552941 659.937882c-21.232941-165.948235-56.32-387.975529-70.384941-470.738823H310.874353l-56.32 470.738823h846.998588zM315.542588 31.262118a78.305882 78.305882 0 1 1 78.607059-78.305883 78.426353 78.426353 0 0 1-78.546823 78.305883h-0.060236z m709.722353 0a78.305882 78.305882 0 1 1 78.607059-78.305883 78.426353 78.426353 0 0 1-78.576941 78.305883z"  horiz-adv-x="1204" />

    
    <glyph glyph-name="gouwuche11" unicode="&#58927;" d="M367.1 145.5q17.1 0 32.4-6.3t27-17.55 18-26.55 6.3-32.4-6.3-32.4-18-26.55-27-18-32.4-6.75q-18 0-32.85 6.75t-26.55 18-18 26.55-6.3 32.4 6.3 32.4 18 26.55 26.55 17.55 32.85 6.3zM741.5 143.70000000000005q17.1 0 32.85-6.3t27-17.55 18-26.55 6.75-32.4-6.75-32.4-18-26.55-27-18-32.85-6.75-32.4 6.75-26.55 18-18 26.55-6.75 32.4 6.75 32.4 18 26.55 26.55 17.55 32.4 6.3zM892.7 654.9q25.2 0 39.15-6.75t19.8-16.65 5.4-21.15-3.15-19.35-11.25-33.3-19.35-55.35-21.15-59.85-15.75-46.8q-11.7-36-29.7-49.95t-44.1-13.95l-30.6 0-58.5 0-76.5 0-83.7 0-223.2 0 13.5-81 453.6 0q43.2 0 43.2-36.9 0-18-8.55-31.05t-33.75-13.05l-43.2 0-83.7 0-103.5 0-105.3 0-86.4 0-49.5 0q-18 0-30.15 8.1t-20.25 21.15-13.05 28.35-7.65 28.8q-0.9 5.4-4.95 26.1t-9.9 51.75-13.05 69.3-14.4 76.95q-17.1 90.9-38.7 202.5l-67.5 0q-13.5 0-22.5 6.75t-14.85 16.2-8.1 20.25-2.25 19.8q0 18 12.15 29.7t32.85 11.7l19.8 0 18 0 22.5 0 30.6 0q18 0 28.8-5.4t17.1-13.5 9-17.1 4.5-15.3q1.8-7.2 3.6-20.25t3.6-26.55q2.7-16.2 5.4-34.2l615.6 0z"  horiz-adv-x="1024" />

    
    <glyph glyph-name="shop-car-select" unicode="&#58928;" d="M276.841412 110.71247100000005h787.154823a37.707294 37.707294 0 0 1 35.177412 35.026823s53.970824 300.333176 78.607059 507.181177c7.077647 57.223529-19.907765 85.293176-72.734118 85.293176H245.187765l-14.155294 122.699294A36.592941 36.592941 0 0 1 198.174118 896H39.845647a39.755294 39.755294 0 0 1 0-79.450353h123.181177l79.811764-670.930823a35.84 35.84 0 0 1 34.002824-34.936471zM1101.552941 659.937882c-21.232941-165.948235-56.32-387.975529-70.384941-470.738823H310.874353l-56.32 470.738823h846.998588zM315.542588 31.262117999999987a78.305882 78.305882 0 1 1 78.607059-78.305883 78.426353 78.426353 0 0 1-78.546823 78.305883h-0.060236z m709.722353 0a78.305882 78.305882 0 1 1 78.607059-78.305883 78.426353 78.426353 0 0 1-78.576941 78.305883z"  horiz-adv-x="1204" />

    
    <glyph glyph-name="gouwuche4" unicode="&#58931;" d="M276.841 110.712h787.155a37.707 37.707 0 0 1 35.178 35.027s53.97 300.333 78.607 507.181c7.077 57.224-19.908 85.294-72.734 85.294h-859.86L231.033 860.913A36.593 36.593 0 0 1 198.174 896H39.846a39.755 39.755 0 0 1 0-79.45h123.18l79.813-670.931a35.84 35.84 0 0 1 34.002-34.937z m824.712 549.226c-21.233-165.948-56.32-387.976-70.385-470.739H310.874l-56.32 470.739h846.999z m-786.01-628.676a78.306 78.306 0 1 1 78.607-78.306 78.426 78.426 0 0 1-78.547 78.306h-0.06z m709.722 0a78.306 78.306 0 1 1 78.607-78.306 78.426 78.426 0 0 1-78.577 78.306z"  horiz-adv-x="1204" />

    
    <glyph glyph-name="weibiaoti1" unicode="&#58917;" d="M668.96701 89.2096c-188.216076 0-341.333333 153.051429-341.333333 341.333333 0 188.413562 153.117257 341.462552 341.333333 341.462552 188.279467 0 341.59421-153.04899 341.59421-341.462552C1010.561219 242.261029 857.244038 89.2096 668.96701 89.2096zM668.96701 690.8096c-143.447771 0-260.269105-116.689676-260.269105-260.269105 0-143.445333 116.823771-260.137448 260.269105-260.137448 143.642819 0 260.334933 116.689676 260.334933 260.137448C929.301943 574.122362 812.609829 690.8096 668.96701 690.8096zM423.767771 128.51901c0.453486-0.492495 0.419352-1.270248-0.075581-1.721295L92.303848-176.591543c-0.494933-0.453486-1.270248-0.419352-1.721295 0.075581L8.916114-87.1232c-0.453486 0.494933-0.416914 1.270248 0.075581 1.723733L340.114286 217.9264c0.494933 0.453486 1.270248 0.419352 1.723733-0.073143L423.767771 128.51901z"  horiz-adv-x="1024" />

    
    <glyph glyph-name="sousuo" unicode="&#58918;" d="M1013.76-66.592 809.984 137.184c43.008 68.608 68.608 148.48 68.608 235.52C878.592 615.392 681.984 812 439.296 812 196.608 812 0 615.392 0 372.704c0-242.688 196.608-439.296 439.296-439.296 87.04 0 167.936 25.6 235.52 68.608L878.592-201.76c13.312-13.312 121.856-13.312 135.168 0C1027.072-188.448 1027.072-79.904 1013.76-66.592zM439.296 68.576c-167.936 0-304.128 136.192-304.128 304.128 0 167.936 136.192 304.128 304.128 304.128 167.936 0 304.128-136.192 304.128-304.128C743.424 204.768 607.232 68.576 439.296 68.576z"  horiz-adv-x="1024" />

    
    <glyph glyph-name="sousuo1" unicode="&#58919;" d="M681.95525 308.19525 1011.588104-21.4376C1027.449573-37.299073 1027.216638-63.24854 1011.548049-78.917128L974.917284-115.54789C959.033688-131.431485 933.403533-131.553722 917.437755-115.587944L587.804905 214.044905 681.95525 308.19525ZM379.525083 177.90983 379.525083 177.90983C566.509416 177.90983 718.09017 329.490584 718.09017 516.474917 718.09017 703.459249 566.509416 855.04 379.525083 855.04 192.540751 855.04 40.96 703.459249 40.96 516.474917 40.96 329.490584 192.540751 177.90983 379.525083 177.90983L379.525083 177.90983ZM379.525083 136.94983 379.525083 136.94983C169.919168 136.94983 0 306.868998 0 516.474917 0 726.080832 169.919168 896 379.525083 896 589.131002 896 759.05017 726.080832 759.05017 516.474917 759.05017 306.868998 589.131002 136.94983 379.525083 136.94983L379.525083 136.94983Z"  horiz-adv-x="1024" />

    
    <glyph glyph-name="sousuo2" unicode="&#58920;" d="M465.737365-48.379447C723.163792-48.379447 931.474729 163.225963 931.474729 423.810277 931.474729 684.39459 723.163792 896 465.737365 896 208.310938 896 0 684.39459 0 423.810277 0 163.225963 208.310938-48.379447 465.737365-48.379447L465.737365-48.379447ZM465.737365 21.035431C247.457574 21.035431 70.132428 201.165001 70.132428 423.810277 70.132428 646.455552 247.457574 826.585123 465.737365 826.585123 684.017156 826.585123 861.342302 646.455552 861.342302 423.810277 861.342302 201.165001 684.017156 21.035431 465.737365 21.035431ZM812.64061 36.054958 963.818307-117.513641C977.333528-131.242607 999.534355-131.52798 1013.405241-118.151038 1027.276126-104.774095 1027.564449-82.800413 1014.049228-69.071445L862.871529 84.497152C849.356307 98.22612 827.15548 98.511491 813.284595 85.134549 799.413709 71.757606 799.125387 49.783924 812.64061 36.054958ZM327.838574 239.965083C294.711711 265.311476 270.803011 295.214358 254.770629 328.936663 230.048514 380.936834 225.641013 436.913918 233.10923 486.906987 234.224495 494.372707 235.280576 499.439524 235.854732 501.649792 240.677219 520.214386 229.381472 539.133365 210.624972 543.906512 191.868471 548.679661 172.753924 537.499482 167.931437 518.934888 166.769123 514.46046 165.220498 507.030521 163.731059 497.060055 154.41569 434.701938 159.861706 365.535299 191.312792 299.381494 212.006505 255.854609 242.898083 217.218161 284.945402 185.046451 300.267529 173.323017 322.290531 176.113248 334.135155 191.278609 345.979778 206.443971 343.160703 228.241647 327.838574 239.965083L327.838574 239.965083Z"  horiz-adv-x="1025" />

    
    <glyph glyph-name="magnifier" unicode="&#58921;" d="M91.840124-128c-24.526219 0-47.581225 9.526749-64.926771 26.872295C9.55047-83.746573 0.004458-60.692074 0.004458-36.14649c0 24.508882 9.546012 47.598967 26.908895 64.945527l185.671781 185.670261c17.345039 17.345546 40.399537 26.908895 64.926771 26.908895 24.527233 0 47.598967-9.563349 64.962864-26.872295 35.799952-35.854397 35.781196-94.144532 0-129.925728L156.803495-101.127705C139.440105-118.473251 116.367864-128 91.840124-128L91.840124-128zM277.511905 204.142612c-14.582166 0-28.291092-5.673264-38.600035-16.000051L53.241103 2.471287c-10.327699-10.327699-16.000051-24.036626-16.000051-38.617777 0-14.582267 5.672352-28.327794 16.000051-38.653465 20.618291-20.618899 56.581171-20.618899 77.235656 0.034573l185.671274 185.67239c21.272231 21.272231 21.272231 55.926622-0.018858 77.235656C305.820842 198.469348 292.111915 204.142612 277.511905 204.142612L277.511905 204.142612zM348.001531 149.597985c-1.617819 0-3.253988 0.217879-4.872314 0.653636-6.4366 1.746478-11.454505 6.799968-13.145524 13.236569-2.526745 9.707926-7.200038 17.999892-13.854517 24.690161-6.617777 6.582191-14.926676 11.236524-24.672215 13.818829-6.436195 1.708863-11.472247 6.72768-13.217812 13.16428-1.727214 6.435688 0.108889 13.307945 4.818275 17.998067l59.562836 59.564356c3.709415 3.745508 8.817857 5.745552 14.090646 5.453459 5.254945-0.290066 10.163352-2.763381 13.491048-6.835656 14.672298-17.926691 31.200063-34.472301 49.144599-49.126755 4.07329-3.34554 6.545489-8.254454 6.818319-13.491048 0.254986-5.272282-1.708965-10.363387-5.436629-14.108895l-59.562836-59.563444C357.63808 151.524727 352.874757 149.597985 348.001531 149.597985L348.001531 149.597985zM328.402475 225.851514c5.090598-3.309852 9.799477-7.091149 14.053944-11.345616 4.272817-4.291067 8.090614-9.01779 11.40006-14.073207l26.381687 26.363336c-8.872808 8.073277-17.36339 16.58221-25.454511 25.454511L328.402475 225.851514 328.402475 225.851514zM639.23514 126.470286c-212.161343 0-384.759889 172.616795-384.759889 384.769318C254.475251 723.401454 427.073797 896 639.23514 896s384.760396-172.598546 384.760396-384.760396C1023.995536 299.087081 851.396585 126.470286 639.23514 126.470286L639.23514 126.470286zM639.23514 858.763811c-191.615341 0-347.523701-155.907346-347.523701-347.524208 0-191.606926 155.90836-347.532623 347.523701-347.532623 191.616862 0 347.525728 155.925697 347.525728 347.532623C986.760869 702.856466 830.852002 858.763811 639.23514 858.763811L639.23514 858.763811zM437.855909 510.91233c-10.290592 0-18.618246 8.327249-18.618246 18.618348 0 131.416307 106.890595 238.324746 238.288551 238.324746 10.290085 0 18.618855-8.326742 18.618855-18.617841 0-10.290592-8.32877-18.618246-18.618855-18.618246-110.853475 0-201.052464-90.199496-201.052464-201.088659C456.473749 519.239579 448.146095 510.91233 437.855909 510.91233L437.855909 510.91233z"  horiz-adv-x="1024" />

    
    <glyph glyph-name="sousuo3" unicode="&#58923;" d="M896.4 584.4c-17.4 41.1-42.3 78-73.9 109.7-31.7 31.7-68.6 56.6-109.7 73.9-42.6 18-87.7 27.1-134.3 27.1S486.7 786 444.1 768c-41.1-17.4-78-42.3-109.7-73.9-31.7-31.7-56.6-68.6-73.9-109.7-18-42.6-27.1-87.7-27.1-134.3s9.1-91.8 27.1-134.3c7.8-18.5 17.2-36.1 28-52.8L119.1 93.5c-13.6-13.6-21.1-31.7-21.1-51s7.5-37.5 21.1-51c13.6-13.6 31.7-21.1 51-21.1s37.5 7.5 51 21.1l169.3 169.3c17-11 34.9-20.6 53.7-28.6 42.6-18 87.7-27.1 134.3-27.1s91.8 9.1 134.3 27.1c41.1 17.4 78 42.3 109.7 73.9s56.6 68.6 73.9 109.7c18 42.6 27.1 87.7 27.1 134.3s-9 91.7-27 134.3zM195.7 16.9c-14.1-14.1-37.1-14.1-51.2 0-6.8 6.8-10.5 15.9-10.5 25.6s3.7 18.8 10.5 25.6l165.4 165.4c7.7-9.5 15.9-18.6 24.6-27.3 8.5-8.5 17.3-16.4 26.5-23.9L195.7 16.9zM797 231.5C738.6 173.2 661 141 578.5 141S418.3 173.1 360 231.5c-58.4 58.4-90.5 136-90.5 218.5s32.1 160.2 90.5 218.5c58.4 58.4 136 90.5 218.5 90.5s160.1-32 218.5-90.4 90.5-136 90.5-218.5c0-82.6-32.1-160.2-90.5-218.6zM578.5 219c-7.7 0-14-6.3-14-14s6.3-14 14-14c69.2 0 134.3 26.9 183.2 75.9 48.9 48.9 75.9 114 75.9 183.2 0 7.7-6.3 14-14 14s-14-6.3-14-14c0-61.7-24-119.8-67.7-163.4C698.2 243 640.2 219 578.5 219z"  horiz-adv-x="1024" />

    
    </font>
</defs>
</svg>
